<svg version="1.1" viewBox="0.0 0.0 127.67979002624672 127.67979002624672" fill="none" stroke="none" stroke-linecap="square" stroke-miterlimit="10" xmlns:xlink="http://www.w3.org/1999/xlink" xmlns="http://www.w3.org/2000/svg"><clipPath id="p.0"><path d="m0 0l127.67979 0l0 127.67979l-127.67979 0l0 -127.67979z" clip-rule="nonzero"/></clipPath><g clip-path="url(#p.0)"><path fill="#000000" fill-opacity="0.0" d="m0 0l127.67979 0l0 127.67979l-127.67979 0z" fill-rule="evenodd"/><path fill="#000000" fill-opacity="0.0" d="m-9.183727 -8.052493l146.04724 0l0 174.51968l-146.04724 0z" fill-rule="evenodd"/><path fill="#1e5a50" d="m54.88476 57.905636q0 12.031254 -6.15625 18.437504q-6.140625 6.390625 -16.5 6.390625q-10.375 0 -16.515625 -6.390625q-6.140625 -6.40625 -6.140625 -18.437504q0 -12.03125 6.140625 -18.421875q6.140625 -6.40625 16.515625 -6.40625q10.359375 0 16.5 6.40625q6.15625 6.390625 6.15625 18.421875zm-14.46875 0q0 -6.53125 -2.3125 -9.46875q-2.296875 -2.953125 -5.875 -2.953125q-3.71875 0 -5.96875 2.953125q-2.234375 2.9375 -2.234375 9.46875q0 6.531254 2.234375 9.546879q2.25 3.0 5.96875 3.0q3.578125 0 5.875 -3.0q2.3125 -3.015625 2.3125 -9.546879zm39.42188 -22.78125l17.796875 0l-50.04688 88.703125l-17.796875 0l50.04688 -88.703125zm38.28125 65.921875q0 12.03125 -6.15625 18.4375q-6.140625 6.390625 -16.5 6.390625q-10.375 0 -16.515625 -6.390625q-6.140625 -6.40625 -6.140625 -18.4375q0 -12.03125 6.140625 -18.421875q6.140625 -6.40625 16.515625 -6.40625q10.359375 0 16.5 6.40625q6.15625 6.390625 6.15625 18.421875zm-14.46875 0q0 -6.53125 -2.3125 -9.46875q-2.296875 -2.953125 -5.875 -2.953125q-3.71875 0 -5.96875 2.953125q-2.234375 2.9375 -2.234375 9.46875q0 6.53125 2.234375 9.546875q2.25 3.0 5.96875 3.0q3.578125 0 5.875 -3.0q2.3125 -3.015625 2.3125 -9.546875z" fill-rule="nonzero"/><path fill="#000000" fill-opacity="0.0" d="m-9.183727 30.73491l146.04724 0l0 96.94488l-146.04724 0z" fill-rule="evenodd"/><path fill="#ffffff" d="m19.939991 77.36241q1.46875 0 3.0625 -0.28125q1.609375 -0.296875 2.375 -0.796875l0 -0.578125q0 -0.265625 0.03125 -0.515625q0.03125 -0.25 0.03125 -0.453125q-0.0625 -2.296875 -0.390625 -4.3125q-0.3125 -2.015625 -1.078125 -3.515625q-0.765625 -1.515625 -2.078125 -2.375q-1.3125 -0.859375 -3.234375 -0.859375q-1.53125 0 -2.6875 0.640625q-1.15625 0.640625 -1.859375 1.671875q-0.703125 1.015625 -1.0625 2.234375q-0.34375 1.203125 -0.34375 2.359375q0 3.453125 1.6875 5.125q1.703125 1.65625 5.546875 1.65625zm4.671875 6.21875q-1.34375 0.640625 -2.984375 0.921875q-1.625 0.28125 -2.78125 0.28125q-4.15625 0 -7.109375 -0.984375q-2.9375 -1.0 -4.828125 -2.8125q-1.890625 -1.828125 -2.78125 -4.390625q-0.89062476 -2.5625 -0.89062476 -5.625q0 -2.5625 0.85937476 -5.25q0.859375 -2.6875 2.71875 -4.890625q1.859375 -2.21875 4.703125 -3.65625q2.84375 -1.4375 6.875 -1.4375q8.265625 0 12.453125 5.09375q4.1875 5.078125 4.1875 14.609375q0 6.28125 -1.625 11.078125q-1.625 4.796875 -5.0625 8.0625q-3.421875 3.265625 -8.734375 4.96875q-5.3125 1.6875 -12.609375 1.75q-0.0625 -2.046875 -0.1875 -3.96875q-0.125 -1.921875 -0.25 -3.96875q3.640625 -0.0625 6.578125 -0.53125q2.953125 -0.484375 5.1875 -1.609375q2.25 -1.125 3.8125 -2.96875q1.5625 -1.859375 2.46875 -4.671875zm31.680069 -6.21875q1.46875 0 3.0625 -0.28125q1.609375 -0.296875 2.375 -0.796875l0 -0.578125q0 -0.265625 0.03125 -0.515625q0.03125 -0.25 0.03125 -0.453125q-0.0625 -2.296875 -0.390625 -4.3125q-0.3125 -2.015625 -1.078125 -3.515625q-0.765625 -1.515625 -2.078125 -2.375q-1.3125 -0.859375 -3.234375 -0.859375q-1.53125 0 -2.6875 0.640625q-1.15625 0.640625 -1.859375 1.671875q-0.703125 1.015625 -1.0625 2.234375q-0.34375 1.203125 -0.34375 2.359375q0 3.453125 1.6875 5.125q1.703125 1.65625 5.546875 1.65625zm4.671875 6.21875q-1.34375 0.640625 -2.984375 0.921875q-1.625 0.28125 -2.78125 0.28125q-4.15625 0 -7.109375 -0.984375q-2.9375 -1.0 -4.828125 -2.8125q-1.890625 -1.828125 -2.78125 -4.390625q-0.890625 -2.5625 -0.890625 -5.625q0 -2.5625 0.859375 -5.25q0.859375 -2.6875 2.71875 -4.890625q1.859375 -2.21875 4.703125 -3.65625q2.84375 -1.4375 6.875 -1.4375q8.265625 0 12.453129 5.09375q4.1875 5.078125 4.1875 14.609375q0 6.28125 -1.625 11.078125q-1.625 4.796875 -5.0625 8.0625q-3.4218788 3.265625 -8.734379 4.96875q-5.3125 1.6875 -12.609375 1.75q-0.0625 -2.046875 -0.1875 -3.96875q-0.125 -1.921875 -0.25 -3.96875q3.640625 -0.0625 6.578125 -0.53125q2.953125 -0.484375 5.1875 -1.609375q2.25 -1.125 3.8125 -2.96875q1.5625 -1.859375 2.46875 -4.671875zm27.008198 12.53125q0 2.890625 -1.828125 4.390625q-1.828125 1.5 -4.125 1.5q-2.3125 0 -4.140625 -1.5q-1.8125 -1.5 -1.8125 -4.390625q0 -2.875 1.8125 -4.375q1.828125 -1.5 4.140625 -1.5q2.296875 0 4.125 1.5q1.828125 1.5 1.828125 4.375zm11.009598 5.0625q0.375 -4.671875 1.59375 -9.71875q1.21875 -5.0625 2.96875 -9.921875q1.765625 -4.875 3.9375 -9.1875q2.1875 -4.328125 4.421875 -7.453125l-19.265625 0l0 -8.140625l31.046875 0l0 6.921875q-2.046875 2.234375 -4.515625 6.203125q-2.46875 3.96875 -4.671875 9.0q-2.203125 5.015625 -3.84375 10.78125q-1.625 5.75 -2.015625 11.515625l-9.65625 0z" fill-rule="nonzero"/></g></svg>