<?xml version="1.0" encoding="UTF-8" standalone="no"?>
<svg
   xmlns:dc="http://purl.org/dc/elements/1.1/"
   xmlns:cc="http://creativecommons.org/ns#"
   xmlns:rdf="http://www.w3.org/1999/02/22-rdf-syntax-ns#"
   xmlns:svg="http://www.w3.org/2000/svg"
   xmlns="http://www.w3.org/2000/svg"
   xmlns:sodipodi="http://sodipodi.sourceforge.net/DTD/sodipodi-0.dtd"
   xmlns:inkscape="http://www.inkscape.org/namespaces/inkscape"
   width="500"
   height="500"
   viewBox="0 0 132.29166 132.29167"
   version="1.1"
   id="svg932"
   inkscape:version="1.0.1 (c497b03c, 2020-09-10)"
   sodipodi:docname="github.svg">
  <defs
     id="defs926" />
  <sodipodi:namedview
     id="base"
     pagecolor="#ffffff"
     bordercolor="#666666"
     borderopacity="1.0"
     inkscape:pageopacity="0.0"
     inkscape:pageshadow="2"
     inkscape:zoom="0.69399645"
     inkscape:cx="239.9703"
     inkscape:cy="250"
     inkscape:document-units="mm"
     inkscape:current-layer="layer1"
     inkscape:document-rotation="0"
     showgrid="false"
     units="px"
     inkscape:snap-midpoints="false"
     inkscape:snap-smooth-nodes="false"
     inkscape:window-width="1440"
     inkscape:window-height="847"
     inkscape:window-x="0"
     inkscape:window-y="25"
     inkscape:window-maximized="0" />
  <metadata
     id="metadata929">
    <rdf:RDF>
      <cc:Work
         rdf:about="">
        <dc:format>image/svg+xml</dc:format>
        <dc:type
           rdf:resource="http://purl.org/dc/dcmitype/StillImage" />
        <dc:title></dc:title>
      </cc:Work>
    </rdf:RDF>
  </metadata>
  <g
     inkscape:label="Layer 1"
     inkscape:groupmode="layer"
     id="layer1">
    <path
       id="path1495"
       style="fill:#000000;fill-opacity:1;stroke-width:51.648"
       d="M 249.52539 0 A 250.00001 250.00001 0 0 0 0 250 A 250.00001 250.00001 0 0 0 250 500 A 250.00001 250.00001 0 0 0 500 250 A 250.00001 250.00001 0 0 0 250 0 A 250.00001 250.00001 0 0 0 249.52539 0 z M 249.37695 50 C 250.82576 50.001882 252.27448 50.021207 253.72266 50.056641 C 284.90127 50.81955 315.71844 58.44028 343.37109 73.027344 C 367.49521 85.752847 388.749 103.40906 405.9375 124.55469 C 453.80941 183.44843 463.67111 268.12969 430.61328 336.42969 C 422.75485 352.66722 412.84025 368.00219 400.9082 381.55469 C 382.14054 402.86843 359.22874 420.25623 333.36914 432.09375 C 328.0902 434.51 322.7105 436.69436 317.24023 438.64062 C 313.40042 440.00689 309.11612 441.07281 305.23633 439.13281 C 300.80384 436.91654 300.10938 432.5072 300.10938 428.05469 C 300.10937 421.88472 300.23438 415.72843 300.23438 409.55469 C 300.23437 400.38846 300.35938 391.22719 300.35938 382.05469 C 300.35938 371.49346 300.10982 361.21971 295.98242 351.30469 C 294.6483 348.09844 292.84562 345.00221 290.65625 342.30469 C 289.5222 340.90721 288.0127 339.76718 286.98242 338.30469 C 306.78038 335.80343 327.10151 331.64608 343.74609 319.96484 C 348.11228 316.89984 352.26999 313.38969 355.85352 309.42969 C 370.92011 292.78219 376.92392 270.4197 377.88672 248.42969 C 378.2868 239.29718 378.17617 230.28844 376.20312 221.30469 C 374.29012 212.59968 370.83728 204.14845 365.96094 196.67969 C 364.32425 194.17469 362.57041 191.76468 360.70117 189.42969 C 359.83347 188.34595 358.50566 187.27219 357.85547 186.05469 C 357.43912 185.2772 358.41587 183.71719 358.64453 182.92969 C 359.47603 180.07471 360.24707 177.24219 360.74219 174.30469 C 362.53765 163.65194 361.73022 152.43182 358.75195 142.05469 C 358.11049 139.82119 357.41689 137.61231 356.61914 135.42969 C 356.34781 134.68756 356.0982 133.39145 355.4668 132.87695 C 354.78036 132.31861 353.22271 132.37258 352.375 132.31445 C 347.76874 131.9992 342.9048 133.03798 338.49609 134.28711 C 329.51616 136.83161 321.06177 140.90228 312.98828 145.53516 C 310.2375 147.11391 307.50452 148.7586 304.86133 150.51172 C 303.66599 151.30435 302.11353 152.80322 300.73438 153.17773 C 299.86163 153.41448 298.33833 152.70734 297.48438 152.46484 C 295.18247 151.81172 292.82683 151.25567 290.48242 150.7793 C 282.05886 149.06817 273.6457 147.8893 265.09961 147.07617 C 250.48934 145.68605 235.44564 146.61192 220.96289 148.85742 C 216.08656 149.61355 211.26658 150.65689 206.45898 151.75977 C 205.1624 152.05727 203.86435 152.40444 202.58398 152.76758 C 202.00631 152.93146 201.18722 153.30415 200.58203 153.19727 C 199.31044 152.97239 197.78857 151.46175 196.70703 150.76562 C 193.88004 148.945 191.00091 147.20178 188.08008 145.53516 C 179.34519 140.5509 170.11662 136.19381 160.32227 133.75781 C 156.73644 132.86606 152.51538 131.95828 148.81836 132.39453 C 147.8962 132.50328 146.50426 132.27428 145.72656 132.89453 C 145.047 133.43641 144.76338 134.88419 144.48438 135.67969 C 143.64637 138.07019 142.82508 140.47006 142.20703 142.92969 C 139.62543 153.20269 138.68205 163.81056 140.45117 174.30469 C 140.89868 176.95969 141.47932 179.61845 142.31641 182.17969 C 142.61137 183.0822 143.62525 184.88343 143.43359 185.80469 C 143.18291 187.01092 141.17693 188.58966 140.39258 189.55469 C 138.14284 192.32217 136.07638 195.2472 134.24023 198.30469 C 128.97844 207.06718 125.55615 216.71093 123.99023 226.80469 C 122.67335 235.29345 122.96324 243.90096 123.55078 252.42969 C 125.34005 278.40596 135.06525 304.27113 157.07031 319.71484 C 173.82605 331.47484 194.00793 335.78344 213.96094 338.30469 C 212.7831 339.97592 211.0744 341.28718 209.82031 342.92969 C 206.96954 346.66719 204.78045 351.05471 203.42383 355.55469 C 202.7299 357.85593 202.12009 360.1822 201.71875 362.55469 C 201.58994 363.31471 201.65591 364.7725 200.93945 365.21875 C 197.76484 367.19499 193.31983 368.18494 189.70508 368.98242 C 176.7665 371.83993 163.28196 369.83131 153.07031 360.89258 C 146.85634 355.4538 143.41579 348.12471 138.13672 341.92969 C 131.87496 334.58221 122.98299 328.05469 112.93359 328.05469 C 110.24898 328.05469 106.71492 328.00984 104.43164 329.65234 C 101.29343 331.90986 104.87052 335.44382 106.68164 337.17383 C 109.48516 339.85257 113.15618 341.29358 116.05859 343.83984 C 120.12648 347.40609 123.22 352.05346 126.14453 356.55469 C 128.44043 360.08847 130.51641 363.8497 132.27539 367.67969 C 134.54952 372.63219 136.35662 377.4247 140.08789 381.55469 C 154.93361 397.98592 180.44779 396.79967 200.33203 393.05469 C 200.33203 403.07217 200.02404 413.17467 200.46289 423.17969 C 200.6692 427.88845 201.4972 433.73127 197.79492 437.375 C 193.67002 441.4375 187.78197 440.09571 182.95312 438.4707 C 171.81746 434.72319 160.7959 429.6139 150.69336 423.62891 C 136.55071 415.25143 123.33388 405.67509 111.43359 394.29883 C 88.430387 372.30887 71.134858 344.8172 60.712891 314.80469 C 53.035842 292.69717 49.13615 268.43345 50.160156 245.05469 C 50.534621 236.50593 51.027658 228.0384 52.34375 219.55469 C 56.339206 193.79966 65.289334 168.84419 78.824219 146.55469 C 90.934551 126.61106 106.45832 108.96248 124.56055 94.255859 C 159.40856 65.944624 204.4638 49.941647 249.37695 50 z "
       transform="scale(0.26458333)" />
  </g>
</svg>
