<?xml version="1.0" encoding="UTF-8" standalone="no"?>
<svg
   xmlns:dc="http://purl.org/dc/elements/1.1/"
   xmlns:cc="http://creativecommons.org/ns#"
   xmlns:rdf="http://www.w3.org/1999/02/22-rdf-syntax-ns#"
   xmlns:svg="http://www.w3.org/2000/svg"
   xmlns="http://www.w3.org/2000/svg"
   xmlns:sodipodi="http://sodipodi.sourceforge.net/DTD/sodipodi-0.dtd"
   xmlns:inkscape="http://www.inkscape.org/namespaces/inkscape"
   width="500"
   height="500"
   viewBox="0 0 132.29166 132.29167"
   version="1.1"
   id="svg2860"
   inkscape:version="1.0.1 (c497b03c, 2020-09-10)"
   sodipodi:docname="insta.svg">
  <defs
     id="defs2854" />
  <sodipodi:namedview
     id="base"
     pagecolor="#ffffff"
     bordercolor="#666666"
     borderopacity="1.0"
     inkscape:pageopacity="0.0"
     inkscape:pageshadow="2"
     inkscape:zoom="1.0076756"
     inkscape:cx="346.56645"
     inkscape:cy="248.15513"
     inkscape:document-units="mm"
     inkscape:current-layer="layer1"
     inkscape:document-rotation="0"
     showgrid="false"
     units="px"
     inkscape:window-width="1252"
     inkscape:window-height="847"
     inkscape:window-x="1440"
     inkscape:window-y="25"
     inkscape:window-maximized="0" />
  <metadata
     id="metadata2857">
    <rdf:RDF>
      <cc:Work
         rdf:about="">
        <dc:format>image/svg+xml</dc:format>
        <dc:type
           rdf:resource="http://purl.org/dc/dcmitype/StillImage" />
        <dc:title></dc:title>
      </cc:Work>
    </rdf:RDF>
  </metadata>
  <g
     inkscape:label="Layer 1"
     inkscape:groupmode="layer"
     id="layer1">
    <g
       id="g3488">
      <path
         id="path3423"
         style="fill:#000000;stroke-width:5.11872"
         d="m 66.145583,51.593848 a 14.551971,14.551959 0 0 0 -0.097,4.2e-4 14.551971,14.551959 0 0 0 -0.14761,0.002 14.551971,14.551959 0 0 0 -0.14803,0.003 14.551971,14.551959 0 0 0 -0.14761,0.005 14.551971,14.551959 0 0 0 -0.14761,0.006 14.551971,14.551959 0 0 0 -0.14762,0.007 14.551971,14.551959 0 0 0 -0.14761,0.01 14.551971,14.551959 0 0 0 -0.14719,0.0108 14.551971,14.551959 0 0 0 -0.14761,0.012 14.551971,14.551959 0 0 0 -0.1472,0.0137 14.551971,14.551959 0 0 0 -0.14678,0.0153 14.551971,14.551959 0 0 0 -0.14679,0.0166 14.551971,14.551959 0 0 0 -0.14678,0.0182 14.551971,14.551959 0 0 0 -0.14637,0.0199 14.551971,14.551959 0 0 0 -0.14637,0.0211 14.551971,14.551959 0 0 0 -0.14595,0.0224 14.551971,14.551959 0 0 0 -0.14595,0.0245 14.551971,14.551959 0 0 0 -0.14554,0.0253 14.551971,14.551959 0 0 0 -0.14512,0.0274 14.551971,14.551959 0 0 0 -0.14512,0.0286 14.551971,14.551959 0 0 0 -0.14471,0.0299 14.551971,14.551959 0 0 0 -0.1443,0.0315 14.551971,14.551959 0 0 0 -0.14429,0.0332 14.551971,14.551959 0 0 0 -0.14388,0.0344 14.551971,14.551959 0 0 0 -0.14305,0.0357 14.551971,14.551959 0 0 0 -0.14305,0.0373 14.551971,14.551959 0 0 0 -0.14264,0.039 14.551971,14.551959 0 0 0 -0.14222,0.0402 14.551971,14.551959 0 0 0 -0.14181,0.0419 14.551971,14.551959 0 0 0 -0.14139,0.0431 14.551971,14.551959 0 0 0 -0.14098,0.0444 14.551971,14.551959 0 0 0 -0.14056,0.046 14.551971,14.551959 0 0 0 -0.13973,0.0473 14.551971,14.551959 0 0 0 -0.13974,0.0489 14.551971,14.551959 0 0 0 -0.1389,0.0502 14.551971,14.551959 0 0 0 -0.13849,0.0518 14.551971,14.551959 0 0 0 -0.13807,0.0531 14.551971,14.551959 0 0 0 -0.13725,0.0543 14.551971,14.551959 0 0 0 -0.13683,0.056 14.551971,14.551959 0 0 0 -0.13642,0.0572 14.551971,14.551959 0 0 0 -0.13558,0.0585 14.551971,14.551959 0 0 0 -0.13517,0.0601 14.551971,14.551959 0 0 0 -0.13435,0.0614 14.551971,14.551959 0 0 0 -0.13393,0.0626 14.551971,14.551959 0 0 0 -0.1331,0.0643 14.551971,14.551959 0 0 0 -0.13226,0.0655 14.551971,14.551959 0 0 0 -0.13186,0.0668 14.551971,14.551959 0 0 0 -0.13144,0.068 14.551971,14.551959 0 0 0 -0.1302,0.0697 14.551971,14.551959 0 0 0 -0.12978,0.0705 14.551971,14.551959 0 0 0 -0.12937,0.0721 14.551971,14.551959 0 0 0 -0.12812,0.0734 14.551971,14.551959 0 0 0 -0.12771,0.0746 14.551971,14.551959 0 0 0 -0.12646,0.0759 14.551971,14.551959 0 0 0 -0.12605,0.0775 14.551971,14.551959 0 0 0 -0.12523,0.0784 14.551971,14.551959 0 0 0 -0.12439,0.08 14.551971,14.551959 0 0 0 -0.12356,0.0809 14.551971,14.551959 0 0 0 -0.12273,0.0825 14.551971,14.551959 0 0 0 -0.12191,0.0833 14.551971,14.551959 0 0 0 -0.12107,0.085 14.551971,14.551959 0 0 0 -0.12025,0.0858 14.551971,14.551959 0 0 0 -0.11941,0.0871 14.551971,14.551959 0 0 0 -0.11859,0.0887 14.551971,14.551959 0 0 0 -0.11734,0.0896 14.551971,14.551959 0 0 0 -0.11651,0.0908 14.551971,14.551959 0 0 0 -0.11569,0.0921 14.551971,14.551959 0 0 0 -0.11485,0.0933 14.551971,14.551959 0 0 0 -0.11362,0.0941 14.551971,14.551959 0 0 0 -0.11278,0.0954 14.551971,14.551959 0 0 0 -0.11195,0.0966 14.551971,14.551959 0 0 0 -0.11071,0.0978 14.551971,14.551959 0 0 0 -0.10988,0.0991 14.551971,14.551959 0 0 0 -0.10905,0.0999 14.551971,14.551959 0 0 0 -0.1078,0.10117 14.551971,14.551959 0 0 0 -0.10657,0.102 14.551971,14.551959 0 0 0 -0.10573,0.10324 14.551971,14.551959 0 0 0 -0.1049,0.10449 14.551971,14.551959 0 0 0 -0.10366,0.10532 14.551971,14.551959 0 0 0 -0.10242,0.10615 14.551971,14.551959 0 0 0 -0.10158,0.10781 14.551971,14.551959 0 0 0 -0.10035,0.10821 14.551971,14.551959 0 0 0 -0.0991,0.10947 14.551971,14.551959 0 0 0 -0.0983,0.11071 14.551971,14.551959 0 0 0 -0.097,0.11154 14.551971,14.551959 0 0 0 -0.0958,0.11236 14.551971,14.551959 0 0 0 -0.095,0.11361 14.551971,14.551959 0 0 0 -0.0933,0.11444 14.551971,14.551959 0 0 0 -0.0925,0.11527 14.551971,14.551959 0 0 0 -0.0912,0.1161 14.551971,14.551959 0 0 0 -0.09,0.11734 14.551971,14.551959 0 0 0 -0.0891,0.11818 14.551971,14.551959 0 0 0 -0.0875,0.119 14.551971,14.551959 0 0 0 -0.0867,0.11983 14.551971,14.551959 0 0 0 -0.085,0.12066 14.551971,14.551959 0 0 0 -0.0842,0.12149 14.551971,14.551959 0 0 0 -0.0825,0.12273 14.551971,14.551959 0 0 0 -0.0817,0.12315 14.551971,14.551959 0 0 0 -0.08,0.12439 14.551971,14.551959 0 0 0 -0.0792,0.12481 14.551971,14.551959 0 0 0 -0.0775,0.12563 14.551971,14.551959 0 0 0 -0.0763,0.12647 14.551971,14.551959 0 0 0 -0.0751,0.12729 14.551971,14.551959 0 0 0 -0.0742,0.12812 14.551971,14.551959 0 0 0 -0.0721,0.12896 14.551971,14.551959 0 0 0 -0.0713,0.12936 14.551971,14.551959 0 0 0 -0.0701,0.1302 14.551971,14.551959 0 0 0 -0.0684,0.13103 14.551971,14.551959 0 0 0 -0.0672,0.13144 14.551971,14.551959 0 0 0 -0.0659,0.13227 14.551971,14.551959 0 0 0 -0.0647,0.13309 14.551971,14.551959 0 0 0 -0.063,0.13352 14.551971,14.551959 0 0 0 -0.0618,0.13434 14.551971,14.551959 0 0 0 -0.0605,0.13476 14.551971,14.551959 0 0 0 -0.0593,0.13559 14.551971,14.551959 0 0 0 -0.0576,0.136 14.551971,14.551959 0 0 0 -0.0564,0.13683 14.551971,14.551959 0 0 0 -0.0547,0.13683 14.551971,14.551959 0 0 0 -0.0539,0.13807 14.551971,14.551959 0 0 0 -0.0518,0.13808 14.551971,14.551959 0 0 0 -0.051,0.1389 14.551971,14.551959 0 0 0 -0.0493,0.13932 14.551971,14.551959 0 0 0 -0.0477,0.13973 14.551971,14.551959 0 0 0 -0.0464,0.14057 14.551971,14.551959 0 0 0 -0.0452,0.14056 14.551971,14.551959 0 0 0 -0.0435,0.14139 14.551971,14.551959 0 0 0 -0.0423,0.14139 14.551971,14.551959 0 0 0 -0.0406,0.14222 14.551971,14.551959 0 0 0 -0.0394,0.14264 14.551971,14.551959 0 0 0 -0.0377,0.14263 14.551971,14.551959 0 0 0 -0.0365,0.14347 14.551971,14.551959 0 0 0 -0.0348,0.14346 14.551971,14.551959 0 0 0 -0.0336,0.14388 14.551971,14.551959 0 0 0 -0.0319,0.1443 14.551971,14.551959 0 0 0 -0.0307,0.14471 14.551971,14.551959 0 0 0 -0.029,0.14471 14.551971,14.551959 0 0 0 -0.0278,0.14553 14.551971,14.551959 0 0 0 -0.0261,0.14513 14.551971,14.551959 0 0 0 -0.0245,0.14595 14.551971,14.551959 0 0 0 -0.0232,0.14595 14.551971,14.551959 0 0 0 -0.0216,0.14596 14.551971,14.551959 0 0 0 -0.0203,0.14678 14.551971,14.551959 0 0 0 -0.0187,0.14637 14.551971,14.551959 0 0 0 -0.0174,0.14678 14.551971,14.551959 0 0 0 -0.0158,0.14719 14.551971,14.551959 0 0 0 -0.0141,0.14679 14.551971,14.551959 0 0 0 -0.0128,0.14761 14.551971,14.551959 0 0 0 -0.0112,0.14719 14.551971,14.551959 0 0 0 -0.01,0.14762 14.551971,14.551959 0 0 0 -0.008,0.14761 14.551971,14.551959 0 0 0 -0.007,0.14761 14.551971,14.551959 0 0 0 -0.005,0.14761 14.551971,14.551959 0 0 0 -0.004,0.14761 14.551971,14.551959 0 0 0 -0.002,0.14803 14.551971,14.551959 0 0 0 -8e-4,0.14761 14.551971,14.551959 0 0 0 4.2e-4,0.097 14.551971,14.551959 0 0 0 0.002,0.14761 14.551971,14.551959 0 0 0 0.003,0.14803 14.551971,14.551959 0 0 0 0.005,0.14761 14.551971,14.551959 0 0 0 0.006,0.14761 14.551971,14.551959 0 0 0 0.007,0.14761 14.551971,14.551959 0 0 0 0.01,0.14761 14.551971,14.551959 0 0 0 0.0108,0.1472 14.551971,14.551959 0 0 0 0.012,0.14761 14.551971,14.551959 0 0 0 0.0137,0.1472 14.551971,14.551959 0 0 0 0.0153,0.14678 14.551971,14.551959 0 0 0 0.0166,0.14678 14.551971,14.551959 0 0 0 0.0182,0.14678 14.551971,14.551959 0 0 0 0.0199,0.14637 14.551971,14.551959 0 0 0 0.0212,0.14637 14.551971,14.551959 0 0 0 0.0224,0.14595 14.551971,14.551959 0 0 0 0.0245,0.14595 14.551971,14.551959 0 0 0 0.0253,0.14554 14.551971,14.551959 0 0 0 0.0274,0.14512 14.551971,14.551959 0 0 0 0.0286,0.14513 14.551971,14.551959 0 0 0 0.0299,0.14471 14.551971,14.551959 0 0 0 0.0315,0.14429 14.551971,14.551959 0 0 0 0.0332,0.1443 14.551971,14.551959 0 0 0 0.0344,0.14387 14.551971,14.551959 0 0 0 0.0357,0.14305 14.551971,14.551959 0 0 0 0.0373,0.14306 14.551971,14.551959 0 0 0 0.039,0.14263 14.551971,14.551959 0 0 0 0.0402,0.14222 14.551971,14.551959 0 0 0 0.0419,0.14181 14.551971,14.551959 0 0 0 0.0431,0.14139 14.551971,14.551959 0 0 0 0.0444,0.14098 14.551971,14.551959 0 0 0 0.046,0.14056 14.551971,14.551959 0 0 0 0.0473,0.13973 14.551971,14.551959 0 0 0 0.0489,0.13974 14.551971,14.551959 0 0 0 0.0502,0.1389 14.551971,14.551959 0 0 0 0.0518,0.13849 14.551971,14.551959 0 0 0 0.0531,0.13807 14.551971,14.551959 0 0 0 0.0543,0.13725 14.551971,14.551959 0 0 0 0.056,0.13683 14.551971,14.551959 0 0 0 0.0572,0.13642 14.551971,14.551959 0 0 0 0.0585,0.13558 14.551971,14.551959 0 0 0 0.0601,0.13517 14.551971,14.551959 0 0 0 0.0614,0.13435 14.551971,14.551959 0 0 0 0.0626,0.13393 14.551971,14.551959 0 0 0 0.0643,0.1331 14.551971,14.551959 0 0 0 0.0655,0.13226 14.551971,14.551959 0 0 0 0.0668,0.13186 14.551971,14.551959 0 0 0 0.068,0.13144 14.551971,14.551959 0 0 0 0.0697,0.1302 14.551971,14.551959 0 0 0 0.0705,0.12978 14.551971,14.551959 0 0 0 0.0722,0.12936 14.551971,14.551959 0 0 0 0.0734,0.12813 14.551971,14.551959 0 0 0 0.0746,0.12771 14.551971,14.551959 0 0 0 0.0759,0.12646 14.551971,14.551959 0 0 0 0.0775,0.12605 14.551971,14.551959 0 0 0 0.0784,0.12522 14.551971,14.551959 0 0 0 0.08,0.12439 14.551971,14.551959 0 0 0 0.0808,0.12357 14.551971,14.551959 0 0 0 0.0825,0.12273 14.551971,14.551959 0 0 0 0.0833,0.1219 14.551971,14.551959 0 0 0 0.085,0.12108 14.551971,14.551959 0 0 0 0.0858,0.12024 14.551971,14.551959 0 0 0 0.0871,0.11942 14.551971,14.551959 0 0 0 0.0887,0.11859 14.551971,14.551959 0 0 0 0.0896,0.11734 14.551971,14.551959 0 0 0 0.0908,0.11651 14.551971,14.551959 0 0 0 0.0921,0.11569 14.551971,14.551959 0 0 0 0.0933,0.11485 14.551971,14.551959 0 0 0 0.0941,0.11361 14.551971,14.551959 0 0 0 0.0954,0.11278 14.551971,14.551959 0 0 0 0.0966,0.11196 14.551971,14.551959 0 0 0 0.0979,0.11071 14.551971,14.551959 0 0 0 0.0991,0.10987 14.551971,14.551959 0 0 0 0.0999,0.10905 14.551971,14.551959 0 0 0 0.10117,0.10781 14.551971,14.551959 0 0 0 0.102,0.10656 14.551971,14.551959 0 0 0 0.10325,0.10574 14.551971,14.551959 0 0 0 0.10449,0.1049 14.551971,14.551959 0 0 0 0.10531,0.10366 14.551971,14.551959 0 0 0 0.10615,0.10241 14.551971,14.551959 0 0 0 0.10781,0.10159 14.551971,14.551959 0 0 0 0.10822,0.10034 14.551971,14.551959 0 0 0 0.10946,0.0991 14.551971,14.551959 0 0 0 0.11071,0.0983 14.551971,14.551959 0 0 0 0.11154,0.097 14.551971,14.551959 0 0 0 0.11237,0.0958 14.551971,14.551959 0 0 0 0.11361,0.095 14.551971,14.551959 0 0 0 0.11444,0.0933 14.551971,14.551959 0 0 0 0.11527,0.0925 14.551971,14.551959 0 0 0 0.1161,0.0912 14.551971,14.551959 0 0 0 0.11734,0.09 14.551971,14.551959 0 0 0 0.11817,0.0891 14.551971,14.551959 0 0 0 0.119,0.0875 14.551971,14.551959 0 0 0 0.11983,0.0867 14.551971,14.551959 0 0 0 0.12066,0.085 14.551971,14.551959 0 0 0 0.12149,0.0842 14.551971,14.551959 0 0 0 0.12274,0.0825 14.551971,14.551959 0 0 0 0.12314,0.0817 14.551971,14.551959 0 0 0 0.12439,0.08 14.551971,14.551959 0 0 0 0.12481,0.0792 14.551971,14.551959 0 0 0 0.12564,0.0775 14.551971,14.551959 0 0 0 0.12646,0.0763 14.551971,14.551959 0 0 0 0.12729,0.0751 14.551971,14.551959 0 0 0 0.12813,0.0742 14.551971,14.551959 0 0 0 0.12895,0.0721 14.551971,14.551959 0 0 0 0.12937,0.0713 14.551971,14.551959 0 0 0 0.13019,0.0701 14.551971,14.551959 0 0 0 0.13103,0.0684 14.551971,14.551959 0 0 0 0.13144,0.0672 14.551971,14.551959 0 0 0 0.13227,0.0659 14.551971,14.551959 0 0 0 0.1331,0.0647 14.551971,14.551959 0 0 0 0.13351,0.063 14.551971,14.551959 0 0 0 0.13435,0.0618 14.551971,14.551959 0 0 0 0.13476,0.0605 14.551971,14.551959 0 0 0 0.13558,0.0593 14.551971,14.551959 0 0 0 0.136,0.0576 14.551971,14.551959 0 0 0 0.13683,0.0564 14.551971,14.551959 0 0 0 0.13684,0.0547 14.551971,14.551959 0 0 0 0.13807,0.0539 14.551971,14.551959 0 0 0 0.13807,0.0518 14.551971,14.551959 0 0 0 0.13891,0.051 14.551971,14.551959 0 0 0 0.13932,0.0493 14.551971,14.551959 0 0 0 0.13973,0.0477 14.551971,14.551959 0 0 0 0.14056,0.0464 14.551971,14.551959 0 0 0 0.14057,0.0452 14.551971,14.551959 0 0 0 0.14139,0.0435 14.551971,14.551959 0 0 0 0.14139,0.0423 14.551971,14.551959 0 0 0 0.14222,0.0406 14.551971,14.551959 0 0 0 0.14264,0.0394 14.551971,14.551959 0 0 0 0.14263,0.0377 14.551971,14.551959 0 0 0 0.14347,0.0365 14.551971,14.551959 0 0 0 0.14346,0.0348 14.551971,14.551959 0 0 0 0.14388,0.0336 14.551971,14.551959 0 0 0 0.14429,0.0319 14.551971,14.551959 0 0 0 0.14472,0.0307 14.551971,14.551959 0 0 0 0.14471,0.029 14.551971,14.551959 0 0 0 0.14553,0.0278 14.551971,14.551959 0 0 0 0.14513,0.0261 14.551971,14.551959 0 0 0 0.14595,0.0245 14.551971,14.551959 0 0 0 0.14595,0.0232 14.551971,14.551959 0 0 0 0.14596,0.0216 14.551971,14.551959 0 0 0 0.14678,0.0203 14.551971,14.551959 0 0 0 0.14637,0.0186 14.551971,14.551959 0 0 0 0.14678,0.0174 14.551971,14.551959 0 0 0 0.14719,0.0158 14.551971,14.551959 0 0 0 0.14679,0.0141 14.551971,14.551959 0 0 0 0.14761,0.0129 14.551971,14.551959 0 0 0 0.14719,0.0112 14.551971,14.551959 0 0 0 0.14762,0.01 14.551971,14.551959 0 0 0 0.14761,0.008 14.551971,14.551959 0 0 0 0.14761,0.007 14.551971,14.551959 0 0 0 0.14761,0.005 14.551971,14.551959 0 0 0 0.14761,0.004 14.551971,14.551959 0 0 0 0.14803,0.002 14.551971,14.551959 0 0 0 0.14761,8.3e-4 14.551971,14.551959 0 0 0 0.097,-4.1e-4 14.551971,14.551959 0 0 0 0.14761,-0.002 14.551971,14.551959 0 0 0 0.14803,-0.003 14.551971,14.551959 0 0 0 0.14761,-0.005 14.551971,14.551959 0 0 0 0.14761,-0.006 14.551971,14.551959 0 0 0 0.14761,-0.007 14.551971,14.551959 0 0 0 0.14761,-0.01 14.551971,14.551959 0 0 0 0.1472,-0.0108 14.551971,14.551959 0 0 0 0.14761,-0.012 14.551971,14.551959 0 0 0 0.1472,-0.0137 14.551971,14.551959 0 0 0 0.14678,-0.0153 14.551971,14.551959 0 0 0 0.14678,-0.0166 14.551971,14.551959 0 0 0 0.14678,-0.0182 14.551971,14.551959 0 0 0 0.14637,-0.0199 14.551971,14.551959 0 0 0 0.14637,-0.0212 14.551971,14.551959 0 0 0 0.14595,-0.0224 14.551971,14.551959 0 0 0 0.14595,-0.024 14.551971,14.551959 0 0 0 0.14554,-0.0257 14.551971,14.551959 0 0 0 0.14513,-0.0274 14.551971,14.551959 0 0 0 0.14512,-0.0286 14.551971,14.551959 0 0 0 0.14471,-0.0299 14.551971,14.551959 0 0 0 0.14429,-0.0315 14.551971,14.551959 0 0 0 0.1443,-0.0332 14.551971,14.551959 0 0 0 0.14388,-0.0344 14.551971,14.551959 0 0 0 0.14305,-0.0357 14.551971,14.551959 0 0 0 0.14305,-0.0373 14.551971,14.551959 0 0 0 0.14263,-0.039 14.551971,14.551959 0 0 0 0.14222,-0.0402 14.551971,14.551959 0 0 0 0.14181,-0.0419 14.551971,14.551959 0 0 0 0.14139,-0.0431 14.551971,14.551959 0 0 0 0.14098,-0.0444 14.551971,14.551959 0 0 0 0.14056,-0.046 14.551971,14.551959 0 0 0 0.13974,-0.0473 14.551971,14.551959 0 0 0 0.13973,-0.0489 14.551971,14.551959 0 0 0 0.1389,-0.0502 14.551971,14.551959 0 0 0 0.13849,-0.0518 14.551971,14.551959 0 0 0 0.13808,-0.0531 14.551971,14.551959 0 0 0 0.13724,-0.0543 14.551971,14.551959 0 0 0 0.13683,-0.056 14.551971,14.551959 0 0 0 0.13642,-0.0572 14.551971,14.551959 0 0 0 0.13559,-0.0585 14.551971,14.551959 0 0 0 0.13517,-0.0601 14.551971,14.551959 0 0 0 0.13434,-0.0614 14.551971,14.551959 0 0 0 0.13393,-0.0626 14.551971,14.551959 0 0 0 0.1331,-0.0643 14.551971,14.551959 0 0 0 0.13227,-0.0655 14.551971,14.551959 0 0 0 0.13186,-0.0667 14.551971,14.551959 0 0 0 0.13144,-0.068 14.551971,14.551959 0 0 0 0.13019,-0.0697 14.551971,14.551959 0 0 0 0.12978,-0.0705 14.551971,14.551959 0 0 0 0.12937,-0.0721 14.551971,14.551959 0 0 0 0.12813,-0.0734 14.551971,14.551959 0 0 0 0.1277,-0.0746 14.551971,14.551959 0 0 0 0.12647,-0.0759 14.551971,14.551959 0 0 0 0.12605,-0.0775 14.551971,14.551959 0 0 0 0.12522,-0.0784 14.551971,14.551959 0 0 0 0.12439,-0.08 14.551971,14.551959 0 0 0 0.12356,-0.0808 14.551971,14.551959 0 0 0 0.12274,-0.0825 14.551971,14.551959 0 0 0 0.1219,-0.0833 14.551971,14.551959 0 0 0 0.12107,-0.085 14.551971,14.551959 0 0 0 0.12025,-0.0858 14.551971,14.551959 0 0 0 0.11942,-0.0871 14.551971,14.551959 0 0 0 0.11858,-0.0887 14.551971,14.551959 0 0 0 0.11735,-0.0896 14.551971,14.551959 0 0 0 0.11651,-0.0908 14.551971,14.551959 0 0 0 0.11568,-0.0921 14.551971,14.551959 0 0 0 0.11486,-0.0929 14.551971,14.551959 0 0 0 0.11361,-0.0945 14.551971,14.551959 0 0 0 0.11278,-0.0954 14.551971,14.551959 0 0 0 0.11195,-0.0966 14.551971,14.551959 0 0 0 0.11071,-0.0978 14.551971,14.551959 0 0 0 0.10988,-0.0991 14.551971,14.551959 0 0 0 0.10905,-0.0999 14.551971,14.551959 0 0 0 0.10781,-0.10118 14.551971,14.551959 0 0 0 0.10656,-0.102 14.551971,14.551959 0 0 0 0.10573,-0.10324 14.551971,14.551959 0 0 0 0.10491,-0.10449 14.551971,14.551959 0 0 0 0.10366,-0.10532 14.551971,14.551959 0 0 0 0.10241,-0.10615 14.551971,14.551959 0 0 0 0.10159,-0.1078 14.551971,14.551959 0 0 0 0.10034,-0.10822 14.551971,14.551959 0 0 0 0.0991,-0.10947 14.551971,14.551959 0 0 0 0.0983,-0.11071 14.551971,14.551959 0 0 0 0.097,-0.11153 14.551971,14.551959 0 0 0 0.0958,-0.11237 14.551971,14.551959 0 0 0 0.095,-0.11361 14.551971,14.551959 0 0 0 0.0933,-0.11444 14.551971,14.551959 0 0 0 0.0925,-0.11527 14.551971,14.551959 0 0 0 0.0912,-0.1161 14.551971,14.551959 0 0 0 0.09,-0.11734 14.551971,14.551959 0 0 0 0.0891,-0.11818 14.551971,14.551959 0 0 0 0.0875,-0.119 14.551971,14.551959 0 0 0 0.0867,-0.11983 14.551971,14.551959 0 0 0 0.085,-0.12066 14.551971,14.551959 0 0 0 0.0842,-0.12149 14.551971,14.551959 0 0 0 0.0825,-0.12273 14.551971,14.551959 0 0 0 0.0817,-0.12315 14.551971,14.551959 0 0 0 0.08,-0.12439 14.551971,14.551959 0 0 0 0.0792,-0.1248 14.551971,14.551959 0 0 0 0.0775,-0.12564 14.551971,14.551959 0 0 0 0.0763,-0.12647 14.551971,14.551959 0 0 0 0.0751,-0.12729 14.551971,14.551959 0 0 0 0.0742,-0.12812 14.551971,14.551959 0 0 0 0.0721,-0.12896 14.551971,14.551959 0 0 0 0.0713,-0.12936 14.551971,14.551959 0 0 0 0.0701,-0.1302 14.551971,14.551959 0 0 0 0.0684,-0.13102 14.551971,14.551959 0 0 0 0.0672,-0.13144 14.551971,14.551959 0 0 0 0.0659,-0.13228 14.551971,14.551959 0 0 0 0.0647,-0.13309 14.551971,14.551959 0 0 0 0.063,-0.13352 14.551971,14.551959 0 0 0 0.0618,-0.13434 14.551971,14.551959 0 0 0 0.0605,-0.13476 14.551971,14.551959 0 0 0 0.0593,-0.13559 14.551971,14.551959 0 0 0 0.0576,-0.136 14.551971,14.551959 0 0 0 0.0564,-0.13683 14.551971,14.551959 0 0 0 0.0547,-0.13683 14.551971,14.551959 0 0 0 0.0539,-0.13807 14.551971,14.551959 0 0 0 0.0518,-0.13808 14.551971,14.551959 0 0 0 0.051,-0.1389 14.551971,14.551959 0 0 0 0.0493,-0.13932 14.551971,14.551959 0 0 0 0.0477,-0.13973 14.551971,14.551959 0 0 0 0.0464,-0.14057 14.551971,14.551959 0 0 0 0.0452,-0.14056 14.551971,14.551959 0 0 0 0.0435,-0.14139 14.551971,14.551959 0 0 0 0.0423,-0.14139 14.551971,14.551959 0 0 0 0.0406,-0.14222 14.551971,14.551959 0 0 0 0.0394,-0.14264 14.551971,14.551959 0 0 0 0.0377,-0.14263 14.551971,14.551959 0 0 0 0.0365,-0.14347 14.551971,14.551959 0 0 0 0.0348,-0.14346 14.551971,14.551959 0 0 0 0.0336,-0.14388 14.551971,14.551959 0 0 0 0.0319,-0.1443 14.551971,14.551959 0 0 0 0.0307,-0.14471 14.551971,14.551959 0 0 0 0.029,-0.14471 14.551971,14.551959 0 0 0 0.0278,-0.14553 14.551971,14.551959 0 0 0 0.0261,-0.14513 14.551971,14.551959 0 0 0 0.0245,-0.14595 14.551971,14.551959 0 0 0 0.0232,-0.14595 14.551971,14.551959 0 0 0 0.0216,-0.14596 14.551971,14.551959 0 0 0 0.0203,-0.14678 14.551971,14.551959 0 0 0 0.0187,-0.14637 14.551971,14.551959 0 0 0 0.0174,-0.14678 14.551971,14.551959 0 0 0 0.0158,-0.14719 14.551971,14.551959 0 0 0 0.0141,-0.14679 14.551971,14.551959 0 0 0 0.0129,-0.14761 14.551971,14.551959 0 0 0 0.0112,-0.14719 14.551971,14.551959 0 0 0 0.01,-0.14761 14.551971,14.551959 0 0 0 0.008,-0.1472 14.551971,14.551959 0 0 0 0.007,-0.14803 14.551971,14.551959 0 0 0 0.005,-0.14761 14.551971,14.551959 0 0 0 0.004,-0.14761 14.551971,14.551959 0 0 0 0.002,-0.14803 14.551971,14.551959 0 0 0 8e-4,-0.14761 14.551971,14.551959 0 0 0 -4.1e-4,-0.097 14.551971,14.551959 0 0 0 -0.002,-0.14761 14.551971,14.551959 0 0 0 -0.003,-0.14803 14.551971,14.551959 0 0 0 -0.005,-0.14761 14.551971,14.551959 0 0 0 -0.006,-0.14761 14.551971,14.551959 0 0 0 -0.007,-0.14761 14.551971,14.551959 0 0 0 -0.01,-0.14761 14.551971,14.551959 0 0 0 -0.0108,-0.1472 14.551971,14.551959 0 0 0 -0.012,-0.14761 14.551971,14.551959 0 0 0 -0.0137,-0.14719 14.551971,14.551959 0 0 0 -0.0153,-0.14679 14.551971,14.551959 0 0 0 -0.0166,-0.14678 14.551971,14.551959 0 0 0 -0.0182,-0.14678 14.551971,14.551959 0 0 0 -0.0199,-0.14637 14.551971,14.551959 0 0 0 -0.0212,-0.14637 14.551971,14.551959 0 0 0 -0.0224,-0.14595 14.551971,14.551959 0 0 0 -0.024,-0.14595 14.551971,14.551959 0 0 0 -0.0257,-0.14554 14.551971,14.551959 0 0 0 -0.0274,-0.14512 14.551971,14.551959 0 0 0 -0.0286,-0.14513 14.551971,14.551959 0 0 0 -0.0299,-0.1447 14.551971,14.551959 0 0 0 -0.0315,-0.1443 14.551971,14.551959 0 0 0 -0.0332,-0.1443 14.551971,14.551959 0 0 0 -0.0344,-0.14387 14.551971,14.551959 0 0 0 -0.0357,-0.14305 14.551971,14.551959 0 0 0 -0.0373,-0.14305 14.551971,14.551959 0 0 0 -0.039,-0.14264 14.551971,14.551959 0 0 0 -0.0402,-0.14222 14.551971,14.551959 0 0 0 -0.0419,-0.14181 14.551971,14.551959 0 0 0 -0.0431,-0.14139 14.551971,14.551959 0 0 0 -0.0444,-0.14098 14.551971,14.551959 0 0 0 -0.046,-0.14056 14.551971,14.551959 0 0 0 -0.0473,-0.13973 14.551971,14.551959 0 0 0 -0.0489,-0.13974 14.551971,14.551959 0 0 0 -0.0502,-0.1389 14.551971,14.551959 0 0 0 -0.0518,-0.13849 14.551971,14.551959 0 0 0 -0.0531,-0.13807 14.551971,14.551959 0 0 0 -0.0543,-0.13725 14.551971,14.551959 0 0 0 -0.056,-0.13683 14.551971,14.551959 0 0 0 -0.0572,-0.13641 14.551971,14.551959 0 0 0 -0.0585,-0.13559 14.551971,14.551959 0 0 0 -0.0601,-0.13517 14.551971,14.551959 0 0 0 -0.0614,-0.13435 14.551971,14.551959 0 0 0 -0.0626,-0.13392 14.551971,14.551959 0 0 0 -0.0643,-0.1331 14.551971,14.551959 0 0 0 -0.0655,-0.13227 14.551971,14.551959 0 0 0 -0.0668,-0.13186 14.551971,14.551959 0 0 0 -0.068,-0.13144 14.551971,14.551959 0 0 0 -0.0697,-0.1302 14.551971,14.551959 0 0 0 -0.0705,-0.12978 14.551971,14.551959 0 0 0 -0.0722,-0.12936 14.551971,14.551959 0 0 0 -0.0734,-0.12813 14.551971,14.551959 0 0 0 -0.0746,-0.12771 14.551971,14.551959 0 0 0 -0.0759,-0.12646 14.551971,14.551959 0 0 0 -0.0775,-0.12605 14.551971,14.551959 0 0 0 -0.0784,-0.12522 14.551971,14.551959 0 0 0 -0.08,-0.12439 14.551971,14.551959 0 0 0 -0.0809,-0.12357 14.551971,14.551959 0 0 0 -0.0825,-0.12273 14.551971,14.551959 0 0 0 -0.0833,-0.1219 14.551971,14.551959 0 0 0 -0.085,-0.12108 14.551971,14.551959 0 0 0 -0.0858,-0.12024 14.551971,14.551959 0 0 0 -0.0871,-0.11942 14.551971,14.551959 0 0 0 -0.0887,-0.11858 14.551971,14.551959 0 0 0 -0.0896,-0.11735 14.551971,14.551959 0 0 0 -0.0908,-0.11651 14.551971,14.551959 0 0 0 -0.0921,-0.11569 14.551971,14.551959 0 0 0 -0.0929,-0.11485 14.551971,14.551959 0 0 0 -0.0945,-0.11361 14.551971,14.551959 0 0 0 -0.0954,-0.11278 14.551971,14.551959 0 0 0 -0.0966,-0.11195 14.551971,14.551959 0 0 0 -0.0978,-0.11071 14.551971,14.551959 0 0 0 -0.0991,-0.10988 14.551971,14.551959 0 0 0 -0.0999,-0.10905 14.551971,14.551959 0 0 0 -0.10118,-0.10781 14.551971,14.551959 0 0 0 -0.102,-0.10656 14.551971,14.551959 0 0 0 -0.10324,-0.10573 14.551971,14.551959 0 0 0 -0.10449,-0.10491 14.551971,14.551959 0 0 0 -0.10532,-0.10366 14.551971,14.551959 0 0 0 -0.10615,-0.10241 14.551971,14.551959 0 0 0 -0.1078,-0.10159 14.551971,14.551959 0 0 0 -0.10822,-0.10034 14.551971,14.551959 0 0 0 -0.10947,-0.0991 14.551971,14.551959 0 0 0 -0.11071,-0.0983 14.551971,14.551959 0 0 0 -0.11154,-0.097 14.551971,14.551959 0 0 0 -0.11236,-0.0958 14.551971,14.551959 0 0 0 -0.11361,-0.0949 14.551971,14.551959 0 0 0 -0.11444,-0.0933 14.551971,14.551959 0 0 0 -0.11527,-0.0925 14.551971,14.551959 0 0 0 -0.1161,-0.0912 14.551971,14.551959 0 0 0 -0.11734,-0.09 14.551971,14.551959 0 0 0 -0.11818,-0.0892 14.551971,14.551959 0 0 0 -0.119,-0.0875 14.551971,14.551959 0 0 0 -0.11983,-0.0867 14.551971,14.551959 0 0 0 -0.12066,-0.085 14.551971,14.551959 0 0 0 -0.12149,-0.0842 14.551971,14.551959 0 0 0 -0.12273,-0.0825 14.551971,14.551959 0 0 0 -0.12315,-0.0817 14.551971,14.551959 0 0 0 -0.12439,-0.08 14.551971,14.551959 0 0 0 -0.12481,-0.0792 14.551971,14.551959 0 0 0 -0.12563,-0.0775 14.551971,14.551959 0 0 0 -0.12647,-0.0763 14.551971,14.551959 0 0 0 -0.12729,-0.0751 14.551971,14.551959 0 0 0 -0.12813,-0.0742 14.551971,14.551959 0 0 0 -0.12895,-0.0721 14.551971,14.551959 0 0 0 -0.12936,-0.0713 14.551971,14.551959 0 0 0 -0.1302,-0.0701 14.551971,14.551959 0 0 0 -0.13103,-0.0684 14.551971,14.551959 0 0 0 -0.13144,-0.0672 14.551971,14.551959 0 0 0 -0.13227,-0.0659 14.551971,14.551959 0 0 0 -0.1331,-0.0647 14.551971,14.551959 0 0 0 -0.13351,-0.063 14.551971,14.551959 0 0 0 -0.13434,-0.0618 14.551971,14.551959 0 0 0 -0.13476,-0.0605 14.551971,14.551959 0 0 0 -0.13559,-0.0593 14.551971,14.551959 0 0 0 -0.136,-0.0576 14.551971,14.551959 0 0 0 -0.13683,-0.0564 14.551971,14.551959 0 0 0 -0.13683,-0.0547 14.551971,14.551959 0 0 0 -0.13808,-0.0539 14.551971,14.551959 0 0 0 -0.13807,-0.0518 14.551971,14.551959 0 0 0 -0.13891,-0.051 14.551971,14.551959 0 0 0 -0.13931,-0.0493 14.551971,14.551959 0 0 0 -0.13974,-0.0477 14.551971,14.551959 0 0 0 -0.14056,-0.0464 14.551971,14.551959 0 0 0 -0.14056,-0.0452 14.551971,14.551959 0 0 0 -0.14139,-0.0435 14.551971,14.551959 0 0 0 -0.1414,-0.0423 14.551971,14.551959 0 0 0 -0.14222,-0.0406 14.551971,14.551959 0 0 0 -0.14263,-0.0394 14.551971,14.551959 0 0 0 -0.14264,-0.0377 14.551971,14.551959 0 0 0 -0.14346,-0.0365 14.551971,14.551959 0 0 0 -0.14347,-0.0348 14.551971,14.551959 0 0 0 -0.14388,-0.0336 14.551971,14.551959 0 0 0 -0.14429,-0.0319 14.551971,14.551959 0 0 0 -0.14471,-0.0307 14.551971,14.551959 0 0 0 -0.14471,-0.029 14.551971,14.551959 0 0 0 -0.14554,-0.0278 14.551971,14.551959 0 0 0 -0.14512,-0.0261 14.551971,14.551959 0 0 0 -0.14596,-0.0245 14.551971,14.551959 0 0 0 -0.14595,-0.0232 14.551971,14.551959 0 0 0 -0.14595,-0.0216 14.551971,14.551959 0 0 0 -0.14678,-0.0203 14.551971,14.551959 0 0 0 -0.14637,-0.0187 14.551971,14.551959 0 0 0 -0.14678,-0.0174 14.551971,14.551959 0 0 0 -0.1472,-0.0158 14.551971,14.551959 0 0 0 -0.14678,-0.0141 14.551971,14.551959 0 0 0 -0.14761,-0.0129 14.551971,14.551959 0 0 0 -0.1472,-0.0112 14.551971,14.551959 0 0 0 -0.14761,-0.01 14.551971,14.551959 0 0 0 -0.1472,-0.008 14.551971,14.551959 0 0 0 -0.14803,-0.007 14.551971,14.551959 0 0 0 -0.14761,-0.005 14.551971,14.551959 0 0 0 -0.14761,-0.004 14.551971,14.551959 0 0 0 -0.14802,-0.002 14.551971,14.551959 0 0 0 -0.14762,-8.3e-4 z" />
      <path
         id="path3471"
         style="fill:#000000;stroke-width:3.23659"
         d="m 90.578152,40.234658 a 2.7246869,2.724685 0 0 0 -0.05086,5.07e-4 2.7246869,2.724685 0 0 0 -0.05086,0.0016 2.7246869,2.724685 0 0 0 -0.0506,0.0026 2.7246869,2.724685 0 0 0 -0.05086,0.0034 2.7246869,2.724685 0 0 0 -0.0506,0.0045 2.7246869,2.724685 0 0 0 -0.0506,0.0052 2.7246869,2.724685 0 0 0 -0.05034,0.0063 2.7246869,2.724685 0 0 0 -0.05034,0.0073 2.7246869,2.724685 0 0 0 -0.05034,0.0081 2.7246869,2.724685 0 0 0 -0.05007,0.0092 2.7246869,2.724685 0 0 0 -0.04981,0.01 2.7246869,2.724685 0 0 0 -0.04955,0.01101 2.7246869,2.724685 0 0 0 -0.04955,0.01206 2.7246869,2.724685 0 0 0 -0.04903,0.01285 2.7246869,2.724685 0 0 0 -0.04903,0.01363 2.7246869,2.724685 0 0 0 -0.04876,0.01468 2.7246869,2.724685 0 0 0 -0.0485,0.01547 2.7246869,2.724685 0 0 0 -0.04798,0.01652 2.7246869,2.724685 0 0 0 -0.04772,0.0173 2.7246869,2.724685 0 0 0 -0.04772,0.01835 2.7246869,2.724685 0 0 0 -0.04693,0.01914 2.7246869,2.724685 0 0 0 -0.04693,0.01993 2.7246869,2.724685 0 0 0 -0.04614,0.02097 2.7246869,2.724685 0 0 0 -0.04614,0.02176 2.7246869,2.724685 0 0 0 -0.04562,0.02255 2.7246869,2.724685 0 0 0 -0.04509,0.02333 2.7246869,2.724685 0 0 0 -0.04457,0.02438 2.7246869,2.724685 0 0 0 -0.04431,0.02491 2.7246869,2.724685 0 0 0 -0.04378,0.02596 2.7246869,2.724685 0 0 0 -0.04326,0.02674 2.7246869,2.724685 0 0 0 -0.04273,0.02753 2.7246869,2.724685 0 0 0 -0.04221,0.02831 2.7246869,2.724685 0 0 0 -0.04168,0.0291 2.7246869,2.724685 0 0 0 -0.04116,0.02989 2.7246869,2.724685 0 0 0 -0.04064,0.03067 2.7246869,2.724685 0 0 0 -0.03985,0.03146 2.7246869,2.724685 0 0 0 -0.03959,0.03225 2.7246869,2.724685 0 0 0 -0.0388,0.03277 2.7246869,2.724685 0 0 0 -0.03802,0.03356 2.7246869,2.724685 0 0 0 -0.03749,0.03435 2.7246869,2.724685 0 0 0 -0.03697,0.03513 2.7246869,2.724685 0 0 0 -0.03618,0.03566 2.7246869,2.724685 0 0 0 -0.03566,0.03618 2.7246869,2.724685 0 0 0 -0.03487,0.03696 2.7246869,2.724685 0 0 0 -0.03408,0.03775 2.7246869,2.724685 0 0 0 -0.03356,0.03828 2.7246869,2.724685 0 0 0 -0.03277,0.0388 2.7246869,2.724685 0 0 0 -0.03199,0.03959 2.7246869,2.724685 0 0 0 -0.03146,0.04012 2.7246869,2.724685 0 0 0 -0.03041,0.04064 2.7246869,2.724685 0 0 0 -0.02989,0.04116 2.7246869,2.724685 0 0 0 -0.02884,0.04195 2.7246869,2.724685 0 0 0 -0.02831,0.04221 2.7246869,2.724685 0 0 0 -0.02727,0.043 2.7246869,2.724685 0 0 0 -0.02674,0.04326 2.7246869,2.724685 0 0 0 -0.02569,0.04378 2.7246869,2.724685 0 0 0 -0.02491,0.04431 2.7246869,2.724685 0 0 0 -0.02412,0.04483 2.7246869,2.724685 0 0 0 -0.02333,0.0451 2.7246869,2.724685 0 0 0 -0.02255,0.04562 2.7246869,2.724685 0 0 0 -0.0215,0.04614 2.7246869,2.724685 0 0 0 -0.02071,0.04641 2.7246869,2.724685 0 0 0 -0.01993,0.04667 2.7246869,2.724685 0 0 0 -0.01914,0.04719 2.7246869,2.724685 0 0 0 -0.01809,0.04772 2.7246869,2.724685 0 0 0 -0.01704,0.04772 2.7246869,2.724685 0 0 0 -0.01652,0.04824 2.7246869,2.724685 0 0 0 -0.01521,0.0485 2.7246869,2.724685 0 0 0 -0.01468,0.04877 2.7246869,2.724685 0 0 0 -0.01363,0.04903 2.7246869,2.724685 0 0 0 -0.01259,0.04902 2.7246869,2.724685 0 0 0 -0.0118,0.04955 2.7246869,2.724685 0 0 0 -0.01075,0.04982 2.7246869,2.724685 0 0 0 -0.01,0.04981 2.7246869,2.724685 0 0 0 -0.0089,0.05007 2.7246869,2.724685 0 0 0 -0.0081,0.05007 2.7246869,2.724685 0 0 0 -0.0071,0.05034 2.7246869,2.724685 0 0 0 -0.006,0.0506 2.7246869,2.724685 0 0 0 -0.0052,0.0506 2.7246869,2.724685 0 0 0 -0.0042,0.0506 2.7246869,2.724685 0 0 0 -0.0034,0.05086 2.7246869,2.724685 0 0 0 -0.0024,0.0506 2.7246869,2.724685 0 0 0 -0.0013,0.05086 2.7246869,2.724685 0 0 0 -5.24e-4,0.05086 2.7246869,2.724685 0 0 0 0,0.0081 2.7246869,2.724685 0 0 0 5.24e-4,0.05086 2.7246869,2.724685 0 0 0 0.0016,0.05086 2.7246869,2.724685 0 0 0 0.0026,0.05086 2.7246869,2.724685 0 0 0 0.0034,0.0506 2.7246869,2.724685 0 0 0 0.0045,0.05086 2.7246869,2.724685 0 0 0 0.0052,0.05034 2.7246869,2.724685 0 0 0 0.0063,0.0506 2.7246869,2.724685 0 0 0 0.0073,0.05034 2.7246869,2.724685 0 0 0 0.0081,0.05007 2.7246869,2.724685 0 0 0 0.0092,0.05007 2.7246869,2.724685 0 0 0 0.01,0.04981 2.7246869,2.724685 0 0 0 0.01101,0.04981 2.7246869,2.724685 0 0 0 0.01206,0.04929 2.7246869,2.724685 0 0 0 0.01285,0.04929 2.7246869,2.724685 0 0 0 0.01363,0.04903 2.7246869,2.724685 0 0 0 0.01468,0.04877 2.7246869,2.724685 0 0 0 0.01547,0.04824 2.7246869,2.724685 0 0 0 0.01652,0.04824 2.7246869,2.724685 0 0 0 0.0173,0.04772 2.7246869,2.724685 0 0 0 0.01835,0.04746 2.7246869,2.724685 0 0 0 0.01914,0.04719 2.7246869,2.724685 0 0 0 0.01993,0.04667 2.7246869,2.724685 0 0 0 0.02097,0.04641 2.7246869,2.724685 0 0 0 0.02176,0.04588 2.7246869,2.724685 0 0 0 0.02255,0.04562 2.7246869,2.724685 0 0 0 0.02333,0.04509 2.7246869,2.724685 0 0 0 0.02438,0.04483 2.7246869,2.724685 0 0 0 0.02491,0.04405 2.7246869,2.724685 0 0 0 0.02595,0.04378 2.7246869,2.724685 0 0 0 0.02674,0.04326 2.7246869,2.724685 0 0 0 0.02753,0.04273 2.7246869,2.724685 0 0 0 0.02832,0.04221 2.7246869,2.724685 0 0 0 0.0291,0.04195 2.7246869,2.724685 0 0 0 0.02989,0.0409 2.7246869,2.724685 0 0 0 0.03068,0.04064 2.7246869,2.724685 0 0 0 0.03146,0.04011 2.7246869,2.724685 0 0 0 0.03225,0.03932 2.7246869,2.724685 0 0 0 0.03277,0.0388 2.7246869,2.724685 0 0 0 0.03356,0.03828 2.7246869,2.724685 0 0 0 0.03434,0.03749 2.7246869,2.724685 0 0 0 0.03487,0.03696 2.7246869,2.724685 0 0 0 0.03592,0.03618 2.7246869,2.724685 0 0 0 0.03618,0.03566 2.7246869,2.724685 0 0 0 0.03697,0.03487 2.7246869,2.724685 0 0 0 0.03775,0.03408 2.7246869,2.724685 0 0 0 0.03828,0.03356 2.7246869,2.724685 0 0 0 0.0388,0.03278 2.7246869,2.724685 0 0 0 0.03959,0.03199 2.7246869,2.724685 0 0 0 0.04011,0.0312 2.7246869,2.724685 0 0 0 0.04064,0.03067 2.7246869,2.724685 0 0 0 0.04116,0.02962 2.7246869,2.724685 0 0 0 0.04195,0.0291 2.7246869,2.724685 0 0 0 0.04221,0.02806 2.7246869,2.724685 0 0 0 0.04273,0.02753 2.7246869,2.724685 0 0 0 0.04352,0.02648 2.7246869,2.724685 0 0 0 0.04378,0.02596 2.7246869,2.724685 0 0 0 0.04431,0.0249 2.7246869,2.724685 0 0 0 0.04483,0.02412 2.7246869,2.724685 0 0 0 0.0451,0.02333 2.7246869,2.724685 0 0 0 0.04562,0.02255 2.7246869,2.724685 0 0 0 0.04614,0.0215 2.7246869,2.724685 0 0 0 0.0464,0.02071 2.7246869,2.724685 0 0 0 0.04667,0.01993 2.7246869,2.724685 0 0 0 0.04719,0.01887 2.7246869,2.724685 0 0 0 0.04772,0.01809 2.7246869,2.724685 0 0 0 0.04772,0.01731 2.7246869,2.724685 0 0 0 0.04824,0.01626 2.7246869,2.724685 0 0 0 0.0485,0.01547 2.7246869,2.724685 0 0 0 0.04876,0.01442 2.7246869,2.724685 0 0 0 0.04877,0.01363 2.7246869,2.724685 0 0 0 0.04929,0.01259 2.7246869,2.724685 0 0 0 0.04955,0.01179 2.7246869,2.724685 0 0 0 0.04982,0.01101 2.7246869,2.724685 0 0 0 0.04981,0.0097 2.7246869,2.724685 0 0 0 0.05008,0.0092 2.7246869,2.724685 0 0 0 0.05008,0.0079 2.7246869,2.724685 0 0 0 0.05034,0.0071 2.7246869,2.724685 0 0 0 0.0506,0.0063 2.7246869,2.724685 0 0 0 0.0506,0.0052 2.7246869,2.724685 0 0 0 0.0506,0.0042 2.7246869,2.724685 0 0 0 0.05086,0.0034 2.7246869,2.724685 0 0 0 0.0506,0.0024 2.7246869,2.724685 0 0 0 0.05086,0.0013 2.7246869,2.724685 0 0 0 0.05086,5.07e-4 2.7246869,2.724685 0 0 0 0.0081,0 2.7246869,2.724685 0 0 0 0.05086,-7.61e-4 2.7246869,2.724685 0 0 0 0.05086,-0.0016 2.7246869,2.724685 0 0 0 0.05086,-0.0023 2.7246869,2.724685 0 0 0 0.0506,-0.0034 2.7246869,2.724685 0 0 0 0.05086,-0.0045 2.7246869,2.724685 0 0 0 0.05034,-0.0055 2.7246869,2.724685 0 0 0 0.0506,-0.0063 2.7246869,2.724685 0 0 0 0.05034,-0.0071 2.7246869,2.724685 0 0 0 0.05008,-0.0084 2.7246869,2.724685 0 0 0 0.05008,-0.0089 2.7246869,2.724685 0 0 0 0.04981,-0.01022 2.7246869,2.724685 0 0 0 0.04981,-0.01101 2.7246869,2.724685 0 0 0 0.04929,-0.0118 2.7246869,2.724685 0 0 0 0.04929,-0.01285 2.7246869,2.724685 0 0 0 0.04903,-0.01363 2.7246869,2.724685 0 0 0 0.0485,-0.01468 2.7246869,2.724685 0 0 0 0.0485,-0.01573 2.7246869,2.724685 0 0 0 0.04824,-0.01626 2.7246869,2.724685 0 0 0 0.04772,-0.01756 2.7246869,2.724685 0 0 0 0.04745,-0.01809 2.7246869,2.724685 0 0 0 0.04719,-0.01914 2.7246869,2.724685 0 0 0 0.04667,-0.01993 2.7246869,2.724685 0 0 0 0.04641,-0.02097 2.7246869,2.724685 0 0 0 0.04588,-0.02176 2.7246869,2.724685 0 0 0 0.04562,-0.02255 2.7246869,2.724685 0 0 0 0.0451,-0.02333 2.7246869,2.724685 0 0 0 0.04483,-0.02438 2.7246869,2.724685 0 0 0 0.04404,-0.02517 2.7246869,2.724685 0 0 0 0.04378,-0.02596 2.7246869,2.724685 0 0 0 0.04326,-0.02674 2.7246869,2.724685 0 0 0 0.04274,-0.02753 2.7246869,2.724685 0 0 0 0.04221,-0.02832 2.7246869,2.724685 0 0 0 0.04169,-0.0291 2.7246869,2.724685 0 0 0 0.04116,-0.02989 2.7246869,2.724685 0 0 0 0.04064,-0.03067 2.7246869,2.724685 0 0 0 0.04011,-0.0312 2.7246869,2.724685 0 0 0 0.03933,-0.03225 2.7246869,2.724685 0 0 0 0.0388,-0.03277 2.7246869,2.724685 0 0 0 0.03828,-0.03382 2.7246869,2.724685 0 0 0 0.03749,-0.03408 2.7246869,2.724685 0 0 0 0.03697,-0.03513 2.7246869,2.724685 0 0 0 0.03618,-0.03566 2.7246869,2.724685 0 0 0 0.03539,-0.03644 2.7246869,2.724685 0 0 0 0.03513,-0.03696 2.7246869,2.724685 0 0 0 0.03408,-0.03749 2.7246869,2.724685 0 0 0 0.03356,-0.03828 2.7246869,2.724685 0 0 0 0.03277,-0.03907 2.7246869,2.724685 0 0 0 0.03199,-0.03932 2.7246869,2.724685 0 0 0 0.0312,-0.04012 2.7246869,2.724685 0 0 0 0.03067,-0.04064 2.7246869,2.724685 0 0 0 0.02963,-0.04142 2.7246869,2.724685 0 0 0 0.0291,-0.04169 2.7246869,2.724685 0 0 0 0.02805,-0.04221 2.7246869,2.724685 0 0 0 0.02753,-0.043 2.7246869,2.724685 0 0 0 0.02648,-0.04326 2.7246869,2.724685 0 0 0 0.02595,-0.04378 2.7246869,2.724685 0 0 0 0.02491,-0.04431 2.7246869,2.724685 0 0 0 0.02412,-0.04483 2.7246869,2.724685 0 0 0 0.02333,-0.04509 2.7246869,2.724685 0 0 0 0.02229,-0.04562 2.7246869,2.724685 0 0 0 0.02176,-0.04614 2.7246869,2.724685 0 0 0 0.02071,-0.04641 2.7246869,2.724685 0 0 0 0.01992,-0.04693 2.7246869,2.724685 0 0 0 0.01888,-0.04719 2.7246869,2.724685 0 0 0 0.01809,-0.04746 2.7246869,2.724685 0 0 0 0.0173,-0.04772 2.7246869,2.724685 0 0 0 0.01626,-0.04824 2.7246869,2.724685 0 0 0 0.01547,-0.0485 2.7246869,2.724685 0 0 0 0.01442,-0.04877 2.7246869,2.724685 0 0 0 0.01363,-0.04903 2.7246869,2.724685 0 0 0 0.01259,-0.04929 2.7246869,2.724685 0 0 0 0.0118,-0.04929 2.7246869,2.724685 0 0 0 0.01101,-0.04981 2.7246869,2.724685 0 0 0 0.0097,-0.04982 2.7246869,2.724685 0 0 0 0.0092,-0.05007 2.7246869,2.724685 0 0 0 0.0079,-0.05034 2.7246869,2.724685 0 0 0 0.0071,-0.05034 2.7246869,2.724685 0 0 0 0.0063,-0.05034 2.7246869,2.724685 0 0 0 0.0052,-0.0506 2.7246869,2.724685 0 0 0 0.0042,-0.0506 2.7246869,2.724685 0 0 0 0.0034,-0.05086 2.7246869,2.724685 0 0 0 0.0024,-0.05086 2.7246869,2.724685 0 0 0 0.0013,-0.05086 2.7246869,2.724685 0 0 0 5.25e-4,-0.05086 2.7246869,2.724685 0 0 0 0,-0.0081 2.7246869,2.724685 0 0 0 -7.87e-4,-0.05086 2.7246869,2.724685 0 0 0 -0.0016,-0.0506 2.7246869,2.724685 0 0 0 -0.0024,-0.05086 2.7246869,2.724685 0 0 0 -0.0037,-0.05086 2.7246869,2.724685 0 0 0 -0.0042,-0.0506 2.7246869,2.724685 0 0 0 -0.0055,-0.0506 2.7246869,2.724685 0 0 0 -0.0063,-0.05034 2.7246869,2.724685 0 0 0 -0.0071,-0.05034 2.7246869,2.724685 0 0 0 -0.0084,-0.05034 2.7246869,2.724685 0 0 0 -0.0089,-0.05007 2.7246869,2.724685 0 0 0 -0.01022,-0.04981 2.7246869,2.724685 0 0 0 -0.01101,-0.04955 2.7246869,2.724685 0 0 0 -0.0118,-0.04955 2.7246869,2.724685 0 0 0 -0.01285,-0.04903 2.7246869,2.724685 0 0 0 -0.01364,-0.04902 2.7246869,2.724685 0 0 0 -0.01468,-0.04877 2.7246869,2.724685 0 0 0 -0.01573,-0.0485 2.7246869,2.724685 0 0 0 -0.01625,-0.04798 2.7246869,2.724685 0 0 0 -0.01757,-0.04771 2.7246869,2.724685 0 0 0 -0.01809,-0.04746 2.7246869,2.724685 0 0 0 -0.01914,-0.04719 2.7246869,2.724685 0 0 0 -0.01993,-0.04667 2.7246869,2.724685 0 0 0 -0.02097,-0.04641 2.7246869,2.724685 0 0 0 -0.02176,-0.04614 2.7246869,2.724685 0 0 0 -0.02255,-0.04536 2.7246869,2.724685 0 0 0 -0.0236,-0.04536 2.7246869,2.724685 0 0 0 -0.02412,-0.04457 2.7246869,2.724685 0 0 0 -0.02517,-0.04431 2.7246869,2.724685 0 0 0 -0.02596,-0.04378 2.7246869,2.724685 0 0 0 -0.02674,-0.04326 2.7246869,2.724685 0 0 0 -0.02753,-0.04273 2.7246869,2.724685 0 0 0 -0.02831,-0.04221 2.7246869,2.724685 0 0 0 -0.0291,-0.04169 2.7246869,2.724685 0 0 0 -0.02989,-0.04116 2.7246869,2.724685 0 0 0 -0.03067,-0.04064 2.7246869,2.724685 0 0 0 -0.03146,-0.03985 2.7246869,2.724685 0 0 0 -0.03198,-0.03932 2.7246869,2.724685 0 0 0 -0.03303,-0.0388 2.7246869,2.724685 0 0 0 -0.03356,-0.03828 2.7246869,2.724685 0 0 0 -0.03435,-0.03749 2.7246869,2.724685 0 0 0 -0.03487,-0.03696 2.7246869,2.724685 0 0 0 -0.03566,-0.03618 2.7246869,2.724685 0 0 0 -0.03644,-0.03566 2.7246869,2.724685 0 0 0 -0.03697,-0.03487 2.7246869,2.724685 0 0 0 -0.03749,-0.03408 2.7246869,2.724685 0 0 0 -0.03828,-0.03356 2.7246869,2.724685 0 0 0 -0.03906,-0.03277 2.7246869,2.724685 0 0 0 -0.03933,-0.03198 2.7246869,2.724685 0 0 0 -0.04011,-0.0312 2.7246869,2.724685 0 0 0 -0.0409,-0.03067 2.7246869,2.724685 0 0 0 -0.04116,-0.02962 2.7246869,2.724685 0 0 0 -0.04169,-0.0291 2.7246869,2.724685 0 0 0 -0.04247,-0.02832 2.7246869,2.724685 0 0 0 -0.04273,-0.02726 2.7246869,2.724685 0 0 0 -0.04326,-0.02674 2.7246869,2.724685 0 0 0 -0.04378,-0.02569 2.7246869,2.724685 0 0 0 -0.04431,-0.02491 2.7246869,2.724685 0 0 0 -0.04483,-0.02412 2.7246869,2.724685 0 0 0 -0.04536,-0.02333 2.7246869,2.724685 0 0 0 -0.04562,-0.02255 2.7246869,2.724685 0 0 0 -0.04588,-0.0215 2.7246869,2.724685 0 0 0 -0.04641,-0.02071 2.7246869,2.724685 0 0 0 -0.04693,-0.01992 2.7246869,2.724685 0 0 0 -0.04719,-0.01888 2.7246869,2.724685 0 0 0 -0.04745,-0.01835 2.7246869,2.724685 0 0 0 -0.04798,-0.01704 2.7246869,2.724685 0 0 0 -0.04798,-0.01626 2.7246869,2.724685 0 0 0 -0.0485,-0.01547 2.7246869,2.724685 0 0 0 -0.04877,-0.01468 2.7246869,2.724685 0 0 0 -0.04903,-0.01337 2.7246869,2.724685 0 0 0 -0.04929,-0.01285 2.7246869,2.724685 0 0 0 -0.04929,-0.0118 2.7246869,2.724685 0 0 0 -0.04981,-0.01075 2.7246869,2.724685 0 0 0 -0.04982,-0.01 2.7246869,2.724685 0 0 0 -0.05007,-0.0089 2.7246869,2.724685 0 0 0 -0.05034,-0.0081 2.7246869,2.724685 0 0 0 -0.05034,-0.0071 2.7246869,2.724685 0 0 0 -0.05034,-0.006 2.7246869,2.724685 0 0 0 -0.0506,-0.0052 2.7246869,2.724685 0 0 0 -0.05086,-0.0042 2.7246869,2.724685 0 0 0 -0.0506,-0.0034 2.7246869,2.724685 0 0 0 -0.05086,-0.0024 2.7246869,2.724685 0 0 0 -0.05086,-0.0013 2.7246869,2.724685 0 0 0 -0.05086,-5.08e-4 2.7246869,2.724685 0 0 0 -0.0081,0 z" />
      <path
         id="path3481"
         style="fill:#000000;stroke-width:24.1114"
         d="M 176.54297 100 C 173.89267 100 171.27471 100.13413 168.69531 100.39453 C 166.11591 100.65494 163.57594 101.04264 161.08008 101.55078 C 158.58421 102.05893 156.13213 102.68837 153.73242 103.43164 C 151.33272 104.17491 148.98622 105.03229 146.69531 105.99805 C 144.4044 106.96381 142.16948 108.03532 140 109.21094 C 137.83052 110.38655 135.72486 111.66622 133.68945 113.03906 C 131.65403 114.4119 129.6895 115.88007 127.80078 117.4375 C 125.91206 118.99493 124.09854 120.63975 122.36914 122.36914 C 120.63974 124.09854 118.99493 125.91206 117.4375 127.80078 C 115.88007 129.6895 114.4119 131.65404 113.03906 133.68945 C 111.66622 135.72486 110.38656 137.83053 109.21094 140 C 108.03532 142.16948 106.9638 144.40441 105.99805 146.69531 C 105.03229 148.98622 104.1749 151.33272 103.43164 153.73242 C 102.68837 156.13212 102.05892 158.58421 101.55078 161.08008 C 101.04264 163.57595 100.65492 166.11591 100.39453 168.69531 C 100.13416 171.27472 100 173.89267 100 176.54297 L 100 323.45703 C 100 326.10733 100.13413 328.72529 100.39453 331.30469 C 100.6549 333.88409 101.04264 336.42406 101.55078 338.91992 C 102.05892 341.41579 102.68837 343.86593 103.43164 346.26562 C 104.1749 348.66533 105.03229 351.01378 105.99805 353.30469 C 106.9638 355.59559 108.03532 357.83052 109.21094 360 C 110.38656 362.16947 111.66622 364.27514 113.03906 366.31055 C 114.4119 368.34597 115.88007 370.3105 117.4375 372.19922 C 118.99493 374.08794 120.63974 375.90146 122.36914 377.63086 C 124.09854 379.36026 125.91206 381.00507 127.80078 382.5625 C 129.6895 384.11993 131.65403 385.58814 133.68945 386.96094 C 135.72486 388.33381 137.83052 389.61348 140 390.78906 C 142.16948 391.96468 144.4044 393.03621 146.69531 394.00195 C 148.98622 394.9677 151.33272 395.82508 153.73242 396.56836 C 156.13213 397.31164 158.58421 397.94106 161.08008 398.44922 C 163.57594 398.95734 166.11591 399.3451 168.69531 399.60547 C 171.27471 399.86588 173.89267 400 176.54297 400 L 323.45703 400 C 326.10733 400 328.72529 399.8658 331.30469 399.60547 C 333.88409 399.34506 336.42406 398.95734 338.91992 398.44922 C 341.41579 397.94106 343.86593 397.31164 346.26562 396.56836 C 348.66533 395.82508 351.01378 394.9677 353.30469 394.00195 C 355.59559 393.03621 357.83052 391.96468 360 390.78906 C 362.16948 389.61348 364.27514 388.33381 366.31055 386.96094 C 368.34595 385.58814 370.31047 384.11993 372.19922 382.5625 C 374.08792 381.00507 375.90146 379.36026 377.63086 377.63086 C 379.36027 375.90146 381.00507 374.08794 382.5625 372.19922 C 384.11993 370.3105 385.5881 368.34597 386.96094 366.31055 C 388.33378 364.27514 389.61348 362.16947 390.78906 360 C 391.96465 357.83052 393.03617 355.59559 394.00195 353.30469 C 394.9677 351.01378 395.82508 348.66533 396.56836 346.26562 C 397.3116 343.86593 397.9411 341.41579 398.44922 338.91992 C 398.95738 336.42406 399.34506 333.88409 399.60547 331.30469 C 399.86588 328.72529 400 326.10733 400 323.45703 L 400 176.54297 C 400 173.89267 399.8658 171.27472 399.60547 168.69531 C 399.34506 166.11591 398.95738 163.57595 398.44922 161.08008 C 397.9411 158.58421 397.3116 156.13212 396.56836 153.73242 C 395.82508 151.33272 394.9677 148.98622 394.00195 146.69531 C 393.03617 144.40441 391.96465 142.16948 390.78906 140 C 389.61348 137.83053 388.33378 135.72486 386.96094 133.68945 C 385.5881 131.65404 384.11993 129.6895 382.5625 127.80078 C 381.00507 125.91206 379.36027 124.09854 377.63086 122.36914 C 375.90146 120.63975 374.08792 118.99493 372.19922 117.4375 C 370.31047 115.88007 368.34595 114.4119 366.31055 113.03906 C 364.27514 111.66622 362.16948 110.38655 360 109.21094 C 357.83052 108.03532 355.59559 106.96381 353.30469 105.99805 C 351.01378 105.03229 348.66533 104.17491 346.26562 103.43164 C 343.86593 102.68837 341.41579 102.05893 338.91992 101.55078 C 336.42406 101.04264 333.88409 100.65492 331.30469 100.39453 C 328.72529 100.13416 326.10733 100 323.45703 100 L 176.54297 100 z M 342.3125 142.06836 A 20.297935 20.297928 0 0 1 342.37305 142.06836 A 20.297935 20.297928 0 0 1 342.75195 142.07227 A 20.297935 20.297928 0 0 1 343.13086 142.08203 A 20.297935 20.297928 0 0 1 343.50977 142.09961 A 20.297935 20.297928 0 0 1 343.88672 142.125 A 20.297935 20.297928 0 0 1 344.26562 142.15625 A 20.297935 20.297928 0 0 1 344.64258 142.19531 A 20.297935 20.297928 0 0 1 345.01758 142.24023 A 20.297935 20.297928 0 0 1 345.39258 142.29297 A 20.297935 20.297928 0 0 1 345.76758 142.35352 A 20.297935 20.297928 0 0 1 346.14062 142.41992 A 20.297935 20.297928 0 0 1 346.51172 142.49414 A 20.297935 20.297928 0 0 1 346.88281 142.57422 A 20.297935 20.297928 0 0 1 347.25 142.66211 A 20.297935 20.297928 0 0 1 347.61719 142.75781 A 20.297935 20.297928 0 0 1 347.98242 142.85742 A 20.297935 20.297928 0 0 1 348.3457 142.9668 A 20.297935 20.297928 0 0 1 348.70703 143.08203 A 20.297935 20.297928 0 0 1 349.06445 143.20312 A 20.297935 20.297928 0 0 1 349.42188 143.33008 A 20.297935 20.297928 0 0 1 349.77539 143.4668 A 20.297935 20.297928 0 0 1 350.12695 143.60742 A 20.297935 20.297928 0 0 1 350.47656 143.75586 A 20.297935 20.297928 0 0 1 350.82227 143.91016 A 20.297935 20.297928 0 0 1 351.16406 144.07031 A 20.297935 20.297928 0 0 1 351.50391 144.23828 A 20.297935 20.297928 0 0 1 351.8418 144.41211 A 20.297935 20.297928 0 0 1 352.17578 144.5918 A 20.297935 20.297928 0 0 1 352.50586 144.77734 A 20.297935 20.297928 0 0 1 352.83203 144.96875 A 20.297935 20.297928 0 0 1 353.1543 145.16797 A 20.297935 20.297928 0 0 1 353.47266 145.37109 A 20.297935 20.297928 0 0 1 353.78906 145.58203 A 20.297935 20.297928 0 0 1 354.09961 145.79883 A 20.297935 20.297928 0 0 1 354.40625 146.01953 A 20.297935 20.297928 0 0 1 354.71094 146.24805 A 20.297935 20.297928 0 0 1 355.00977 146.48047 A 20.297935 20.297928 0 0 1 355.30273 146.71875 A 20.297935 20.297928 0 0 1 355.59375 146.96289 A 20.297935 20.297928 0 0 1 355.87891 147.21289 A 20.297935 20.297928 0 0 1 356.1582 147.4668 A 20.297935 20.297928 0 0 1 356.43359 147.72656 A 20.297935 20.297928 0 0 1 356.70508 147.99219 A 20.297935 20.297928 0 0 1 356.9707 148.26172 A 20.297935 20.297928 0 0 1 357.23047 148.53711 A 20.297935 20.297928 0 0 1 357.48633 148.81641 A 20.297935 20.297928 0 0 1 357.73633 149.10156 A 20.297935 20.297928 0 0 1 357.98242 149.39062 A 20.297935 20.297928 0 0 1 358.2207 149.68359 A 20.297935 20.297928 0 0 1 358.45508 149.98047 A 20.297935 20.297928 0 0 1 358.68359 150.2832 A 20.297935 20.297928 0 0 1 358.90625 150.58984 A 20.297935 20.297928 0 0 1 359.12305 150.90039 A 20.297935 20.297928 0 0 1 359.33398 151.21484 A 20.297935 20.297928 0 0 1 359.53906 151.5332 A 20.297935 20.297928 0 0 1 359.73828 151.85547 A 20.297935 20.297928 0 0 1 359.93164 152.18164 A 20.297935 20.297928 0 0 1 360.11914 152.51172 A 20.297935 20.297928 0 0 1 360.29883 152.84375 A 20.297935 20.297928 0 0 1 360.47461 153.18164 A 20.297935 20.297928 0 0 1 360.64258 153.51953 A 20.297935 20.297928 0 0 1 360.80469 153.86328 A 20.297935 20.297928 0 0 1 360.96094 154.20898 A 20.297935 20.297928 0 0 1 361.10938 154.55664 A 20.297935 20.297928 0 0 1 361.25195 154.9082 A 20.297935 20.297928 0 0 1 361.38672 155.26172 A 20.297935 20.297928 0 0 1 361.51758 155.61719 A 20.297935 20.297928 0 0 1 361.63867 155.97461 A 20.297935 20.297928 0 0 1 361.75586 156.33594 A 20.297935 20.297928 0 0 1 361.86523 156.69922 A 20.297935 20.297928 0 0 1 361.9668 157.06445 A 20.297935 20.297928 0 0 1 362.0625 157.42969 A 20.297935 20.297928 0 0 1 362.15039 157.79883 A 20.297935 20.297928 0 0 1 362.23242 158.16797 A 20.297935 20.297928 0 0 1 362.30859 158.53906 A 20.297935 20.297928 0 0 1 362.375 158.91211 A 20.297935 20.297928 0 0 1 362.4375 159.28711 A 20.297935 20.297928 0 0 1 362.49023 159.66211 A 20.297935 20.297928 0 0 1 362.53711 160.03711 A 20.297935 20.297928 0 0 1 362.57812 160.41406 A 20.297935 20.297928 0 0 1 362.60938 160.79102 A 20.297935 20.297928 0 0 1 362.63672 161.16992 A 20.297935 20.297928 0 0 1 362.6543 161.54883 A 20.297935 20.297928 0 0 1 362.66602 161.92578 A 20.297935 20.297928 0 0 1 362.67188 162.30469 A 20.297935 20.297928 0 0 1 362.67188 162.36523 A 20.297935 20.297928 0 0 1 362.66797 162.74414 A 20.297935 20.297928 0 0 1 362.6582 163.12305 A 20.297935 20.297928 0 0 1 362.64062 163.50195 A 20.297935 20.297928 0 0 1 362.61523 163.88086 A 20.297935 20.297928 0 0 1 362.58398 164.25781 A 20.297935 20.297928 0 0 1 362.54492 164.63477 A 20.297935 20.297928 0 0 1 362.49805 165.00977 A 20.297935 20.297928 0 0 1 362.44531 165.38477 A 20.297935 20.297928 0 0 1 362.38672 165.75977 A 20.297935 20.297928 0 0 1 362.31836 166.13281 A 20.297935 20.297928 0 0 1 362.24609 166.50391 A 20.297935 20.297928 0 0 1 362.16406 166.875 A 20.297935 20.297928 0 0 1 362.07617 167.24219 A 20.297935 20.297928 0 0 1 361.98242 167.60938 A 20.297935 20.297928 0 0 1 361.88086 167.97461 A 20.297935 20.297928 0 0 1 361.77344 168.33789 A 20.297935 20.297928 0 0 1 361.6582 168.69922 A 20.297935 20.297928 0 0 1 361.53711 169.05859 A 20.297935 20.297928 0 0 1 361.4082 169.41406 A 20.297935 20.297928 0 0 1 361.27344 169.76758 A 20.297935 20.297928 0 0 1 361.13281 170.11914 A 20.297935 20.297928 0 0 1 360.98438 170.46875 A 20.297935 20.297928 0 0 1 360.83008 170.81445 A 20.297935 20.297928 0 0 1 360.66797 171.1582 A 20.297935 20.297928 0 0 1 360.50195 171.49805 A 20.297935 20.297928 0 0 1 360.32812 171.83398 A 20.297935 20.297928 0 0 1 360.14844 172.16797 A 20.297935 20.297928 0 0 1 359.96289 172.49805 A 20.297935 20.297928 0 0 1 359.76953 172.82422 A 20.297935 20.297928 0 0 1 359.57227 173.14648 A 20.297935 20.297928 0 0 1 359.36719 173.4668 A 20.297935 20.297928 0 0 1 359.1582 173.78125 A 20.297935 20.297928 0 0 1 358.94141 174.0918 A 20.297935 20.297928 0 0 1 358.7207 174.40039 A 20.297935 20.297928 0 0 1 358.49219 174.70312 A 20.297935 20.297928 0 0 1 358.25977 175.00195 A 20.297935 20.297928 0 0 1 358.02148 175.29492 A 20.297935 20.297928 0 0 1 357.77734 175.58594 A 20.297935 20.297928 0 0 1 357.52734 175.87109 A 20.297935 20.297928 0 0 1 357.27344 176.15039 A 20.297935 20.297928 0 0 1 357.01172 176.42578 A 20.297935 20.297928 0 0 1 356.74805 176.69727 A 20.297935 20.297928 0 0 1 356.47852 176.96289 A 20.297935 20.297928 0 0 1 356.20312 177.22461 A 20.297935 20.297928 0 0 1 355.92383 177.47852 A 20.297935 20.297928 0 0 1 355.63867 177.73047 A 20.297935 20.297928 0 0 1 355.34961 177.97461 A 20.297935 20.297928 0 0 1 355.05664 178.21484 A 20.297935 20.297928 0 0 1 354.75781 178.44727 A 20.297935 20.297928 0 0 1 354.45508 178.67578 A 20.297935 20.297928 0 0 1 354.14844 178.89844 A 20.297935 20.297928 0 0 1 353.83789 179.11523 A 20.297935 20.297928 0 0 1 353.52344 179.32617 A 20.297935 20.297928 0 0 1 353.20508 179.53125 A 20.297935 20.297928 0 0 1 352.88281 179.73047 A 20.297935 20.297928 0 0 1 352.55664 179.92383 A 20.297935 20.297928 0 0 1 352.22852 180.11133 A 20.297935 20.297928 0 0 1 351.89453 180.29297 A 20.297935 20.297928 0 0 1 351.55859 180.4668 A 20.297935 20.297928 0 0 1 351.21875 180.63477 A 20.297935 20.297928 0 0 1 350.87695 180.79688 A 20.297935 20.297928 0 0 1 350.53125 180.95312 A 20.297935 20.297928 0 0 1 350.18359 181.10156 A 20.297935 20.297928 0 0 1 349.83203 181.24414 A 20.297935 20.297928 0 0 1 349.47852 181.37891 A 20.297935 20.297928 0 0 1 349.12305 181.50977 A 20.297935 20.297928 0 0 1 348.76367 181.63086 A 20.297935 20.297928 0 0 1 348.40234 181.74805 A 20.297935 20.297928 0 0 1 348.04102 181.85742 A 20.297935 20.297928 0 0 1 347.67578 181.95898 A 20.297935 20.297928 0 0 1 347.30859 182.05469 A 20.297935 20.297928 0 0 1 346.94141 182.14258 A 20.297935 20.297928 0 0 1 346.57031 182.22461 A 20.297935 20.297928 0 0 1 346.19922 182.30078 A 20.297935 20.297928 0 0 1 345.82617 182.36719 A 20.297935 20.297928 0 0 1 345.45312 182.42969 A 20.297935 20.297928 0 0 1 345.07812 182.48242 A 20.297935 20.297928 0 0 1 344.70117 182.5293 A 20.297935 20.297928 0 0 1 344.32617 182.57031 A 20.297935 20.297928 0 0 1 343.94727 182.60352 A 20.297935 20.297928 0 0 1 343.57031 182.62891 A 20.297935 20.297928 0 0 1 343.19141 182.64648 A 20.297935 20.297928 0 0 1 342.8125 182.6582 A 20.297935 20.297928 0 0 1 342.43359 182.66406 A 20.297935 20.297928 0 0 1 342.37305 182.66406 A 20.297935 20.297928 0 0 1 341.99414 182.66016 A 20.297935 20.297928 0 0 1 341.61523 182.65039 A 20.297935 20.297928 0 0 1 341.23828 182.63281 A 20.297935 20.297928 0 0 1 340.85938 182.60742 A 20.297935 20.297928 0 0 1 340.48242 182.57617 A 20.297935 20.297928 0 0 1 340.10547 182.53711 A 20.297935 20.297928 0 0 1 339.72852 182.49023 A 20.297935 20.297928 0 0 1 339.35352 182.4375 A 20.297935 20.297928 0 0 1 338.98047 182.37891 A 20.297935 20.297928 0 0 1 338.60742 182.31055 A 20.297935 20.297928 0 0 1 338.23633 182.23828 A 20.297935 20.297928 0 0 1 337.86523 182.15625 A 20.297935 20.297928 0 0 1 337.49609 182.06836 A 20.297935 20.297928 0 0 1 337.12891 181.97461 A 20.297935 20.297928 0 0 1 336.76562 181.87305 A 20.297935 20.297928 0 0 1 336.40234 181.76562 A 20.297935 20.297928 0 0 1 336.04102 181.65039 A 20.297935 20.297928 0 0 1 335.68164 181.5293 A 20.297935 20.297928 0 0 1 335.32617 181.40039 A 20.297935 20.297928 0 0 1 334.9707 181.26562 A 20.297935 20.297928 0 0 1 334.61914 181.125 A 20.297935 20.297928 0 0 1 334.27148 180.97656 A 20.297935 20.297928 0 0 1 333.92578 180.82227 A 20.297935 20.297928 0 0 1 333.58203 180.66211 A 20.297935 20.297928 0 0 1 333.24219 180.49414 A 20.297935 20.297928 0 0 1 332.90625 180.32031 A 20.297935 20.297928 0 0 1 332.57227 180.14062 A 20.297935 20.297928 0 0 1 332.24219 179.95508 A 20.297935 20.297928 0 0 1 331.91602 179.76172 A 20.297935 20.297928 0 0 1 331.5918 179.56445 A 20.297935 20.297928 0 0 1 331.27344 179.35938 A 20.297935 20.297928 0 0 1 330.95898 179.15039 A 20.297935 20.297928 0 0 1 330.64648 178.93359 A 20.297935 20.297928 0 0 1 330.33984 178.71289 A 20.297935 20.297928 0 0 1 330.03711 178.48438 A 20.297935 20.297928 0 0 1 329.73828 178.25195 A 20.297935 20.297928 0 0 1 329.44336 178.01367 A 20.297935 20.297928 0 0 1 329.1543 177.76953 A 20.297935 20.297928 0 0 1 328.86914 177.51953 A 20.297935 20.297928 0 0 1 328.58789 177.26562 A 20.297935 20.297928 0 0 1 328.3125 177.00586 A 20.297935 20.297928 0 0 1 328.04297 176.74023 A 20.297935 20.297928 0 0 1 327.77539 176.4707 A 20.297935 20.297928 0 0 1 327.51562 176.19531 A 20.297935 20.297928 0 0 1 327.25977 175.91602 A 20.297935 20.297928 0 0 1 327.00977 175.63086 A 20.297935 20.297928 0 0 1 326.76562 175.3418 A 20.297935 20.297928 0 0 1 326.52539 175.04883 A 20.297935 20.297928 0 0 1 326.29102 174.75 A 20.297935 20.297928 0 0 1 326.0625 174.44727 A 20.297935 20.297928 0 0 1 325.83984 174.14258 A 20.297935 20.297928 0 0 1 325.62305 173.83008 A 20.297935 20.297928 0 0 1 325.41211 173.51562 A 20.297935 20.297928 0 0 1 325.20703 173.19727 A 20.297935 20.297928 0 0 1 325.00781 172.875 A 20.297935 20.297928 0 0 1 324.81445 172.54883 A 20.297935 20.297928 0 0 1 324.62891 172.2207 A 20.297935 20.297928 0 0 1 324.44727 171.88672 A 20.297935 20.297928 0 0 1 324.27344 171.55078 A 20.297935 20.297928 0 0 1 324.10547 171.21094 A 20.297935 20.297928 0 0 1 323.94336 170.86914 A 20.297935 20.297928 0 0 1 323.78711 170.52344 A 20.297935 20.297928 0 0 1 323.63867 170.17578 A 20.297935 20.297928 0 0 1 323.49609 169.82422 A 20.297935 20.297928 0 0 1 323.35938 169.4707 A 20.297935 20.297928 0 0 1 323.23047 169.11523 A 20.297935 20.297928 0 0 1 323.10742 168.75586 A 20.297935 20.297928 0 0 1 322.99219 168.39648 A 20.297935 20.297928 0 0 1 322.88281 168.0332 A 20.297935 20.297928 0 0 1 322.78125 167.66797 A 20.297935 20.297928 0 0 1 322.68555 167.30078 A 20.297935 20.297928 0 0 1 322.5957 166.93359 A 20.297935 20.297928 0 0 1 322.51367 166.5625 A 20.297935 20.297928 0 0 1 322.43945 166.19141 A 20.297935 20.297928 0 0 1 322.37109 165.81836 A 20.297935 20.297928 0 0 1 322.31055 165.44531 A 20.297935 20.297928 0 0 1 322.25586 165.07031 A 20.297935 20.297928 0 0 1 322.20898 164.69336 A 20.297935 20.297928 0 0 1 322.16992 164.31836 A 20.297935 20.297928 0 0 1 322.13672 163.93945 A 20.297935 20.297928 0 0 1 322.11133 163.5625 A 20.297935 20.297928 0 0 1 322.0918 163.18359 A 20.297935 20.297928 0 0 1 322.08008 162.80469 A 20.297935 20.297928 0 0 1 322.07617 162.42578 A 20.297935 20.297928 0 0 1 322.07617 162.36523 A 20.297935 20.297928 0 0 1 322.08008 161.98633 A 20.297935 20.297928 0 0 1 322.08984 161.60742 A 20.297935 20.297928 0 0 1 322.10742 161.23047 A 20.297935 20.297928 0 0 1 322.13281 160.85156 A 20.297935 20.297928 0 0 1 322.16406 160.47461 A 20.297935 20.297928 0 0 1 322.20312 160.09766 A 20.297935 20.297928 0 0 1 322.24805 159.7207 A 20.297935 20.297928 0 0 1 322.30078 159.3457 A 20.297935 20.297928 0 0 1 322.36133 158.97266 A 20.297935 20.297928 0 0 1 322.42773 158.59961 A 20.297935 20.297928 0 0 1 322.50195 158.22852 A 20.297935 20.297928 0 0 1 322.58203 157.85742 A 20.297935 20.297928 0 0 1 322.66992 157.48828 A 20.297935 20.297928 0 0 1 322.76367 157.12305 A 20.297935 20.297928 0 0 1 322.86523 156.75781 A 20.297935 20.297928 0 0 1 322.97461 156.39453 A 20.297935 20.297928 0 0 1 323.08789 156.0332 A 20.297935 20.297928 0 0 1 323.21094 155.67383 A 20.297935 20.297928 0 0 1 323.33789 155.31836 A 20.297935 20.297928 0 0 1 323.47266 154.96289 A 20.297935 20.297928 0 0 1 323.61523 154.61133 A 20.297935 20.297928 0 0 1 323.76367 154.26367 A 20.297935 20.297928 0 0 1 323.91797 153.91797 A 20.297935 20.297928 0 0 1 324.07812 153.57422 A 20.297935 20.297928 0 0 1 324.24609 153.23438 A 20.297935 20.297928 0 0 1 324.41992 152.89844 A 20.297935 20.297928 0 0 1 324.59961 152.56445 A 20.297935 20.297928 0 0 1 324.78516 152.23438 A 20.297935 20.297928 0 0 1 324.97656 151.9082 A 20.297935 20.297928 0 0 1 325.17578 151.58594 A 20.297935 20.297928 0 0 1 325.37891 151.26562 A 20.297935 20.297928 0 0 1 325.58984 150.95117 A 20.297935 20.297928 0 0 1 325.80469 150.63867 A 20.297935 20.297928 0 0 1 326.02734 150.33203 A 20.297935 20.297928 0 0 1 326.25391 150.0293 A 20.297935 20.297928 0 0 1 326.48828 149.73047 A 20.297935 20.297928 0 0 1 326.72656 149.43555 A 20.297935 20.297928 0 0 1 326.9707 149.14648 A 20.297935 20.297928 0 0 1 327.2207 148.86133 A 20.297935 20.297928 0 0 1 327.47461 148.58008 A 20.297935 20.297928 0 0 1 327.73438 148.30469 A 20.297935 20.297928 0 0 1 328 148.03516 A 20.297935 20.297928 0 0 1 328.26953 147.76953 A 20.297935 20.297928 0 0 1 328.54492 147.50781 A 20.297935 20.297928 0 0 1 328.82422 147.25195 A 20.297935 20.297928 0 0 1 329.10742 147.00195 A 20.297935 20.297928 0 0 1 329.39648 146.75781 A 20.297935 20.297928 0 0 1 329.69141 146.51758 A 20.297935 20.297928 0 0 1 329.98828 146.2832 A 20.297935 20.297928 0 0 1 330.29102 146.05469 A 20.297935 20.297928 0 0 1 330.59766 145.83203 A 20.297935 20.297928 0 0 1 330.9082 145.61523 A 20.297935 20.297928 0 0 1 331.22266 145.4043 A 20.297935 20.297928 0 0 1 331.54102 145.19922 A 20.297935 20.297928 0 0 1 331.86328 145 A 20.297935 20.297928 0 0 1 332.18945 144.80664 A 20.297935 20.297928 0 0 1 332.51953 144.62109 A 20.297935 20.297928 0 0 1 332.85156 144.43945 A 20.297935 20.297928 0 0 1 333.1875 144.26562 A 20.297935 20.297928 0 0 1 333.52734 144.09766 A 20.297935 20.297928 0 0 1 333.87109 143.93555 A 20.297935 20.297928 0 0 1 334.21484 143.7793 A 20.297935 20.297928 0 0 1 334.56445 143.63086 A 20.297935 20.297928 0 0 1 334.91406 143.48828 A 20.297935 20.297928 0 0 1 335.26953 143.35156 A 20.297935 20.297928 0 0 1 335.625 143.22266 A 20.297935 20.297928 0 0 1 335.98242 143.09961 A 20.297935 20.297928 0 0 1 336.34375 142.98438 A 20.297935 20.297928 0 0 1 336.70703 142.875 A 20.297935 20.297928 0 0 1 337.07227 142.77344 A 20.297935 20.297928 0 0 1 337.4375 142.67773 A 20.297935 20.297928 0 0 1 337.80664 142.58789 A 20.297935 20.297928 0 0 1 338.17578 142.50586 A 20.297935 20.297928 0 0 1 338.54688 142.43164 A 20.297935 20.297928 0 0 1 338.91992 142.36328 A 20.297935 20.297928 0 0 1 339.29492 142.30273 A 20.297935 20.297928 0 0 1 339.66992 142.24805 A 20.297935 20.297928 0 0 1 340.04492 142.20117 A 20.297935 20.297928 0 0 1 340.42188 142.16211 A 20.297935 20.297928 0 0 1 340.79883 142.12891 A 20.297935 20.297928 0 0 1 341.17773 142.10352 A 20.297935 20.297928 0 0 1 341.55469 142.08398 A 20.297935 20.297928 0 0 1 341.93359 142.07227 A 20.297935 20.297928 0 0 1 342.3125 142.06836 z M 250 181.45312 A 68.545949 68.545949 0 0 1 250.69531 181.45703 A 68.545949 68.545949 0 0 1 251.39258 181.46875 A 68.545949 68.545949 0 0 1 252.08789 181.48633 A 68.545949 68.545949 0 0 1 252.7832 181.50977 A 68.545949 68.545949 0 0 1 253.48047 181.54297 A 68.545949 68.545949 0 0 1 254.17383 181.58203 A 68.545949 68.545949 0 0 1 254.86914 181.62695 A 68.545949 68.545949 0 0 1 255.5625 181.67969 A 68.545949 68.545949 0 0 1 256.25781 181.74023 A 68.545949 68.545949 0 0 1 256.94922 181.80664 A 68.545949 68.545949 0 0 1 257.64258 181.88086 A 68.545949 68.545949 0 0 1 258.33398 181.96289 A 68.545949 68.545949 0 0 1 259.02344 182.05078 A 68.545949 68.545949 0 0 1 259.71484 182.14648 A 68.545949 68.545949 0 0 1 260.40234 182.24805 A 68.545949 68.545949 0 0 1 261.08984 182.35742 A 68.545949 68.545949 0 0 1 261.77734 182.47266 A 68.545949 68.545949 0 0 1 262.46094 182.5957 A 68.545949 68.545949 0 0 1 263.14648 182.72656 A 68.545949 68.545949 0 0 1 263.82812 182.86328 A 68.545949 68.545949 0 0 1 264.50977 183.00781 A 68.545949 68.545949 0 0 1 265.18945 183.1582 A 68.545949 68.545949 0 0 1 265.86719 183.31641 A 68.545949 68.545949 0 0 1 266.54297 183.48047 A 68.545949 68.545949 0 0 1 267.21875 183.65234 A 68.545949 68.545949 0 0 1 267.89062 183.83008 A 68.545949 68.545949 0 0 1 268.5625 184.01562 A 68.545949 68.545949 0 0 1 269.23242 184.20703 A 68.545949 68.545949 0 0 1 269.89844 184.40625 A 68.545949 68.545949 0 0 1 270.56445 184.61133 A 68.545949 68.545949 0 0 1 271.22656 184.82422 A 68.545949 68.545949 0 0 1 271.88867 185.04297 A 68.545949 68.545949 0 0 1 272.54688 185.26758 A 68.545949 68.545949 0 0 1 273.20312 185.5 A 68.545949 68.545949 0 0 1 273.85742 185.74023 A 68.545949 68.545949 0 0 1 274.50781 185.98438 A 68.545949 68.545949 0 0 1 275.1582 186.23828 A 68.545949 68.545949 0 0 1 275.80273 186.49609 A 68.545949 68.545949 0 0 1 276.44727 186.76172 A 68.545949 68.545949 0 0 1 277.08789 187.0332 A 68.545949 68.545949 0 0 1 277.72656 187.3125 A 68.545949 68.545949 0 0 1 278.36133 187.59766 A 68.545949 68.545949 0 0 1 278.99414 187.88867 A 68.545949 68.545949 0 0 1 279.62305 188.18555 A 68.545949 68.545949 0 0 1 280.25 188.49023 A 68.545949 68.545949 0 0 1 280.87305 188.80078 A 68.545949 68.545949 0 0 1 281.49219 189.11719 A 68.545949 68.545949 0 0 1 282.10938 189.43945 A 68.545949 68.545949 0 0 1 282.72266 189.76953 A 68.545949 68.545949 0 0 1 283.33203 190.10547 A 68.545949 68.545949 0 0 1 283.93945 190.44531 A 68.545949 68.545949 0 0 1 284.54297 190.79492 A 68.545949 68.545949 0 0 1 285.14258 191.14844 A 68.545949 68.545949 0 0 1 285.73828 191.50781 A 68.545949 68.545949 0 0 1 286.33008 191.87305 A 68.545949 68.545949 0 0 1 286.91797 192.24609 A 68.545949 68.545949 0 0 1 287.50391 192.62305 A 68.545949 68.545949 0 0 1 288.08398 193.00781 A 68.545949 68.545949 0 0 1 288.66211 193.39648 A 68.545949 68.545949 0 0 1 289.23438 193.79297 A 68.545949 68.545949 0 0 1 289.80273 194.19336 A 68.545949 68.545949 0 0 1 290.36719 194.60156 A 68.545949 68.545949 0 0 1 290.92773 195.01367 A 68.545949 68.545949 0 0 1 291.48438 195.43359 A 68.545949 68.545949 0 0 1 292.03711 195.85742 A 68.545949 68.545949 0 0 1 292.58398 196.28711 A 68.545949 68.545949 0 0 1 293.12695 196.72266 A 68.545949 68.545949 0 0 1 293.66602 197.16211 A 68.545949 68.545949 0 0 1 294.20117 197.60938 A 68.545949 68.545949 0 0 1 294.73047 198.06055 A 68.545949 68.545949 0 0 1 295.25586 198.51758 A 68.545949 68.545949 0 0 1 295.77734 198.98047 A 68.545949 68.545949 0 0 1 296.29297 199.44727 A 68.545949 68.545949 0 0 1 296.80273 199.91992 A 68.545949 68.545949 0 0 1 297.31055 200.39844 A 68.545949 68.545949 0 0 1 297.81055 200.88086 A 68.545949 68.545949 0 0 1 298.30664 201.36914 A 68.545949 68.545949 0 0 1 298.79883 201.86328 A 68.545949 68.545949 0 0 1 299.28516 202.36133 A 68.545949 68.545949 0 0 1 299.76562 202.86328 A 68.545949 68.545949 0 0 1 300.24219 203.37109 A 68.545949 68.545949 0 0 1 300.71289 203.88477 A 68.545949 68.545949 0 0 1 301.17969 204.40234 A 68.545949 68.545949 0 0 1 301.64062 204.92383 A 68.545949 68.545949 0 0 1 302.0957 205.45117 A 68.545949 68.545949 0 0 1 302.54492 205.98242 A 68.545949 68.545949 0 0 1 302.99023 206.51758 A 68.545949 68.545949 0 0 1 303.42773 207.05859 A 68.545949 68.545949 0 0 1 303.86133 207.60352 A 68.545949 68.545949 0 0 1 304.28906 208.15234 A 68.545949 68.545949 0 0 1 304.71094 208.70508 A 68.545949 68.545949 0 0 1 305.12891 209.26367 A 68.545949 68.545949 0 0 1 305.53906 209.82617 A 68.545949 68.545949 0 0 1 305.94336 210.39258 A 68.545949 68.545949 0 0 1 306.34375 210.96289 A 68.545949 68.545949 0 0 1 306.73633 211.53711 A 68.545949 68.545949 0 0 1 307.125 212.11523 A 68.545949 68.545949 0 0 1 307.50586 212.69727 A 68.545949 68.545949 0 0 1 307.88281 213.2832 A 68.545949 68.545949 0 0 1 308.25195 213.87305 A 68.545949 68.545949 0 0 1 308.61719 214.4668 A 68.545949 68.545949 0 0 1 308.97461 215.0625 A 68.545949 68.545949 0 0 1 309.32617 215.66406 A 68.545949 68.545949 0 0 1 309.67188 216.26758 A 68.545949 68.545949 0 0 1 310.01172 216.87695 A 68.545949 68.545949 0 0 1 310.34375 217.48828 A 68.545949 68.545949 0 0 1 310.67188 218.10156 A 68.545949 68.545949 0 0 1 310.99219 218.7207 A 68.545949 68.545949 0 0 1 311.30664 219.3418 A 68.545949 68.545949 0 0 1 311.61523 219.96484 A 68.545949 68.545949 0 0 1 311.91797 220.5918 A 68.545949 68.545949 0 0 1 312.21289 221.22266 A 68.545949 68.545949 0 0 1 312.50195 221.85547 A 68.545949 68.545949 0 0 1 312.78516 222.49219 A 68.545949 68.545949 0 0 1 313.06055 223.13086 A 68.545949 68.545949 0 0 1 313.33008 223.77344 A 68.545949 68.545949 0 0 1 313.59375 224.41797 A 68.545949 68.545949 0 0 1 313.84961 225.06445 A 68.545949 68.545949 0 0 1 314.09961 225.71484 A 68.545949 68.545949 0 0 1 314.34375 226.36719 A 68.545949 68.545949 0 0 1 314.58008 227.02148 A 68.545949 68.545949 0 0 1 314.81055 227.67969 A 68.545949 68.545949 0 0 1 315.0332 228.33789 A 68.545949 68.545949 0 0 1 315.25 229 A 68.545949 68.545949 0 0 1 315.45898 229.66406 A 68.545949 68.545949 0 0 1 315.66211 230.33008 A 68.545949 68.545949 0 0 1 315.85938 230.99805 A 68.545949 68.545949 0 0 1 316.04883 231.66797 A 68.545949 68.545949 0 0 1 316.23242 232.33984 A 68.545949 68.545949 0 0 1 316.4082 233.01367 A 68.545949 68.545949 0 0 1 316.57617 233.6875 A 68.545949 68.545949 0 0 1 316.73828 234.36523 A 68.545949 68.545949 0 0 1 316.89453 235.04492 A 68.545949 68.545949 0 0 1 317.04297 235.72461 A 68.545949 68.545949 0 0 1 317.18359 236.40625 A 68.545949 68.545949 0 0 1 317.31836 237.08984 A 68.545949 68.545949 0 0 1 317.44727 237.77344 A 68.545949 68.545949 0 0 1 317.56836 238.45898 A 68.545949 68.545949 0 0 1 317.68164 239.14648 A 68.545949 68.545949 0 0 1 317.78711 239.83398 A 68.545949 68.545949 0 0 1 317.88672 240.52344 A 68.545949 68.545949 0 0 1 317.98047 241.21289 A 68.545949 68.545949 0 0 1 318.06641 241.9043 A 68.545949 68.545949 0 0 1 318.14453 242.5957 A 68.545949 68.545949 0 0 1 318.2168 243.28711 A 68.545949 68.545949 0 0 1 318.28125 243.98047 A 68.545949 68.545949 0 0 1 318.33789 244.67578 A 68.545949 68.545949 0 0 1 318.38867 245.36914 A 68.545949 68.545949 0 0 1 318.43359 246.06445 A 68.545949 68.545949 0 0 1 318.46875 246.75977 A 68.545949 68.545949 0 0 1 318.49805 247.45508 A 68.545949 68.545949 0 0 1 318.52148 248.15039 A 68.545949 68.545949 0 0 1 318.53711 248.84766 A 68.545949 68.545949 0 0 1 318.54492 249.54297 A 68.545949 68.545949 0 0 1 318.54688 250 A 68.545949 68.545949 0 0 1 318.54297 250.69531 A 68.545949 68.545949 0 0 1 318.53125 251.39258 A 68.545949 68.545949 0 0 1 318.51367 252.08789 A 68.545949 68.545949 0 0 1 318.49023 252.7832 A 68.545949 68.545949 0 0 1 318.45703 253.48047 A 68.545949 68.545949 0 0 1 318.41797 254.17383 A 68.545949 68.545949 0 0 1 318.37305 254.86914 A 68.545949 68.545949 0 0 1 318.32031 255.5625 A 68.545949 68.545949 0 0 1 318.25977 256.25781 A 68.545949 68.545949 0 0 1 318.19336 256.94922 A 68.545949 68.545949 0 0 1 318.11914 257.64258 A 68.545949 68.545949 0 0 1 318.03711 258.33398 A 68.545949 68.545949 0 0 1 317.94922 259.02344 A 68.545949 68.545949 0 0 1 317.85352 259.71484 A 68.545949 68.545949 0 0 1 317.75195 260.40234 A 68.545949 68.545949 0 0 1 317.64258 261.08984 A 68.545949 68.545949 0 0 1 317.52734 261.77734 A 68.545949 68.545949 0 0 1 317.4043 262.46094 A 68.545949 68.545949 0 0 1 317.27344 263.14648 A 68.545949 68.545949 0 0 1 317.13672 263.82812 A 68.545949 68.545949 0 0 1 316.99219 264.50977 A 68.545949 68.545949 0 0 1 316.8418 265.18945 A 68.545949 68.545949 0 0 1 316.68359 265.86719 A 68.545949 68.545949 0 0 1 316.51953 266.54297 A 68.545949 68.545949 0 0 1 316.34766 267.21875 A 68.545949 68.545949 0 0 1 316.16992 267.89062 A 68.545949 68.545949 0 0 1 315.98438 268.5625 A 68.545949 68.545949 0 0 1 315.79297 269.23242 A 68.545949 68.545949 0 0 1 315.59375 269.89844 A 68.545949 68.545949 0 0 1 315.38867 270.56445 A 68.545949 68.545949 0 0 1 315.17578 271.22656 A 68.545949 68.545949 0 0 1 314.95703 271.88867 A 68.545949 68.545949 0 0 1 314.73242 272.54688 A 68.545949 68.545949 0 0 1 314.5 273.20312 A 68.545949 68.545949 0 0 1 314.25977 273.85742 A 68.545949 68.545949 0 0 1 314.01562 274.50781 A 68.545949 68.545949 0 0 1 313.76172 275.1582 A 68.545949 68.545949 0 0 1 313.50391 275.80273 A 68.545949 68.545949 0 0 1 313.23828 276.44727 A 68.545949 68.545949 0 0 1 312.9668 277.08789 A 68.545949 68.545949 0 0 1 312.6875 277.72656 A 68.545949 68.545949 0 0 1 312.40234 278.36133 A 68.545949 68.545949 0 0 1 312.11133 278.99414 A 68.545949 68.545949 0 0 1 311.81445 279.62305 A 68.545949 68.545949 0 0 1 311.50977 280.25 A 68.545949 68.545949 0 0 1 311.19922 280.87305 A 68.545949 68.545949 0 0 1 310.88281 281.49219 A 68.545949 68.545949 0 0 1 310.56055 282.10938 A 68.545949 68.545949 0 0 1 310.23047 282.72266 A 68.545949 68.545949 0 0 1 309.89453 283.33203 A 68.545949 68.545949 0 0 1 309.55469 283.93945 A 68.545949 68.545949 0 0 1 309.20508 284.54297 A 68.545949 68.545949 0 0 1 308.85156 285.14258 A 68.545949 68.545949 0 0 1 308.49219 285.73828 A 68.545949 68.545949 0 0 1 308.12695 286.33008 A 68.545949 68.545949 0 0 1 307.75391 286.91797 A 68.545949 68.545949 0 0 1 307.37695 287.50391 A 68.545949 68.545949 0 0 1 306.99219 288.08398 A 68.545949 68.545949 0 0 1 306.60352 288.66211 A 68.545949 68.545949 0 0 1 306.20703 289.23438 A 68.545949 68.545949 0 0 1 305.80664 289.80273 A 68.545949 68.545949 0 0 1 305.39844 290.36719 A 68.545949 68.545949 0 0 1 304.98633 290.92773 A 68.545949 68.545949 0 0 1 304.56641 291.48438 A 68.545949 68.545949 0 0 1 304.14258 292.03711 A 68.545949 68.545949 0 0 1 303.71289 292.58398 A 68.545949 68.545949 0 0 1 303.27734 293.12695 A 68.545949 68.545949 0 0 1 302.83789 293.66602 A 68.545949 68.545949 0 0 1 302.39062 294.20117 A 68.545949 68.545949 0 0 1 301.93945 294.73047 A 68.545949 68.545949 0 0 1 301.48242 295.25586 A 68.545949 68.545949 0 0 1 301.01953 295.77734 A 68.545949 68.545949 0 0 1 300.55273 296.29297 A 68.545949 68.545949 0 0 1 300.08008 296.80273 A 68.545949 68.545949 0 0 1 299.60156 297.31055 A 68.545949 68.545949 0 0 1 299.11914 297.81055 A 68.545949 68.545949 0 0 1 298.63086 298.30664 A 68.545949 68.545949 0 0 1 298.13672 298.79883 A 68.545949 68.545949 0 0 1 297.63867 299.28516 A 68.545949 68.545949 0 0 1 297.13672 299.76562 A 68.545949 68.545949 0 0 1 296.62891 300.24219 A 68.545949 68.545949 0 0 1 296.11523 300.71289 A 68.545949 68.545949 0 0 1 295.59766 301.17969 A 68.545949 68.545949 0 0 1 295.07617 301.64062 A 68.545949 68.545949 0 0 1 294.54883 302.0957 A 68.545949 68.545949 0 0 1 294.01758 302.54492 A 68.545949 68.545949 0 0 1 293.48242 302.99023 A 68.545949 68.545949 0 0 1 292.94141 303.42773 A 68.545949 68.545949 0 0 1 292.39648 303.86133 A 68.545949 68.545949 0 0 1 291.84766 304.28906 A 68.545949 68.545949 0 0 1 291.29492 304.71094 A 68.545949 68.545949 0 0 1 290.73633 305.12891 A 68.545949 68.545949 0 0 1 290.17383 305.53906 A 68.545949 68.545949 0 0 1 289.60742 305.94336 A 68.545949 68.545949 0 0 1 289.03711 306.34375 A 68.545949 68.545949 0 0 1 288.46289 306.73633 A 68.545949 68.545949 0 0 1 287.88477 307.125 A 68.545949 68.545949 0 0 1 287.30273 307.50586 A 68.545949 68.545949 0 0 1 286.7168 307.88281 A 68.545949 68.545949 0 0 1 286.12695 308.25195 A 68.545949 68.545949 0 0 1 285.5332 308.61719 A 68.545949 68.545949 0 0 1 284.9375 308.97461 A 68.545949 68.545949 0 0 1 284.33594 309.32617 A 68.545949 68.545949 0 0 1 283.73242 309.67188 A 68.545949 68.545949 0 0 1 283.12305 310.01172 A 68.545949 68.545949 0 0 1 282.51172 310.34375 A 68.545949 68.545949 0 0 1 281.89844 310.67188 A 68.545949 68.545949 0 0 1 281.2793 310.99219 A 68.545949 68.545949 0 0 1 280.6582 311.30664 A 68.545949 68.545949 0 0 1 280.03516 311.61523 A 68.545949 68.545949 0 0 1 279.4082 311.91797 A 68.545949 68.545949 0 0 1 278.77734 312.21289 A 68.545949 68.545949 0 0 1 278.14453 312.50195 A 68.545949 68.545949 0 0 1 277.50781 312.78516 A 68.545949 68.545949 0 0 1 276.86914 313.06055 A 68.545949 68.545949 0 0 1 276.22656 313.33008 A 68.545949 68.545949 0 0 1 275.58203 313.59375 A 68.545949 68.545949 0 0 1 274.93555 313.84961 A 68.545949 68.545949 0 0 1 274.28516 314.09961 A 68.545949 68.545949 0 0 1 273.63281 314.34375 A 68.545949 68.545949 0 0 1 272.97852 314.58008 A 68.545949 68.545949 0 0 1 272.32031 314.81055 A 68.545949 68.545949 0 0 1 271.66211 315.0332 A 68.545949 68.545949 0 0 1 271 315.25 A 68.545949 68.545949 0 0 1 270.33594 315.45898 A 68.545949 68.545949 0 0 1 269.66992 315.66211 A 68.545949 68.545949 0 0 1 269.00195 315.85938 A 68.545949 68.545949 0 0 1 268.33203 316.04883 A 68.545949 68.545949 0 0 1 267.66016 316.23242 A 68.545949 68.545949 0 0 1 266.98633 316.4082 A 68.545949 68.545949 0 0 1 266.3125 316.57617 A 68.545949 68.545949 0 0 1 265.63477 316.73828 A 68.545949 68.545949 0 0 1 264.95508 316.89453 A 68.545949 68.545949 0 0 1 264.27539 317.04297 A 68.545949 68.545949 0 0 1 263.59375 317.18359 A 68.545949 68.545949 0 0 1 262.91016 317.31836 A 68.545949 68.545949 0 0 1 262.22656 317.44727 A 68.545949 68.545949 0 0 1 261.54102 317.56836 A 68.545949 68.545949 0 0 1 260.85352 317.68164 A 68.545949 68.545949 0 0 1 260.16602 317.78711 A 68.545949 68.545949 0 0 1 259.47656 317.88672 A 68.545949 68.545949 0 0 1 258.78711 317.98047 A 68.545949 68.545949 0 0 1 258.0957 318.06641 A 68.545949 68.545949 0 0 1 257.4043 318.14453 A 68.545949 68.545949 0 0 1 256.71289 318.2168 A 68.545949 68.545949 0 0 1 256.01953 318.28125 A 68.545949 68.545949 0 0 1 255.32422 318.33789 A 68.545949 68.545949 0 0 1 254.63086 318.38867 A 68.545949 68.545949 0 0 1 253.93555 318.43359 A 68.545949 68.545949 0 0 1 253.24023 318.46875 A 68.545949 68.545949 0 0 1 252.54492 318.49805 A 68.545949 68.545949 0 0 1 251.84961 318.52148 A 68.545949 68.545949 0 0 1 251.15234 318.53711 A 68.545949 68.545949 0 0 1 250.45703 318.54492 A 68.545949 68.545949 0 0 1 250 318.54688 A 68.545949 68.545949 0 0 1 249.30469 318.54297 A 68.545949 68.545949 0 0 1 248.60742 318.53125 A 68.545949 68.545949 0 0 1 247.91211 318.51367 A 68.545949 68.545949 0 0 1 247.2168 318.49023 A 68.545949 68.545949 0 0 1 246.52148 318.45703 A 68.545949 68.545949 0 0 1 245.82617 318.41797 A 68.545949 68.545949 0 0 1 245.13086 318.37305 A 68.545949 68.545949 0 0 1 244.4375 318.32031 A 68.545949 68.545949 0 0 1 243.74219 318.25977 A 68.545949 68.545949 0 0 1 243.05078 318.19336 A 68.545949 68.545949 0 0 1 242.35742 318.11914 A 68.545949 68.545949 0 0 1 241.66602 318.03711 A 68.545949 68.545949 0 0 1 240.97656 317.94922 A 68.545949 68.545949 0 0 1 240.28516 317.85352 A 68.545949 68.545949 0 0 1 239.59766 317.75195 A 68.545949 68.545949 0 0 1 238.91016 317.64258 A 68.545949 68.545949 0 0 1 238.22266 317.52734 A 68.545949 68.545949 0 0 1 237.53906 317.4043 A 68.545949 68.545949 0 0 1 236.85352 317.27344 A 68.545949 68.545949 0 0 1 236.17188 317.13672 A 68.545949 68.545949 0 0 1 235.49023 316.99219 A 68.545949 68.545949 0 0 1 234.81055 316.8418 A 68.545949 68.545949 0 0 1 234.13281 316.68359 A 68.545949 68.545949 0 0 1 233.45703 316.51953 A 68.545949 68.545949 0 0 1 232.78125 316.34766 A 68.545949 68.545949 0 0 1 232.10938 316.16992 A 68.545949 68.545949 0 0 1 231.4375 315.98438 A 68.545949 68.545949 0 0 1 230.76758 315.79297 A 68.545949 68.545949 0 0 1 230.10156 315.59375 A 68.545949 68.545949 0 0 1 229.43555 315.38867 A 68.545949 68.545949 0 0 1 228.77344 315.17578 A 68.545949 68.545949 0 0 1 228.11133 314.95703 A 68.545949 68.545949 0 0 1 227.45312 314.73242 A 68.545949 68.545949 0 0 1 226.79688 314.5 A 68.545949 68.545949 0 0 1 226.14258 314.25977 A 68.545949 68.545949 0 0 1 225.49219 314.01562 A 68.545949 68.545949 0 0 1 224.8418 313.76172 A 68.545949 68.545949 0 0 1 224.19727 313.50391 A 68.545949 68.545949 0 0 1 223.55273 313.23828 A 68.545949 68.545949 0 0 1 222.91211 312.9668 A 68.545949 68.545949 0 0 1 222.27344 312.6875 A 68.545949 68.545949 0 0 1 221.63867 312.40234 A 68.545949 68.545949 0 0 1 221.00586 312.11133 A 68.545949 68.545949 0 0 1 220.37695 311.81445 A 68.545949 68.545949 0 0 1 219.75 311.50977 A 68.545949 68.545949 0 0 1 219.12695 311.19922 A 68.545949 68.545949 0 0 1 218.50781 310.88281 A 68.545949 68.545949 0 0 1 217.89062 310.56055 A 68.545949 68.545949 0 0 1 217.27734 310.23047 A 68.545949 68.545949 0 0 1 216.66797 309.89453 A 68.545949 68.545949 0 0 1 216.06055 309.55469 A 68.545949 68.545949 0 0 1 215.45703 309.20508 A 68.545949 68.545949 0 0 1 214.85742 308.85156 A 68.545949 68.545949 0 0 1 214.26172 308.49219 A 68.545949 68.545949 0 0 1 213.66992 308.12695 A 68.545949 68.545949 0 0 1 213.08203 307.75391 A 68.545949 68.545949 0 0 1 212.49609 307.37695 A 68.545949 68.545949 0 0 1 211.91602 306.99219 A 68.545949 68.545949 0 0 1 211.33789 306.60352 A 68.545949 68.545949 0 0 1 210.76562 306.20703 A 68.545949 68.545949 0 0 1 210.19727 305.80664 A 68.545949 68.545949 0 0 1 209.63281 305.39844 A 68.545949 68.545949 0 0 1 209.07227 304.98633 A 68.545949 68.545949 0 0 1 208.51562 304.56641 A 68.545949 68.545949 0 0 1 207.96289 304.14258 A 68.545949 68.545949 0 0 1 207.41602 303.71289 A 68.545949 68.545949 0 0 1 206.87305 303.27734 A 68.545949 68.545949 0 0 1 206.33398 302.83789 A 68.545949 68.545949 0 0 1 205.79883 302.39062 A 68.545949 68.545949 0 0 1 205.26953 301.93945 A 68.545949 68.545949 0 0 1 204.74414 301.48242 A 68.545949 68.545949 0 0 1 204.22266 301.01953 A 68.545949 68.545949 0 0 1 203.70703 300.55273 A 68.545949 68.545949 0 0 1 203.19727 300.08008 A 68.545949 68.545949 0 0 1 202.68945 299.60156 A 68.545949 68.545949 0 0 1 202.18945 299.11914 A 68.545949 68.545949 0 0 1 201.69336 298.63086 A 68.545949 68.545949 0 0 1 201.20117 298.13672 A 68.545949 68.545949 0 0 1 200.71484 297.63867 A 68.545949 68.545949 0 0 1 200.23438 297.13672 A 68.545949 68.545949 0 0 1 199.75781 296.62891 A 68.545949 68.545949 0 0 1 199.28711 296.11523 A 68.545949 68.545949 0 0 1 198.82031 295.59766 A 68.545949 68.545949 0 0 1 198.35938 295.07617 A 68.545949 68.545949 0 0 1 197.9043 294.54883 A 68.545949 68.545949 0 0 1 197.45508 294.01758 A 68.545949 68.545949 0 0 1 197.01172 293.48242 A 68.545949 68.545949 0 0 1 196.57227 292.94141 A 68.545949 68.545949 0 0 1 196.13867 292.39648 A 68.545949 68.545949 0 0 1 195.71094 291.84766 A 68.545949 68.545949 0 0 1 195.28906 291.29492 A 68.545949 68.545949 0 0 1 194.87109 290.73633 A 68.545949 68.545949 0 0 1 194.46094 290.17383 A 68.545949 68.545949 0 0 1 194.05664 289.60742 A 68.545949 68.545949 0 0 1 193.65625 289.03711 A 68.545949 68.545949 0 0 1 193.26367 288.46289 A 68.545949 68.545949 0 0 1 192.875 287.88477 A 68.545949 68.545949 0 0 1 192.49414 287.30273 A 68.545949 68.545949 0 0 1 192.11719 286.7168 A 68.545949 68.545949 0 0 1 191.74805 286.12695 A 68.545949 68.545949 0 0 1 191.38281 285.5332 A 68.545949 68.545949 0 0 1 191.02539 284.9375 A 68.545949 68.545949 0 0 1 190.67383 284.33594 A 68.545949 68.545949 0 0 1 190.32812 283.73242 A 68.545949 68.545949 0 0 1 189.98828 283.12305 A 68.545949 68.545949 0 0 1 189.65625 282.51172 A 68.545949 68.545949 0 0 1 189.32812 281.89844 A 68.545949 68.545949 0 0 1 189.00781 281.2793 A 68.545949 68.545949 0 0 1 188.69336 280.6582 A 68.545949 68.545949 0 0 1 188.38477 280.03516 A 68.545949 68.545949 0 0 1 188.08203 279.4082 A 68.545949 68.545949 0 0 1 187.78711 278.77734 A 68.545949 68.545949 0 0 1 187.49805 278.14453 A 68.545949 68.545949 0 0 1 187.21484 277.50781 A 68.545949 68.545949 0 0 1 186.93945 276.86914 A 68.545949 68.545949 0 0 1 186.66992 276.22656 A 68.545949 68.545949 0 0 1 186.40625 275.58203 A 68.545949 68.545949 0 0 1 186.15039 274.93555 A 68.545949 68.545949 0 0 1 185.90039 274.28516 A 68.545949 68.545949 0 0 1 185.65625 273.63281 A 68.545949 68.545949 0 0 1 185.41992 272.97852 A 68.545949 68.545949 0 0 1 185.18945 272.32031 A 68.545949 68.545949 0 0 1 184.9668 271.66211 A 68.545949 68.545949 0 0 1 184.75 271 A 68.545949 68.545949 0 0 1 184.54102 270.33594 A 68.545949 68.545949 0 0 1 184.33789 269.66992 A 68.545949 68.545949 0 0 1 184.14062 269.00195 A 68.545949 68.545949 0 0 1 183.95117 268.33203 A 68.545949 68.545949 0 0 1 183.76758 267.66016 A 68.545949 68.545949 0 0 1 183.5918 266.98633 A 68.545949 68.545949 0 0 1 183.42383 266.3125 A 68.545949 68.545949 0 0 1 183.26172 265.63477 A 68.545949 68.545949 0 0 1 183.10547 264.95508 A 68.545949 68.545949 0 0 1 182.95703 264.27539 A 68.545949 68.545949 0 0 1 182.81641 263.59375 A 68.545949 68.545949 0 0 1 182.68164 262.91016 A 68.545949 68.545949 0 0 1 182.55273 262.22656 A 68.545949 68.545949 0 0 1 182.43359 261.54102 A 68.545949 68.545949 0 0 1 182.31836 260.85352 A 68.545949 68.545949 0 0 1 182.21289 260.16602 A 68.545949 68.545949 0 0 1 182.11328 259.47656 A 68.545949 68.545949 0 0 1 182.01953 258.78711 A 68.545949 68.545949 0 0 1 181.93359 258.0957 A 68.545949 68.545949 0 0 1 181.85547 257.4043 A 68.545949 68.545949 0 0 1 181.7832 256.71289 A 68.545949 68.545949 0 0 1 181.71875 256.01953 A 68.545949 68.545949 0 0 1 181.66211 255.32422 A 68.545949 68.545949 0 0 1 181.61133 254.63086 A 68.545949 68.545949 0 0 1 181.56641 253.93555 A 68.545949 68.545949 0 0 1 181.53125 253.24023 A 68.545949 68.545949 0 0 1 181.50195 252.54492 A 68.545949 68.545949 0 0 1 181.47852 251.84961 A 68.545949 68.545949 0 0 1 181.46289 251.15234 A 68.545949 68.545949 0 0 1 181.45508 250.45703 A 68.545949 68.545949 0 0 1 181.45312 250 A 68.545949 68.545949 0 0 1 181.45703 249.30469 A 68.545949 68.545949 0 0 1 181.46875 248.60742 A 68.545949 68.545949 0 0 1 181.48633 247.91211 A 68.545949 68.545949 0 0 1 181.50977 247.2168 A 68.545949 68.545949 0 0 1 181.54297 246.52148 A 68.545949 68.545949 0 0 1 181.58203 245.82617 A 68.545949 68.545949 0 0 1 181.62695 245.13086 A 68.545949 68.545949 0 0 1 181.67969 244.4375 A 68.545949 68.545949 0 0 1 181.74023 243.74219 A 68.545949 68.545949 0 0 1 181.80664 243.05078 A 68.545949 68.545949 0 0 1 181.88086 242.35742 A 68.545949 68.545949 0 0 1 181.96289 241.66602 A 68.545949 68.545949 0 0 1 182.05078 240.97656 A 68.545949 68.545949 0 0 1 182.14648 240.28516 A 68.545949 68.545949 0 0 1 182.24805 239.59766 A 68.545949 68.545949 0 0 1 182.35742 238.91016 A 68.545949 68.545949 0 0 1 182.47266 238.22266 A 68.545949 68.545949 0 0 1 182.5957 237.53906 A 68.545949 68.545949 0 0 1 182.72656 236.85352 A 68.545949 68.545949 0 0 1 182.86328 236.17188 A 68.545949 68.545949 0 0 1 183.00781 235.49023 A 68.545949 68.545949 0 0 1 183.1582 234.81055 A 68.545949 68.545949 0 0 1 183.31641 234.13281 A 68.545949 68.545949 0 0 1 183.48047 233.45703 A 68.545949 68.545949 0 0 1 183.65234 232.78125 A 68.545949 68.545949 0 0 1 183.83008 232.10938 A 68.545949 68.545949 0 0 1 184.01562 231.4375 A 68.545949 68.545949 0 0 1 184.20703 230.76758 A 68.545949 68.545949 0 0 1 184.40625 230.10156 A 68.545949 68.545949 0 0 1 184.61133 229.43555 A 68.545949 68.545949 0 0 1 184.82422 228.77344 A 68.545949 68.545949 0 0 1 185.04297 228.11133 A 68.545949 68.545949 0 0 1 185.26758 227.45312 A 68.545949 68.545949 0 0 1 185.5 226.79688 A 68.545949 68.545949 0 0 1 185.74023 226.14258 A 68.545949 68.545949 0 0 1 185.98438 225.49219 A 68.545949 68.545949 0 0 1 186.23828 224.8418 A 68.545949 68.545949 0 0 1 186.49609 224.19727 A 68.545949 68.545949 0 0 1 186.76172 223.55273 A 68.545949 68.545949 0 0 1 187.0332 222.91211 A 68.545949 68.545949 0 0 1 187.3125 222.27344 A 68.545949 68.545949 0 0 1 187.59766 221.63867 A 68.545949 68.545949 0 0 1 187.88867 221.00586 A 68.545949 68.545949 0 0 1 188.18555 220.37695 A 68.545949 68.545949 0 0 1 188.49023 219.75 A 68.545949 68.545949 0 0 1 188.80078 219.12695 A 68.545949 68.545949 0 0 1 189.11719 218.50781 A 68.545949 68.545949 0 0 1 189.43945 217.89062 A 68.545949 68.545949 0 0 1 189.76953 217.27734 A 68.545949 68.545949 0 0 1 190.10547 216.66797 A 68.545949 68.545949 0 0 1 190.44531 216.06055 A 68.545949 68.545949 0 0 1 190.79492 215.45703 A 68.545949 68.545949 0 0 1 191.14844 214.85742 A 68.545949 68.545949 0 0 1 191.50781 214.26172 A 68.545949 68.545949 0 0 1 191.87305 213.66992 A 68.545949 68.545949 0 0 1 192.24609 213.08203 A 68.545949 68.545949 0 0 1 192.62305 212.49609 A 68.545949 68.545949 0 0 1 193.00781 211.91602 A 68.545949 68.545949 0 0 1 193.39648 211.33789 A 68.545949 68.545949 0 0 1 193.79297 210.76562 A 68.545949 68.545949 0 0 1 194.19336 210.19727 A 68.545949 68.545949 0 0 1 194.60156 209.63281 A 68.545949 68.545949 0 0 1 195.01367 209.07227 A 68.545949 68.545949 0 0 1 195.43359 208.51562 A 68.545949 68.545949 0 0 1 195.85742 207.96289 A 68.545949 68.545949 0 0 1 196.28711 207.41602 A 68.545949 68.545949 0 0 1 196.72266 206.87305 A 68.545949 68.545949 0 0 1 197.16211 206.33398 A 68.545949 68.545949 0 0 1 197.60938 205.79883 A 68.545949 68.545949 0 0 1 198.06055 205.26953 A 68.545949 68.545949 0 0 1 198.51758 204.74414 A 68.545949 68.545949 0 0 1 198.98047 204.22266 A 68.545949 68.545949 0 0 1 199.44727 203.70703 A 68.545949 68.545949 0 0 1 199.91992 203.19727 A 68.545949 68.545949 0 0 1 200.39844 202.68945 A 68.545949 68.545949 0 0 1 200.88086 202.18945 A 68.545949 68.545949 0 0 1 201.36914 201.69336 A 68.545949 68.545949 0 0 1 201.86328 201.20117 A 68.545949 68.545949 0 0 1 202.36133 200.71484 A 68.545949 68.545949 0 0 1 202.86328 200.23438 A 68.545949 68.545949 0 0 1 203.37109 199.75781 A 68.545949 68.545949 0 0 1 203.88477 199.28711 A 68.545949 68.545949 0 0 1 204.40234 198.82031 A 68.545949 68.545949 0 0 1 204.92383 198.35938 A 68.545949 68.545949 0 0 1 205.45117 197.9043 A 68.545949 68.545949 0 0 1 205.98242 197.45508 A 68.545949 68.545949 0 0 1 206.51758 197.01172 A 68.545949 68.545949 0 0 1 207.05859 196.57227 A 68.545949 68.545949 0 0 1 207.60352 196.13867 A 68.545949 68.545949 0 0 1 208.15234 195.71094 A 68.545949 68.545949 0 0 1 208.70508 195.28906 A 68.545949 68.545949 0 0 1 209.26367 194.87109 A 68.545949 68.545949 0 0 1 209.82617 194.46094 A 68.545949 68.545949 0 0 1 210.39258 194.05664 A 68.545949 68.545949 0 0 1 210.96289 193.65625 A 68.545949 68.545949 0 0 1 211.53711 193.26367 A 68.545949 68.545949 0 0 1 212.11523 192.875 A 68.545949 68.545949 0 0 1 212.69727 192.49414 A 68.545949 68.545949 0 0 1 213.2832 192.11719 A 68.545949 68.545949 0 0 1 213.87305 191.74805 A 68.545949 68.545949 0 0 1 214.4668 191.38281 A 68.545949 68.545949 0 0 1 215.0625 191.02539 A 68.545949 68.545949 0 0 1 215.66406 190.67383 A 68.545949 68.545949 0 0 1 216.26758 190.32812 A 68.545949 68.545949 0 0 1 216.87695 189.98828 A 68.545949 68.545949 0 0 1 217.48828 189.65625 A 68.545949 68.545949 0 0 1 218.10156 189.32812 A 68.545949 68.545949 0 0 1 218.7207 189.00781 A 68.545949 68.545949 0 0 1 219.3418 188.69336 A 68.545949 68.545949 0 0 1 219.96484 188.38477 A 68.545949 68.545949 0 0 1 220.5918 188.08203 A 68.545949 68.545949 0 0 1 221.22266 187.78711 A 68.545949 68.545949 0 0 1 221.85547 187.49805 A 68.545949 68.545949 0 0 1 222.49219 187.21484 A 68.545949 68.545949 0 0 1 223.13086 186.93945 A 68.545949 68.545949 0 0 1 223.77344 186.66992 A 68.545949 68.545949 0 0 1 224.41797 186.40625 A 68.545949 68.545949 0 0 1 225.06445 186.15039 A 68.545949 68.545949 0 0 1 225.71484 185.90039 A 68.545949 68.545949 0 0 1 226.36719 185.65625 A 68.545949 68.545949 0 0 1 227.02148 185.41992 A 68.545949 68.545949 0 0 1 227.67969 185.18945 A 68.545949 68.545949 0 0 1 228.33789 184.9668 A 68.545949 68.545949 0 0 1 229 184.75 A 68.545949 68.545949 0 0 1 229.66406 184.54102 A 68.545949 68.545949 0 0 1 230.33008 184.33789 A 68.545949 68.545949 0 0 1 230.99805 184.14062 A 68.545949 68.545949 0 0 1 231.66797 183.95117 A 68.545949 68.545949 0 0 1 232.33984 183.76758 A 68.545949 68.545949 0 0 1 233.01367 183.5918 A 68.545949 68.545949 0 0 1 233.6875 183.42383 A 68.545949 68.545949 0 0 1 234.36523 183.26172 A 68.545949 68.545949 0 0 1 235.04492 183.10547 A 68.545949 68.545949 0 0 1 235.72461 182.95703 A 68.545949 68.545949 0 0 1 236.40625 182.81641 A 68.545949 68.545949 0 0 1 237.08984 182.68164 A 68.545949 68.545949 0 0 1 237.77344 182.55273 A 68.545949 68.545949 0 0 1 238.45898 182.43359 A 68.545949 68.545949 0 0 1 239.14648 182.31836 A 68.545949 68.545949 0 0 1 239.83398 182.21289 A 68.545949 68.545949 0 0 1 240.52344 182.11328 A 68.545949 68.545949 0 0 1 241.21289 182.01953 A 68.545949 68.545949 0 0 1 241.9043 181.93359 A 68.545949 68.545949 0 0 1 242.5957 181.85547 A 68.545949 68.545949 0 0 1 243.28711 181.7832 A 68.545949 68.545949 0 0 1 243.98047 181.71875 A 68.545949 68.545949 0 0 1 244.67578 181.66211 A 68.545949 68.545949 0 0 1 245.36914 181.61133 A 68.545949 68.545949 0 0 1 246.06445 181.56641 A 68.545949 68.545949 0 0 1 246.75977 181.53125 A 68.545949 68.545949 0 0 1 247.45508 181.50195 A 68.545949 68.545949 0 0 1 248.15039 181.47852 A 68.545949 68.545949 0 0 1 248.84766 181.46289 A 68.545949 68.545949 0 0 1 249.54297 181.45508 A 68.545949 68.545949 0 0 1 250 181.45312 z "
         transform="scale(0.26458333)" />
      <path
         id="path3467"
         style="fill:#000000;stroke-width:26.3125"
         d="M 249.52539 0 A 250.00001 250.00001 0 0 0 0 250 A 250.00001 250.00001 0 0 0 250 500 A 250.00001 250.00001 0 0 0 500 250 A 250.00001 250.00001 0 0 0 250 0 A 250.00001 250.00001 0 0 0 249.52539 0 z M 169.83789 86.306641 L 330.16211 86.306641 C 333.05435 86.306641 335.91169 86.45217 338.72656 86.736328 C 341.54143 87.020487 344.3134 87.443516 347.03711 87.998047 C 349.76082 88.552578 352.43592 89.239663 355.05469 90.050781 C 357.67346 90.861899 360.23629 91.797643 362.73633 92.851562 C 365.23637 93.905482 367.67349 95.07644 370.04102 96.359375 C 372.40854 97.64231 374.70651 99.036992 376.92773 100.53516 C 379.14896 102.03332 381.29433 103.63633 383.35547 105.33594 C 385.41661 107.03555 387.39398 108.83148 389.28125 110.71875 C 391.16852 112.60602 392.96445 114.58339 394.66406 116.64453 C 396.36367 118.70567 397.96668 120.85104 399.46484 123.07227 C 400.96301 125.29349 402.35769 127.59146 403.64062 129.95898 C 404.92356 132.32651 406.09452 134.76363 407.14844 137.26367 C 408.20236 139.76371 409.1381 142.32654 409.94922 144.94531 C 410.76034 147.56408 411.44742 150.23918 412.00195 152.96289 C 412.55648 155.6866 412.97951 158.45857 413.26367 161.27344 C 413.54783 164.08831 413.69336 166.94565 413.69336 169.83789 L 413.69336 330.16211 C 413.69336 333.05435 413.54783 335.91169 413.26367 338.72656 C 412.97951 341.54143 412.55648 344.3134 412.00195 347.03711 C 411.44742 349.76082 410.76034 352.43592 409.94922 355.05469 C 409.1381 357.67346 408.20236 360.23629 407.14844 362.73633 C 406.09452 365.23637 404.92356 367.67349 403.64062 370.04102 C 402.35769 372.40854 400.96301 374.70651 399.46484 376.92773 C 397.96668 379.14896 396.36367 381.29433 394.66406 383.35547 C 392.96445 385.41661 391.16852 387.39398 389.28125 389.28125 C 387.39398 391.16852 385.41661 392.96445 383.35547 394.66406 C 381.29433 396.36367 379.14896 397.96668 376.92773 399.46484 C 374.70651 400.96301 372.40854 402.35769 370.04102 403.64062 C 367.67349 404.92356 365.23637 406.09452 362.73633 407.14844 C 360.23629 408.20236 357.67346 409.1381 355.05469 409.94922 C 352.43592 410.76034 349.76082 411.44742 347.03711 412.00195 C 344.3134 412.55648 341.54143 412.97951 338.72656 413.26367 C 335.91169 413.54783 333.05435 413.69336 330.16211 413.69336 L 169.83789 413.69336 C 166.94565 413.69336 164.08831 413.54783 161.27344 413.26367 C 158.45857 412.97951 155.6866 412.55648 152.96289 412.00195 C 150.23918 411.44742 147.56408 410.76034 144.94531 409.94922 C 142.32654 409.1381 139.76371 408.20236 137.26367 407.14844 C 134.76363 406.09452 132.32651 404.92356 129.95898 403.64062 C 127.59146 402.35769 125.29349 400.96301 123.07227 399.46484 C 120.85104 397.96668 118.70567 396.36367 116.64453 394.66406 C 114.58339 392.96445 112.60602 391.16852 110.71875 389.28125 C 108.83148 387.39398 107.03555 385.41661 105.33594 383.35547 C 103.63633 381.29433 102.03332 379.14896 100.53516 376.92773 C 99.036992 374.70651 97.64231 372.40854 96.359375 370.04102 C 95.07644 367.67349 93.905482 365.23637 92.851562 362.73633 C 91.797643 360.23629 90.861899 357.67346 90.050781 355.05469 C 89.239663 352.43592 88.552578 349.76082 87.998047 347.03711 C 87.443516 344.3134 87.020487 341.54143 86.736328 338.72656 C 86.45217 335.91169 86.306641 333.05435 86.306641 330.16211 L 86.306641 169.83789 C 86.306641 166.94565 86.45217 164.08831 86.736328 161.27344 C 87.020487 158.45857 87.443516 155.6866 87.998047 152.96289 C 88.552578 150.23918 89.239663 147.56408 90.050781 144.94531 C 90.861899 142.32654 91.797643 139.76371 92.851562 137.26367 C 93.905482 134.76363 95.07644 132.32651 96.359375 129.95898 C 97.64231 127.59146 99.036992 125.29349 100.53516 123.07227 C 102.03332 120.85104 103.63633 118.70567 105.33594 116.64453 C 107.03555 114.58339 108.83148 112.60602 110.71875 110.71875 C 112.60602 108.83148 114.58339 107.03555 116.64453 105.33594 C 118.70567 103.63633 120.85104 102.03332 123.07227 100.53516 C 125.29349 99.036992 127.59146 97.64231 129.95898 96.359375 C 132.32651 95.07644 134.76363 93.905482 137.26367 92.851562 C 139.76371 91.797643 142.32654 90.861899 144.94531 90.050781 C 147.56408 89.239663 150.23918 88.552578 152.96289 87.998047 C 155.6866 87.443516 158.45857 87.020487 161.27344 86.736328 C 164.08831 86.45217 166.94565 86.306641 169.83789 86.306641 z "
         transform="scale(0.26458333)" />
    </g>
  </g>
</svg>
