<?xml version="1.0" encoding="UTF-8" standalone="no"?>
<svg
   xmlns:dc="http://purl.org/dc/elements/1.1/"
   xmlns:cc="http://creativecommons.org/ns#"
   xmlns:rdf="http://www.w3.org/1999/02/22-rdf-syntax-ns#"
   xmlns:svg="http://www.w3.org/2000/svg"
   xmlns="http://www.w3.org/2000/svg"
   xmlns:sodipodi="http://sodipodi.sourceforge.net/DTD/sodipodi-0.dtd"
   xmlns:inkscape="http://www.inkscape.org/namespaces/inkscape"
   width="500"
   height="500"
   viewBox="0 0 132.29166 132.29166"
   version="1.1"
   id="svg8"
   inkscape:version="1.0.1 (c497b03c, 2020-09-10)"
   sodipodi:docname="linkedin.svg">
  <defs
     id="defs2" />
  <sodipodi:namedview
     id="base"
     pagecolor="#ffffff"
     bordercolor="#666666"
     borderopacity="1.0"
     inkscape:pageopacity="0.0"
     inkscape:pageshadow="2"
     inkscape:zoom="1.4142136"
     inkscape:cx="258.41034"
     inkscape:cy="211.55627"
     inkscape:document-units="mm"
     inkscape:current-layer="layer1"
     inkscape:document-rotation="0"
     showgrid="false"
     units="px"
     width="100px"
     inkscape:window-width="1440"
     inkscape:window-height="847"
     inkscape:window-x="0"
     inkscape:window-y="25"
     inkscape:window-maximized="0" />
  <metadata
     id="metadata5">
    <rdf:RDF>
      <cc:Work
         rdf:about="">
        <dc:format>image/svg+xml</dc:format>
        <dc:type
           rdf:resource="http://purl.org/dc/dcmitype/StillImage" />
        <dc:title></dc:title>
      </cc:Work>
    </rdf:RDF>
  </metadata>
  <g
     inkscape:label="Layer 1"
     inkscape:groupmode="layer"
     id="layer1">
    <path
       id="path835"
       style="fill:#000000;fill-opacity:1;stroke:none;stroke-width:16.0334"
       d="M 249.52539 0 A 250.00001 250.00001 0 0 0 0 250 A 250.00001 250.00001 0 0 0 250 500 A 250.00001 250.00001 0 0 0 500 250 A 250.00001 250.00001 0 0 0 250 0 A 250.00001 250.00001 0 0 0 249.52539 0 z M 134.10352 100 C 144.16498 100 152.33339 103.21682 158.60547 109.65039 C 165.00822 116.08396 168.20898 124.19612 168.20898 133.98633 C 168.20898 143.77654 165.07286 151.8887 158.80078 158.32227 C 152.5287 164.75583 144.29564 167.97266 134.10352 167.97266 C 123.91139 167.97266 115.68028 164.75583 109.4082 158.32227 C 103.13612 151.8887 100 143.77654 100 133.98633 C 100 124.19612 103.13612 116.08396 109.4082 109.65039 C 115.81095 103.21682 124.04206 100 134.10352 100 z M 329.43945 190.20898 C 350.99972 190.20898 368.1162 198.04269 380.79102 213.70703 C 393.59652 229.23151 400 251.18846 400 279.58008 L 400 400 L 339.24023 400 L 339.24023 287.97266 C 339.24023 257.48314 328.65459 242.23828 307.48633 242.23828 C 298.86222 242.23828 291.15413 245.73355 284.35938 252.72656 C 277.56462 259.71957 274.16602 269.65044 274.16602 282.51758 L 274.16602 400 L 213.40625 400 L 213.40625 260.69922 C 213.40625 240.41949 212.88324 218.46254 211.83789 194.82617 L 264.36719 194.82617 L 267.11133 223.77539 L 268.67773 223.77539 C 282.92058 201.39776 303.17512 190.20898 329.43945 190.20898 z M 103.91992 194.82617 L 164.68164 194.82617 L 164.68164 400 L 103.91992 400 L 103.91992 194.82617 z "
       transform="scale(0.26458333)" />
    <g
       aria-label="in"
       transform="scale(0.96658067,1.0345748)"
       id="text839"
       style="font-style:normal;font-variant:normal;font-weight:bold;font-stretch:normal;font-size:107.304px;line-height:1.25;font-family:'Myriad Web Pro';-inkscape-font-specification:'Myriad Web Pro Bold';fill:#ffffff;fill-opacity:1;stroke:none;stroke-width:2.68262" />
  </g>
</svg>
