<svg version="1.1" viewBox="0.0 0.0 768.0 768.0" fill="none" stroke="none" stroke-linecap="square" stroke-miterlimit="10" xmlns:xlink="http://www.w3.org/1999/xlink" xmlns="http://www.w3.org/2000/svg"><clipPath id="p.0"><path d="m0 0l768.0 0l0 768.0l-768.0 0l0 -768.0z" clip-rule="nonzero"/></clipPath><g clip-path="url(#p.0)"><path fill="#000000" fill-opacity="0.0" d="m0 0l768.0 0l0 768.0l-768.0 0z" fill-rule="evenodd"/><path fill="#1cb497" d="m0 48.0l0 0c0 -26.509668 21.490332 -48.0 48.0 -48.0l0 0c12.730392 0 24.939377 5.0571284 33.941124 14.058874c9.001747 9.001747 14.058876 21.210733 14.058876 33.941124l0 0c0 26.509666 -21.490334 48.0 -48.0 48.0l0 0c-26.509668 0 -48.0 -21.490334 -48.0 -48.0z" fill-rule="evenodd"/><path fill="#1cb497" d="m0 144.0l0 0c0 -26.509666 21.490332 -48.0 48.0 -48.0l0 0c12.730392 0 24.939377 5.057129 33.941124 14.058876c9.001747 9.001747 14.058876 21.210732 14.058876 33.941124l0 0c0 26.509674 -21.490334 48.0 -48.0 48.0l0 0c-26.509668 0 -48.0 -21.490326 -48.0 -48.0z" fill-rule="evenodd"/><path fill="#1cb497" d="m0 240.0l0 0c0 -26.509674 21.490332 -48.0 48.0 -48.0l0 0c12.730392 0 24.939377 5.057129 33.941124 14.058868c9.001747 9.001755 14.058876 21.21074 14.058876 33.94113l0 0c0 26.509674 -21.490334 48.0 -48.0 48.0l0 0c-26.509668 0 -48.0 -21.490326 -48.0 -48.0z" fill-rule="evenodd"/><path fill="#1cb497" d="m0 528.0l0 0c0 -26.509674 21.490332 -48.0 48.0 -48.0l0 0c12.730392 0 24.939377 5.057129 33.941124 14.058868c9.001747 9.0017395 14.058876 21.210724 14.058876 33.94113l0 0c0 26.509644 -21.490334 48.0 -48.0 48.0l0 0c-26.509668 0 -48.0 -21.490356 -48.0 -48.0z" fill-rule="evenodd"/><path fill="#1cb497" d="m192.0 144.0l0 0c0 -26.509666 21.490326 -48.0 48.0 -48.0l0 0c12.730392 0 24.939392 5.057129 33.94113 14.058876c9.0017395 9.001747 14.058868 21.210732 14.058868 33.941124l0 0c0 26.509674 -21.490326 48.0 -48.0 48.0l0 0c-26.509674 0 -48.0 -21.490326 -48.0 -48.0z" fill-rule="evenodd"/><path fill="#1cb497" d="m288.0 240.0l0 0c0 -26.509674 21.490326 -48.0 48.0 -48.0l0 0c12.730377 0 24.939392 5.057129 33.94113 14.058868c9.0017395 9.001755 14.058868 21.21074 14.058868 33.94113l0 0c0 26.509674 -21.490326 48.0 -48.0 48.0l0 0c-26.509674 0 -48.0 -21.490326 -48.0 -48.0z" fill-rule="evenodd"/><path fill="#1cb497" d="m288.0 432.0l0 0c0 -26.509674 21.490326 -48.0 48.0 -48.0l0 0c12.730377 0 24.939392 5.057129 33.94113 14.058868c9.0017395 9.0017395 14.058868 21.210754 14.058868 33.94113l0 0c0 26.509674 -21.490326 48.0 -48.0 48.0l0 0c-26.509674 0 -48.0 -21.490326 -48.0 -48.0z" fill-rule="evenodd"/><path fill="#1cb497" d="m96.0 48.0l0 0c0 -26.509668 21.490334 -48.0 48.0 -48.0l0 0c12.730392 0 24.939377 5.0571284 33.94113 14.058874c9.0017395 9.001747 14.058868 21.210733 14.058868 33.941124l0 0c0 26.509666 -21.490326 48.0 -48.0 48.0l0 0c-26.509666 0 -48.0 -21.490334 -48.0 -48.0z" fill-rule="evenodd"/><path fill="#1cb497" d="m96.0 432.0l0 0c0 -26.509674 21.490334 -48.0 48.0 -48.0l0 0c12.730392 0 24.939377 5.057129 33.94113 14.058868c9.0017395 9.0017395 14.058868 21.210754 14.058868 33.94113l0 0c0 26.509674 -21.490326 48.0 -48.0 48.0l0 0c-26.509666 0 -48.0 -21.490326 -48.0 -48.0z" fill-rule="evenodd"/><path fill="#1cb497" d="m0 624.0l0 0c0 -26.509644 21.490332 -48.0 48.0 -48.0l0 0c12.730392 0 24.939377 5.057129 33.941124 14.058899c9.001747 9.001709 14.058876 21.210693 14.058876 33.9411l0 0c0 26.509644 -21.490334 48.0 -48.0 48.0l0 0c-26.509668 0 -48.0 -21.490356 -48.0 -48.0z" fill-rule="evenodd"/><path fill="#1cb497" d="m288.0 528.0l0 0c0 -26.509674 21.490326 -48.0 48.0 -48.0l0 0c12.730377 0 24.939392 5.057129 33.94113 14.058868c9.0017395 9.0017395 14.058868 21.210724 14.058868 33.94113l0 0c0 26.509644 -21.490326 48.0 -48.0 48.0l0 0c-26.509674 0 -48.0 -21.490356 -48.0 -48.0z" fill-rule="evenodd"/><path fill="#1cb497" d="m288.0 624.0l0 0c0 -26.509644 21.490326 -48.0 48.0 -48.0l0 0c12.730377 0 24.939392 5.057129 33.94113 14.058899c9.0017395 9.001709 14.058868 21.210693 14.058868 33.9411l0 0c0 26.509644 -21.490326 48.0 -48.0 48.0l0 0c-26.509674 0 -48.0 -21.490356 -48.0 -48.0z" fill-rule="evenodd"/><path fill="#1cb497" d="m0 720.0l0 0c0 -26.509644 21.490332 -48.0 48.0 -48.0l0 0c12.730392 0 24.939377 5.057129 33.941124 14.058899c9.001747 9.001709 14.058876 21.210693 14.058876 33.9411l0 0c0 26.509644 -21.490334 48.0 -48.0 48.0l0 0c-26.509668 0 -48.0 -21.490356 -48.0 -48.0z" fill-rule="evenodd"/><path fill="#1cb497" d="m192.0 720.0l0 0c0 -26.509644 21.490326 -48.0 48.0 -48.0l0 0c12.730392 0 24.939392 5.057129 33.94113 14.058899c9.0017395 9.001709 14.058868 21.210693 14.058868 33.9411l0 0c0 26.509644 -21.490326 48.0 -48.0 48.0l0 0c-26.509674 0 -48.0 -21.490356 -48.0 -48.0z" fill-rule="evenodd"/><path fill="#1cb497" d="m96.0 720.0l0 0c0 -26.509644 21.490334 -48.0 48.0 -48.0l0 0c12.730392 0 24.939377 5.057129 33.94113 14.058899c9.0017395 9.001709 14.058868 21.210693 14.058868 33.9411l0 0c0 26.509644 -21.490326 48.0 -48.0 48.0l0 0c-26.509666 0 -48.0 -21.490356 -48.0 -48.0z" fill-rule="evenodd"/><path fill="#0dbbe4" d="m767.99866 48.0l0 0c0 -26.509668 -21.490295 -48.0 -48.0 -48.0l0 0c-12.730347 0 -24.939331 5.0571284 -33.9411 14.058874c-9.00177 9.001747 -14.058899 21.210733 -14.058899 33.941124l0 0c0 26.509666 21.490356 48.0 48.0 48.0l0 0c26.509705 0 48.0 -21.490334 48.0 -48.0z" fill-rule="evenodd"/><defs><radialGradient id="p.1" gradientUnits="userSpaceOnUse" gradientTransform="matrix(-8.239068430693063 0.0 0.0 8.239068430693063 0.0 0.0)" spreadMethod="pad" cx="-87.38836116251026" cy="17.477704088918077" fx="-87.38836116251026" fy="17.477704088918077" r="8.239068031311035"><stop offset="0.0" stop-color="#0dbbe4"/><stop offset="0.99999994" stop-color="#0dbbe4" stop-opacity="0.0"/><stop offset="1.0" stop-color="#ffffff" stop-opacity="0.0"/></radialGradient></defs><path fill="url(#p.1)" d="m767.99866 144.0l0 0c0 -26.509666 -21.490295 -48.0 -48.0 -48.0l0 0c-12.730347 0 -24.939331 5.057129 -33.9411 14.058876c-9.00177 9.001747 -14.058899 21.210732 -14.058899 33.941124l0 0c0 26.509674 21.490356 48.0 48.0 48.0l0 0c26.509705 0 48.0 -21.490326 48.0 -48.0z" fill-rule="evenodd"/><defs><radialGradient id="p.2" gradientUnits="userSpaceOnUse" gradientTransform="matrix(-8.239068430693063 0.0 0.0 8.239068430693063 0.0 0.0)" spreadMethod="pad" cx="-87.38836116251026" cy="29.129506814863465" fx="-87.38836116251026" fy="29.129506814863465" r="8.239068031311035"><stop offset="0.0" stop-color="#0dbbe4"/><stop offset="0.99999994" stop-color="#0dbbe4" stop-opacity="0.0"/><stop offset="1.0" stop-color="#ffffff" stop-opacity="0.0"/></radialGradient></defs><path fill="url(#p.2)" d="m767.99866 240.0l0 0c0 -26.509674 -21.490295 -48.0 -48.0 -48.0l0 0c-12.730347 0 -24.939331 5.057129 -33.9411 14.058868c-9.00177 9.001755 -14.058899 21.21074 -14.058899 33.94113l0 0c0 26.509674 21.490356 48.0 48.0 48.0l0 0c26.509705 0 48.0 -21.490326 48.0 -48.0z" fill-rule="evenodd"/><path fill="#0dbbe4" d="m767.99866 528.0l0 0c0 -26.509674 -21.490295 -48.0 -48.0 -48.0l0 0c-12.730347 0 -24.939331 5.057129 -33.9411 14.058868c-9.00177 9.0017395 -14.058899 21.210724 -14.058899 33.94113l0 0c0 26.509644 21.490356 48.0 48.0 48.0l0 0c26.509705 0 48.0 -21.490356 48.0 -48.0z" fill-rule="evenodd"/><path fill="#0dbbe4" d="m575.99866 144.0l0 0c0 -26.509666 -21.490295 -48.0 -48.0 -48.0l0 0c-12.730347 0 -24.939362 5.057129 -33.9411 14.058876c-9.0017395 9.001747 -14.058868 21.210732 -14.058868 33.941124l0 0c0 26.509674 21.490326 48.0 47.99997 48.0l0 0c26.509705 0 48.0 -21.490326 48.0 -48.0z" fill-rule="evenodd"/><path fill="#0dbbe4" d="m479.9987 240.0l0 0c0 -26.509674 -21.490326 -48.0 -48.0 -48.0l0 0c-12.730377 0 -24.939392 5.057129 -33.94113 14.058868c-9.0017395 9.001755 -14.058868 21.21074 -14.058868 33.94113l0 0c0 26.509674 21.490326 48.0 48.0 48.0l0 0c26.509674 0 48.0 -21.490326 48.0 -48.0z" fill-rule="evenodd"/><path fill="#0dbbe4" d="m479.9987 432.0l0 0c0 -26.509674 -21.490326 -48.0 -48.0 -48.0l0 0c-12.730377 0 -24.939392 5.057129 -33.94113 14.058868c-9.0017395 9.0017395 -14.058868 21.210754 -14.058868 33.94113l0 0c0 26.509674 21.490326 48.0 48.0 48.0l0 0c26.509674 0 48.0 -21.490326 48.0 -48.0z" fill-rule="evenodd"/><path fill="#0dbbe4" d="m671.99866 48.0l0 0c0 -26.509668 -21.490295 -48.0 -48.0 -48.0l0 0c-12.730347 0 -24.939331 5.0571284 -33.9411 14.058874c-9.00177 9.001747 -14.058899 21.210733 -14.058899 33.941124l0 0c0 26.509666 21.490356 48.0 48.0 48.0l0 0c26.509705 0 48.0 -21.490334 48.0 -48.0z" fill-rule="evenodd"/><path fill="#0dbbe4" d="m671.99866 432.0l0 0c0 -26.509674 -21.490295 -48.0 -48.0 -48.0l0 0c-12.730347 0 -24.939331 5.057129 -33.9411 14.058868c-9.00177 9.0017395 -14.058899 21.210754 -14.058899 33.94113l0 0c0 26.509674 21.490356 48.0 48.0 48.0l0 0c26.509705 0 48.0 -21.490326 48.0 -48.0z" fill-rule="evenodd"/><path fill="#0dbbe4" d="m767.99866 624.0l0 0c0 -26.509644 -21.490295 -48.0 -48.0 -48.0l0 0c-12.730347 0 -24.939331 5.057129 -33.9411 14.058899c-9.00177 9.001709 -14.058899 21.210693 -14.058899 33.9411l0 0c0 26.509644 21.490356 48.0 48.0 48.0l0 0c26.509705 0 48.0 -21.490356 48.0 -48.0z" fill-rule="evenodd"/><path fill="#0dbbe4" d="m479.9987 528.0l0 0c0 -26.509674 -21.490326 -48.0 -48.0 -48.0l0 0c-12.730377 0 -24.939392 5.057129 -33.94113 14.058868c-9.0017395 9.0017395 -14.058868 21.210724 -14.058868 33.94113l0 0c0 26.509644 21.490326 48.0 48.0 48.0l0 0c26.509674 0 48.0 -21.490356 48.0 -48.0z" fill-rule="evenodd"/><path fill="#0dbbe4" d="m479.9987 624.0l0 0c0 -26.509644 -21.490326 -48.0 -48.0 -48.0l0 0c-12.730377 0 -24.939392 5.057129 -33.94113 14.058899c-9.0017395 9.001709 -14.058868 21.210693 -14.058868 33.9411l0 0c0 26.509644 21.490326 48.0 48.0 48.0l0 0c26.509674 0 48.0 -21.490356 48.0 -48.0z" fill-rule="evenodd"/><path fill="#0dbbe4" d="m767.99866 720.0l0 0c0 -26.509644 -21.490295 -48.0 -48.0 -48.0l0 0c-12.730347 0 -24.939331 5.057129 -33.9411 14.058899c-9.00177 9.001709 -14.058899 21.210693 -14.058899 33.9411l0 0c0 26.509644 21.490356 48.0 48.0 48.0l0 0c26.509705 0 48.0 -21.490356 48.0 -48.0z" fill-rule="evenodd"/><path fill="#0dbbe4" d="m575.99866 720.0l0 0c0 -26.509644 -21.490295 -48.0 -48.0 -48.0l0 0c-12.730347 0 -24.939362 5.057129 -33.9411 14.058899c-9.0017395 9.001709 -14.058868 21.210693 -14.058868 33.9411l0 0c0 26.509644 21.490326 48.0 47.99997 48.0l0 0c26.509705 0 48.0 -21.490356 48.0 -48.0z" fill-rule="evenodd"/><path fill="#0dbbe4" d="m671.99866 720.0l0 0c0 -26.509644 -21.490295 -48.0 -48.0 -48.0l0 0c-12.730347 0 -24.939331 5.057129 -33.9411 14.058899c-9.00177 9.001709 -14.058899 21.210693 -14.058899 33.9411l0 0c0 26.509644 21.490356 48.0 48.0 48.0l0 0c26.509705 0 48.0 -21.490356 48.0 -48.0z" fill-rule="evenodd"/><defs><radialGradient id="p.3" gradientUnits="userSpaceOnUse" gradientTransform="matrix(-8.239068430693063 0.0 0.0 8.239068430693063 0.0 0.0)" spreadMethod="pad" cx="-75.73655843656488" cy="17.477704088918077" fx="-75.73655843656488" fy="17.477704088918077" r="8.239068031311035"><stop offset="0.0" stop-color="#0dbbe4"/><stop offset="0.99999994" stop-color="#0dbbe4" stop-opacity="0.0"/><stop offset="1.0" stop-color="#ffffff" stop-opacity="0.0"/></radialGradient></defs><path fill="url(#p.3)" d="m671.99866 144.0l0 0c0 -26.509666 -21.490295 -48.0 -48.0 -48.0l0 0c-12.730347 0 -24.939331 5.057129 -33.9411 14.058876c-9.00177 9.001747 -14.058899 21.210732 -14.058899 33.941124l0 0c0 26.509674 21.490356 48.0 48.0 48.0l0 0c26.509705 0 48.0 -21.490326 48.0 -48.0z" fill-rule="evenodd"/><defs><radialGradient id="p.4" gradientUnits="userSpaceOnUse" gradientTransform="matrix(-8.239068430693063 0.0 0.0 8.239068430693063 0.0 0.0)" spreadMethod="pad" cx="-75.73655843656488" cy="29.129506814863465" fx="-75.73655843656488" fy="29.129506814863465" r="8.239068031311035"><stop offset="0.0" stop-color="#0dbbe4"/><stop offset="0.99999994" stop-color="#0dbbe4" stop-opacity="0.0"/><stop offset="1.0" stop-color="#ffffff" stop-opacity="0.0"/></radialGradient></defs><path fill="url(#p.4)" d="m671.99866 240.0l0 0c0 -26.509674 -21.490295 -48.0 -48.0 -48.0l0 0c-12.730347 0 -24.939331 5.057129 -33.9411 14.058868c-9.00177 9.001755 -14.058899 21.21074 -14.058899 33.94113l0 0c0 26.509674 21.490356 48.0 48.0 48.0l0 0c26.509705 0 48.0 -21.490326 48.0 -48.0z" fill-rule="evenodd"/><defs><radialGradient id="p.5" gradientUnits="userSpaceOnUse" gradientTransform="matrix(-8.239068430693063 0.0 0.0 8.239068430693063 0.0 0.0)" spreadMethod="pad" cx="-75.73655843656488" cy="64.08491499269962" fx="-75.73655843656488" fy="64.08491499269962" r="8.239068031311035"><stop offset="0.0" stop-color="#0dbbe4"/><stop offset="0.99999994" stop-color="#0dbbe4" stop-opacity="0.0"/><stop offset="1.0" stop-color="#ffffff" stop-opacity="0.0"/></radialGradient></defs><path fill="url(#p.5)" d="m671.99866 528.0l0 0c0 -26.509674 -21.490295 -48.0 -48.0 -48.0l0 0c-12.730347 0 -24.939331 5.057129 -33.9411 14.058868c-9.00177 9.0017395 -14.058899 21.210724 -14.058899 33.94113l0 0c0 26.509644 21.490356 48.0 48.0 48.0l0 0c26.509705 0 48.0 -21.490356 48.0 -48.0z" fill-rule="evenodd"/><defs><radialGradient id="p.6" gradientUnits="userSpaceOnUse" gradientTransform="matrix(-8.239068430693063 0.0 0.0 8.239068430693063 0.0 0.0)" spreadMethod="pad" cx="-64.08475571061949" cy="29.129506814863465" fx="-64.08475571061949" fy="29.129506814863465" r="8.239068031311035"><stop offset="0.0" stop-color="#0dbbe4"/><stop offset="0.99999994" stop-color="#0dbbe4" stop-opacity="0.0"/><stop offset="1.0" stop-color="#ffffff" stop-opacity="0.0"/></radialGradient></defs><path fill="url(#p.6)" d="m575.99866 240.0l0 0c0 -26.509674 -21.490295 -48.0 -48.0 -48.0l0 0c-12.730347 0 -24.939362 5.057129 -33.9411 14.058868c-9.0017395 9.001755 -14.058868 21.21074 -14.058868 33.94113l0 0c0 26.509674 21.490326 48.0 47.99997 48.0l0 0c26.509705 0 48.0 -21.490326 48.0 -48.0z" fill-rule="evenodd"/><defs><radialGradient id="p.7" gradientUnits="userSpaceOnUse" gradientTransform="matrix(-8.239068430693063 0.0 0.0 8.239068430693063 0.0 0.0)" spreadMethod="pad" cx="-64.08475571061949" cy="52.433112266754236" fx="-64.08475571061949" fy="52.433112266754236" r="8.239068031311035"><stop offset="0.0" stop-color="#0dbbe4"/><stop offset="0.99999994" stop-color="#0dbbe4" stop-opacity="0.0"/><stop offset="1.0" stop-color="#ffffff" stop-opacity="0.0"/></radialGradient></defs><path fill="url(#p.7)" d="m575.99866 432.0l0 0c0 -26.509674 -21.490295 -48.0 -48.0 -48.0l0 0c-12.730347 0 -24.939362 5.057129 -33.9411 14.058868c-9.0017395 9.0017395 -14.058868 21.210754 -14.058868 33.94113l0 0c0 26.509674 21.490326 48.0 47.99997 48.0l0 0c26.509705 0 48.0 -21.490326 48.0 -48.0z" fill-rule="evenodd"/><defs><radialGradient id="p.8" gradientUnits="userSpaceOnUse" gradientTransform="matrix(-8.239068430693063 0.0 0.0 8.239068430693063 0.0 0.0)" spreadMethod="pad" cx="-64.08475571061949" cy="64.08491499269962" fx="-64.08475571061949" fy="64.08491499269962" r="8.239068031311035"><stop offset="0.0" stop-color="#0dbbe4"/><stop offset="0.99999994" stop-color="#0dbbe4" stop-opacity="0.0"/><stop offset="1.0" stop-color="#ffffff" stop-opacity="0.0"/></radialGradient></defs><path fill="url(#p.8)" d="m575.99866 528.0l0 0c0 -26.509674 -21.490295 -48.0 -48.0 -48.0l0 0c-12.730347 0 -24.939362 5.057129 -33.9411 14.058868c-9.0017395 9.0017395 -14.058868 21.210724 -14.058868 33.94113l0 0c0 26.509644 21.490326 48.0 47.99997 48.0l0 0c26.509705 0 48.0 -21.490356 48.0 -48.0z" fill-rule="evenodd"/><defs><radialGradient id="p.9" gradientUnits="userSpaceOnUse" gradientTransform="matrix(-8.239068430693063 0.0 0.0 8.239068430693063 0.0 0.0)" spreadMethod="pad" cx="-75.73655843656488" cy="75.73671771864501" fx="-75.73655843656488" fy="75.73671771864501" r="8.239068031311035"><stop offset="0.0" stop-color="#0dbbe4"/><stop offset="0.99999994" stop-color="#0dbbe4" stop-opacity="0.0"/><stop offset="1.0" stop-color="#ffffff" stop-opacity="0.0"/></radialGradient></defs><path fill="url(#p.9)" d="m671.99866 624.0l0 0c0 -26.509644 -21.490295 -48.0 -48.0 -48.0l0 0c-12.730347 0 -24.939331 5.057129 -33.9411 14.058899c-9.00177 9.001709 -14.058899 21.210693 -14.058899 33.9411l0 0c0 26.509644 21.490356 48.0 48.0 48.0l0 0c26.509705 0 48.0 -21.490356 48.0 -48.0z" fill-rule="evenodd"/><defs><radialGradient id="p.10" gradientUnits="userSpaceOnUse" gradientTransform="matrix(-8.239068430693063 0.0 0.0 8.239068430693063 0.0 0.0)" spreadMethod="pad" cx="-64.08475571061949" cy="75.73671771864501" fx="-64.08475571061949" fy="75.73671771864501" r="8.239068031311035"><stop offset="0.0" stop-color="#0dbbe4"/><stop offset="0.99999994" stop-color="#0dbbe4" stop-opacity="0.0"/><stop offset="1.0" stop-color="#ffffff" stop-opacity="0.0"/></radialGradient></defs><path fill="url(#p.10)" d="m575.99866 624.0l0 0c0 -26.509644 -21.490295 -48.0 -48.0 -48.0l0 0c-12.730347 0 -24.939362 5.057129 -33.9411 14.058899c-9.0017395 9.001709 -14.058868 21.210693 -14.058868 33.9411l0 0c0 26.509644 21.490326 48.0 47.99997 48.0l0 0c26.509705 0 48.0 -21.490356 48.0 -48.0z" fill-rule="evenodd"/><path fill="#1cb497" d="m0 336.0l0 0c0 -26.509674 21.490332 -48.0 48.0 -48.0l0 0c12.730392 0 24.939377 5.057129 33.941124 14.058868c9.001747 9.0017395 14.058876 21.210754 14.058876 33.94113l0 0c0 26.509674 -21.490334 48.0 -48.0 48.0l0 0c-26.509668 0 -48.0 -21.490326 -48.0 -48.0z" fill-rule="evenodd"/><path fill="#1cb497" d="m288.0 336.0l0 0c0 -26.509674 21.490326 -48.0 48.0 -48.0l0 0c12.730377 0 24.939392 5.057129 33.94113 14.058868c9.0017395 9.0017395 14.058868 21.210754 14.058868 33.94113l0 0c0 26.509674 -21.490326 48.0 -48.0 48.0l0 0c-26.509674 0 -48.0 -21.490326 -48.0 -48.0z" fill-rule="evenodd"/><defs><radialGradient id="p.11" gradientUnits="userSpaceOnUse" gradientTransform="matrix(-8.239068430693063 0.0 0.0 8.239068430693063 0.0 0.0)" spreadMethod="pad" cx="-87.38836116251026" cy="40.78130954080885" fx="-87.38836116251026" fy="40.78130954080885" r="8.239068031311035"><stop offset="0.0" stop-color="#0dbbe4"/><stop offset="0.99999994" stop-color="#0dbbe4" stop-opacity="0.0"/><stop offset="1.0" stop-color="#ffffff" stop-opacity="0.0"/></radialGradient></defs><path fill="url(#p.11)" d="m767.99866 336.0l0 0c0 -26.509674 -21.490295 -48.0 -48.0 -48.0l0 0c-12.730347 0 -24.939331 5.057129 -33.9411 14.058868c-9.00177 9.0017395 -14.058899 21.210754 -14.058899 33.94113l0 0c0 26.509674 21.490356 48.0 48.0 48.0l0 0c26.509705 0 48.0 -21.490326 48.0 -48.0z" fill-rule="evenodd"/><path fill="#0dbbe4" d="m479.9987 336.0l0 0c0 -26.509674 -21.490326 -48.0 -48.0 -48.0l0 0c-12.730377 0 -24.939392 5.057129 -33.94113 14.058868c-9.0017395 9.0017395 -14.058868 21.210754 -14.058868 33.94113l0 0c0 26.509674 21.490326 48.0 48.0 48.0l0 0c26.509674 0 48.0 -21.490326 48.0 -48.0z" fill-rule="evenodd"/><defs><radialGradient id="p.12" gradientUnits="userSpaceOnUse" gradientTransform="matrix(-8.239068430693063 0.0 0.0 8.239068430693063 0.0 0.0)" spreadMethod="pad" cx="-75.73655843656488" cy="40.78130954080885" fx="-75.73655843656488" fy="40.78130954080885" r="8.239068031311035"><stop offset="0.0" stop-color="#0dbbe4"/><stop offset="0.99999994" stop-color="#0dbbe4" stop-opacity="0.0"/><stop offset="1.0" stop-color="#ffffff" stop-opacity="0.0"/></radialGradient></defs><path fill="url(#p.12)" d="m671.99866 336.0l0 0c0 -26.509674 -21.490295 -48.0 -48.0 -48.0l0 0c-12.730347 0 -24.939331 5.057129 -33.9411 14.058868c-9.00177 9.0017395 -14.058899 21.210754 -14.058899 33.94113l0 0c0 26.509674 21.490356 48.0 48.0 48.0l0 0c26.509705 0 48.0 -21.490326 48.0 -48.0z" fill-rule="evenodd"/><defs><radialGradient id="p.13" gradientUnits="userSpaceOnUse" gradientTransform="matrix(-8.239068430693063 0.0 0.0 8.239068430693063 0.0 0.0)" spreadMethod="pad" cx="-64.08475571061949" cy="40.78130954080885" fx="-64.08475571061949" fy="40.78130954080885" r="8.239068031311035"><stop offset="0.0" stop-color="#0dbbe4"/><stop offset="0.99999994" stop-color="#0dbbe4" stop-opacity="0.0"/><stop offset="1.0" stop-color="#ffffff" stop-opacity="0.0"/></radialGradient></defs><path fill="url(#p.13)" d="m575.99866 336.0l0 0c0 -26.509674 -21.490295 -48.0 -48.0 -48.0l0 0c-12.730347 0 -24.939362 5.057129 -33.9411 14.058868c-9.0017395 9.0017395 -14.058868 21.210754 -14.058868 33.94113l0 0c0 26.509674 21.490326 48.0 47.99997 48.0l0 0c26.509705 0 48.0 -21.490326 48.0 -48.0z" fill-rule="evenodd"/><defs><radialGradient id="p.14" gradientUnits="userSpaceOnUse" gradientTransform="matrix(-8.239068430693063 0.0 0.0 8.239068430693063 0.0 0.0)" spreadMethod="pad" cx="-17.477544806837944" cy="17.477544806837944" fx="-17.477544806837944" fy="17.477544806837944" r="8.239068031311035"><stop offset="0.0" stop-color="#0de4bb"/><stop offset="0.99999994" stop-color="#0de4bb" stop-opacity="0.0"/><stop offset="1.0" stop-color="#ffffff" stop-opacity="0.0"/></radialGradient></defs><path fill="url(#p.14)" d="m191.99869 143.99869l0 0c0 -26.509666 -21.490326 -48.0 -48.0 -48.0l0 0c-12.730392 0 -24.939377 5.057129 -33.941124 14.058876c-9.001747 9.001747 -14.058876 21.210732 -14.058876 33.941124l0 0c0 26.509674 21.490334 48.0 48.0 48.0l0 0c26.509674 0 48.0 -21.490326 48.0 -48.0z" fill-rule="evenodd"/><defs><radialGradient id="p.15" gradientUnits="userSpaceOnUse" gradientTransform="matrix(-8.239068430693063 0.0 0.0 8.239068430693063 0.0 0.0)" spreadMethod="pad" cx="-17.477544806837944" cy="29.129506814863465" fx="-17.477544806837944" fy="29.129506814863465" r="8.239068031311035"><stop offset="0.0" stop-color="#0de4bb"/><stop offset="0.99999994" stop-color="#0de4bb" stop-opacity="0.0"/><stop offset="1.0" stop-color="#ffffff" stop-opacity="0.0"/></radialGradient></defs><path fill="url(#p.15)" d="m191.99869 240.0l0 0c0 -26.509674 -21.490326 -48.0 -48.0 -48.0l0 0c-12.730392 0 -24.939377 5.057129 -33.941124 14.058868c-9.001747 9.001755 -14.058876 21.21074 -14.058876 33.94113l0 0c0 26.509674 21.490334 48.0 48.0 48.0l0 0c26.509674 0 48.0 -21.490326 48.0 -48.0z" fill-rule="evenodd"/><defs><radialGradient id="p.16" gradientUnits="userSpaceOnUse" gradientTransform="matrix(-8.239068430693063 0.0 0.0 8.239068430693063 0.0 0.0)" spreadMethod="pad" cx="-29.12934753278333" cy="29.129506814863465" fx="-29.12934753278333" fy="29.129506814863465" r="8.239068031311035"><stop offset="0.0" stop-color="#0de4bb"/><stop offset="0.99999994" stop-color="#0de4bb" stop-opacity="0.0"/><stop offset="1.0" stop-color="#ffffff" stop-opacity="0.0"/></radialGradient></defs><path fill="url(#p.16)" d="m287.9987 240.0l0 0c0 -26.509674 -21.490326 -48.0 -48.0 -48.0l0 0c-12.730392 0 -24.939377 5.057129 -33.94113 14.058868c-9.0017395 9.001755 -14.058868 21.21074 -14.058868 33.94113l0 0c0 26.509674 21.490326 48.0 48.0 48.0l0 0c26.509674 0 48.0 -21.490326 48.0 -48.0z" fill-rule="evenodd"/><defs><radialGradient id="p.17" gradientUnits="userSpaceOnUse" gradientTransform="matrix(-8.239068430693063 0.0 0.0 8.239068430693063 0.0 0.0)" spreadMethod="pad" cx="-17.477544806837944" cy="40.78130954080885" fx="-17.477544806837944" fy="40.78130954080885" r="8.239068031311035"><stop offset="0.0" stop-color="#0de4bb"/><stop offset="0.99999994" stop-color="#0de4bb" stop-opacity="0.0"/><stop offset="1.0" stop-color="#ffffff" stop-opacity="0.0"/></radialGradient></defs><path fill="url(#p.17)" d="m191.99869 336.0l0 0c0 -26.509674 -21.490326 -48.0 -48.0 -48.0l0 0c-12.730392 0 -24.939377 5.057129 -33.941124 14.058868c-9.001747 9.0017395 -14.058876 21.210754 -14.058876 33.94113l0 0c0 26.509674 21.490334 48.0 48.0 48.0l0 0c26.509674 0 48.0 -21.490326 48.0 -48.0z" fill-rule="evenodd"/><defs><radialGradient id="p.18" gradientUnits="userSpaceOnUse" gradientTransform="matrix(-8.239068430693063 0.0 0.0 8.239068430693063 0.0 0.0)" spreadMethod="pad" cx="-29.12934753278333" cy="40.78130954080885" fx="-29.12934753278333" fy="40.78130954080885" r="8.239068031311035"><stop offset="0.0" stop-color="#0de4bb"/><stop offset="0.99999994" stop-color="#0de4bb" stop-opacity="0.0"/><stop offset="1.0" stop-color="#ffffff" stop-opacity="0.0"/></radialGradient></defs><path fill="url(#p.18)" d="m287.9987 336.0l0 0c0 -26.509674 -21.490326 -48.0 -48.0 -48.0l0 0c-12.730392 0 -24.939377 5.057129 -33.94113 14.058868c-9.0017395 9.0017395 -14.058868 21.210754 -14.058868 33.94113l0 0c0 26.509674 21.490326 48.0 48.0 48.0l0 0c26.509674 0 48.0 -21.490326 48.0 -48.0z" fill-rule="evenodd"/><defs><radialGradient id="p.19" gradientUnits="userSpaceOnUse" gradientTransform="matrix(-8.239068430693063 0.0 0.0 8.239068430693063 0.0 0.0)" spreadMethod="pad" cx="-17.477544806837944" cy="64.08491499269962" fx="-17.477544806837944" fy="64.08491499269962" r="8.239068031311035"><stop offset="0.0" stop-color="#0de4bb"/><stop offset="0.99999994" stop-color="#0de4bb" stop-opacity="0.0"/><stop offset="1.0" stop-color="#ffffff" stop-opacity="0.0"/></radialGradient></defs><path fill="url(#p.19)" d="m191.99869 528.0l0 0c0 -26.509674 -21.490326 -48.0 -48.0 -48.0l0 0c-12.730392 0 -24.939377 5.057129 -33.941124 14.058868c-9.001747 9.0017395 -14.058876 21.210724 -14.058876 33.94113l0 0c0 26.509644 21.490334 48.0 48.0 48.0l0 0c26.509674 0 48.0 -21.490356 48.0 -48.0z" fill-rule="evenodd"/><defs><radialGradient id="p.20" gradientUnits="userSpaceOnUse" gradientTransform="matrix(-8.239068430693063 0.0 0.0 8.239068430693063 0.0 0.0)" spreadMethod="pad" cx="-29.12934753278333" cy="64.08491499269962" fx="-29.12934753278333" fy="64.08491499269962" r="8.239068031311035"><stop offset="0.0" stop-color="#0de4bb"/><stop offset="0.99999994" stop-color="#0de4bb" stop-opacity="0.0"/><stop offset="1.0" stop-color="#ffffff" stop-opacity="0.0"/></radialGradient></defs><path fill="url(#p.20)" d="m287.9987 528.0l0 0c0 -26.509674 -21.490326 -48.0 -48.0 -48.0l0 0c-12.730392 0 -24.939377 5.057129 -33.94113 14.058868c-9.0017395 9.0017395 -14.058868 21.210724 -14.058868 33.94113l0 0c0 26.509644 21.490326 48.0 48.0 48.0l0 0c26.509674 0 48.0 -21.490356 48.0 -48.0z" fill-rule="evenodd"/><defs><radialGradient id="p.21" gradientUnits="userSpaceOnUse" gradientTransform="matrix(-8.239068430693063 0.0 0.0 8.239068430693063 0.0 0.0)" spreadMethod="pad" cx="-17.477544806837944" cy="75.73671771864501" fx="-17.477544806837944" fy="75.73671771864501" r="8.239068031311035"><stop offset="0.0" stop-color="#0de4bb"/><stop offset="0.99999994" stop-color="#0de4bb" stop-opacity="0.0"/><stop offset="1.0" stop-color="#ffffff" stop-opacity="0.0"/></radialGradient></defs><path fill="url(#p.21)" d="m191.99869 624.0l0 0c0 -26.509644 -21.490326 -48.0 -48.0 -48.0l0 0c-12.730392 0 -24.939377 5.057129 -33.941124 14.058899c-9.001747 9.001709 -14.058876 21.210693 -14.058876 33.9411l0 0c0 26.509644 21.490334 48.0 48.0 48.0l0 0c26.509674 0 48.0 -21.490356 48.0 -48.0z" fill-rule="evenodd"/><defs><radialGradient id="p.22" gradientUnits="userSpaceOnUse" gradientTransform="matrix(-8.239068430693063 0.0 0.0 8.239068430693063 0.0 0.0)" spreadMethod="pad" cx="-29.12934753278333" cy="75.73671771864501" fx="-29.12934753278333" fy="75.73671771864501" r="8.239068031311035"><stop offset="0.0" stop-color="#0de4bb"/><stop offset="0.99999994" stop-color="#0de4bb" stop-opacity="0.0"/><stop offset="1.0" stop-color="#ffffff" stop-opacity="0.0"/></radialGradient></defs><path fill="url(#p.22)" d="m287.9987 624.0l0 0c0 -26.509644 -21.490326 -48.0 -48.0 -48.0l0 0c-12.730392 0 -24.939377 5.057129 -33.94113 14.058899c-9.0017395 9.001709 -14.058868 21.210693 -14.058868 33.9411l0 0c0 26.509644 21.490326 48.0 48.0 48.0l0 0c26.509674 0 48.0 -21.490356 48.0 -48.0z" fill-rule="evenodd"/><defs><radialGradient id="p.23" gradientUnits="userSpaceOnUse" gradientTransform="matrix(-8.239068430693063 0.0 0.0 8.239068430693063 0.0 0.0)" spreadMethod="pad" cx="-29.12934753278333" cy="52.433112266754236" fx="-29.12934753278333" fy="52.433112266754236" r="8.239068031311035"><stop offset="0.0" stop-color="#0de4bb"/><stop offset="0.99999994" stop-color="#0de4bb" stop-opacity="0.0"/><stop offset="1.0" stop-color="#ffffff" stop-opacity="0.0"/></radialGradient></defs><path fill="url(#p.23)" d="m287.9987 432.0l0 0c0 -26.509674 -21.490326 -48.0 -48.0 -48.0l0 0c-12.730392 0 -24.939377 5.057129 -33.94113 14.058868c-9.0017395 9.0017395 -14.058868 21.210754 -14.058868 33.94113l0 0c0 26.509674 21.490326 48.0 48.0 48.0l0 0c26.509674 0 48.0 -21.490326 48.0 -48.0z" fill-rule="evenodd"/></g></svg>