<?xml version="1.0" encoding="UTF-8" standalone="no"?>
<svg
   xmlns:dc="http://purl.org/dc/elements/1.1/"
   xmlns:cc="http://creativecommons.org/ns#"
   xmlns:rdf="http://www.w3.org/1999/02/22-rdf-syntax-ns#"
   xmlns:svg="http://www.w3.org/2000/svg"
   xmlns="http://www.w3.org/2000/svg"
   xmlns:sodipodi="http://sodipodi.sourceforge.net/DTD/sodipodi-0.dtd"
   xmlns:inkscape="http://www.inkscape.org/namespaces/inkscape"
   width="500"
   height="500"
   viewBox="0 0 132.29166 132.29167"
   version="1.1"
   id="svg3514"
   sodipodi:docname="resume.svg"
   inkscape:version="1.0.1 (c497b03c, 2020-09-10)">
  <defs
     id="defs3508" />
  <sodipodi:namedview
     id="base"
     pagecolor="#ffffff"
     bordercolor="#666666"
     borderopacity="1.0"
     inkscape:pageopacity="0.0"
     inkscape:pageshadow="2"
     inkscape:zoom="1"
     inkscape:cx="260.04866"
     inkscape:cy="285.3767"
     inkscape:document-units="mm"
     inkscape:current-layer="layer1"
     inkscape:document-rotation="0"
     showgrid="false"
     units="px"
     inkscape:window-width="1252"
     inkscape:window-height="847"
     inkscape:window-x="234"
     inkscape:window-y="25"
     inkscape:window-maximized="0" />
  <metadata
     id="metadata3511">
    <rdf:RDF>
      <cc:Work
         rdf:about="">
        <dc:format>image/svg+xml</dc:format>
        <dc:type
           rdf:resource="http://purl.org/dc/dcmitype/StillImage" />
        <dc:title></dc:title>
      </cc:Work>
    </rdf:RDF>
  </metadata>
  <g
     inkscape:label="Layer 1"
     inkscape:groupmode="layer"
     id="layer1">
    <path
       id="path4077"
       style="fill:#000000;fill-opacity:1;stroke:none;stroke-width:41.7653;stroke-miterlimit:4;stroke-dasharray:none"
       d="M 249.52539 0 A 250.00001 250.00001 0 0 0 0 250 A 250.00001 250.00001 0 0 0 250 500 A 250.00001 250.00001 0 0 0 500 250 A 250.00001 250.00001 0 0 0 250 0 A 250.00001 250.00001 0 0 0 249.52539 0 z M 135.44727 133.5 A 50.000001 50.000001 0 0 1 135.5 133.5 A 50.000001 50.000001 0 0 1 185.5 183.5 A 50.000001 50.000001 0 0 1 135.5 233.5 A 50.000001 50.000001 0 0 1 85.5 183.5 A 50.000001 50.000001 0 0 1 135.44727 133.5 z M 229.5 142 L 399.5 142 C 407.81001 142 414.5 148.69 414.5 157 C 414.5 165.31 407.81001 172 399.5 172 L 229.5 172 C 221.19 172 214.5 165.31 214.5 157 C 214.5 148.69 221.19 142 229.5 142 z M 229.5 204 L 399.5 204 C 407.81001 204 414.5 210.69 414.5 219 C 414.5 227.31 407.81001 234 399.5 234 L 229.5 234 C 221.19 234 214.5 227.31 214.5 219 C 214.5 210.69 221.19 204 229.5 204 z M 135.45703 239.5 A 50.000001 99.999999 0 0 1 135.5 239.5 A 50.000001 99.999999 0 0 1 185.5 339.5 A 50.000001 99.999999 0 0 1 185.01562 353.38086 A 99.999999 99.999999 0 0 1 135.5 366.5 A 99.999999 99.999999 0 0 1 85.984375 353.37891 A 50.000001 99.999999 0 0 1 85.5 339.5 A 50.000001 99.999999 0 0 1 135.45703 239.5 z M 229.5 266 L 399.5 266 C 407.81001 266 414.5 272.69 414.5 281 C 414.5 289.31 407.81001 296 399.5 296 L 229.5 296 C 221.19 296 214.5 289.31 214.5 281 C 214.5 272.69 221.19 266 229.5 266 z M 229.5 328 L 399.5 328 C 407.81001 328 414.5 334.69 414.5 343 C 414.5 351.31 407.81001 358 399.5 358 L 229.5 358 C 221.19 358 214.5 351.31 214.5 343 C 214.5 334.69 221.19 328 229.5 328 z "
       transform="scale(0.26458333)" />
  </g>
</svg>
