<?xml version="1.0" encoding="UTF-8" standalone="no"?>
<svg
   xmlns:dc="http://purl.org/dc/elements/1.1/"
   xmlns:cc="http://creativecommons.org/ns#"
   xmlns:rdf="http://www.w3.org/1999/02/22-rdf-syntax-ns#"
   xmlns:svg="http://www.w3.org/2000/svg"
   xmlns="http://www.w3.org/2000/svg"
   xmlns:sodipodi="http://sodipodi.sourceforge.net/DTD/sodipodi-0.dtd"
   xmlns:inkscape="http://www.inkscape.org/namespaces/inkscape"
   width="500"
   height="500"
   viewBox="0 0 132.29166 132.29167"
   version="1.1"
   id="svg8"
   inkscape:version="1.0.1 (c497b03c, 2020-09-10)"
   sodipodi:docname="leetcode.svg">
  <defs
     id="defs2" />
  <sodipodi:namedview
     id="base"
     pagecolor="#ffffff"
     bordercolor="#666666"
     borderopacity="1.0"
     inkscape:pageopacity="0.0"
     inkscape:pageshadow="2"
     inkscape:zoom="0.94221278"
     inkscape:cx="246.63761"
     inkscape:cy="220.37395"
     inkscape:document-units="mm"
     inkscape:current-layer="layer1"
     inkscape:document-rotation="0"
     showgrid="false"
     units="px"
     inkscape:window-width="1252"
     inkscape:window-height="847"
     inkscape:window-x="1562"
     inkscape:window-y="48"
     inkscape:window-maximized="0" />
  <metadata
     id="metadata5">
    <rdf:RDF>
      <cc:Work
         rdf:about="">
        <dc:format>image/svg+xml</dc:format>
        <dc:type
           rdf:resource="http://purl.org/dc/dcmitype/StillImage" />
        <dc:title></dc:title>
      </cc:Work>
    </rdf:RDF>
  </metadata>
  <g
     inkscape:label="Layer 1"
     inkscape:groupmode="layer"
     id="layer1">
    <g
       id="g24"
       transform="translate(23.318494,23.056489)">
      <path
         id="path52"
         style="fill:#00001d;fill-opacity:1;stroke-width:16.2245"
         d="M 249.52539 0 A 250.00001 250.00001 0 0 0 0 250 A 250.00001 250.00001 0 0 0 250 500 A 250.00001 250.00001 0 0 0 500 250 A 250.00001 250.00001 0 0 0 250 0 A 250.00001 250.00001 0 0 0 249.52539 0 z M 287.48633 72.699219 C 290.17853 72.704386 291.67 73.20728 294.71484 74.699219 C 300.26965 77.42099 303.7352 81.385153 305.58984 87.136719 C 307.30356 92.454211 307.30702 94.766771 305.60938 100.52344 C 304.35451 104.77858 302.89257 106.478 284.88477 124.63086 L 265.50977 144.16211 L 271 145.85938 C 286.28832 150.58852 295.37726 157.39653 321.42773 183.63281 C 343.2766 205.63754 344.78 207.7291 344.8125 216.17383 C 344.85689 227.87537 335.85836 237.17555 324.38477 237.28516 C 315.76228 237.36739 314.96698 236.79334 291.81055 213.83008 C 280.00713 202.12512 268.74577 191.55154 266.78711 190.33398 C 264.82845 189.11644 260.2863 187.1337 256.69336 185.92578 C 250.97274 184.00258 249.16623 183.77654 242.16016 184.11133 C 225.09841 184.92665 223.284 186.22685 184 225.78711 C 154.27848 255.71762 151.25933 259.02056 148.50586 264.60156 C 144.60615 272.5059 143.37486 278.65197 143.90625 287.58008 C 144.39455 295.78391 146.36079 301.6375 150.95898 308.57617 C 155.34377 315.19284 216.22358 376.081 221.45508 379.08203 C 231.25644 384.70455 242.136 386.45114 252.77148 384.11133 C 264.74269 381.47764 267.32777 379.58344 290.49219 356.45312 C 302.03314 344.92914 312.94569 334.74698 314.74414 333.82812 C 325.11879 328.52744 337.51203 332.87781 342.78516 343.67188 C 344.77924 347.75389 345.00166 349.02873 344.63281 354.19141 C 344.32152 358.54854 343.67334 360.88139 342.12109 363.23047 C 338.93502 368.05219 304.9791 402.4926 297.31055 408.67969 C 289.31481 415.13077 274.95047 422.4787 265.29883 425.05664 C 255.55807 427.65779 236.07404 428.07502 226.08594 425.89648 C 215.72375 423.63633 205.36136 419.13493 196.00586 412.83008 C 189.22268 408.25875 182.27864 401.71403 154.1543 373.38281 C 135.60883 354.70094 119.10133 337.51903 117.4707 335.20117 C 102.03267 313.25675 97.269063 286.74121 104.19922 261.33984 C 106.4401 253.12623 113.10488 239.5089 117.9668 233.21484 C 122.9065 226.82009 271.88998 77.384703 275.68945 75.013672 C 277.54961 73.85288 280.46814 73.115745 284.29102 72.841797 C 285.55734 72.751056 286.58893 72.697496 287.48633 72.699219 z M 304.48242 263.94336 C 343.21026 263.87273 382.0754 264.16531 384.68359 264.89062 C 388.88875 266.06001 395.14963 271.84757 397.19922 276.45898 C 401.4318 285.98192 397.55304 297.45847 388.30664 302.76953 L 388.30664 302.77148 L 383.96484 305.26562 L 305.27539 305.27148 C 227.1034 305.27866 226.56311 305.26648 223.02734 303.51367 C 212.65547 298.37198 208.6415 286.17358 213.82812 275.55664 C 216.36293 270.3679 220.02673 266.99887 225.11133 265.18164 C 227.16451 264.44784 265.75459 264.01398 304.48242 263.94336 z "
         transform="matrix(0.26458333,0,0,0.26458333,-23.318494,-23.056489)" />
    </g>
  </g>
</svg>
